G04*
G04 #@! TF.GenerationSoftware,Altium Limited,Altium Designer,26.8.1 (31)*
G04*
G04 Layer_Color=8388736*
G04 Board_Origin=0|0*
%FSLAX25Y25*%
%MOIN*%
G70*
G04*
G04 #@! TF.SameCoordinates,D1305378-CED7-41CA-A8E7-99A2C117E124*
G04*
G04*
G04 #@! TF.FilePolarity,Positive*
G04*
G01*
G75*
%ADD11C,0.00787*%
%ADD13C,0.00394*%
G36*
X212990Y125364D02*
X211019D01*
X211022Y125357D01*
X211036Y125344D01*
X211059Y125318D01*
X211085Y125285D01*
X211118Y125243D01*
X211154Y125190D01*
X211193Y125135D01*
X211232Y125069D01*
Y125066D01*
X211236Y125062D01*
X211242Y125052D01*
X211249Y125039D01*
X211268Y125003D01*
X211291Y124961D01*
X211318Y124911D01*
X211344Y124856D01*
X211370Y124800D01*
X211393Y124744D01*
X211091D01*
Y124748D01*
X211085Y124757D01*
X211078Y124770D01*
X211068Y124787D01*
X211059Y124810D01*
X211042Y124836D01*
X211009Y124898D01*
X210967Y124967D01*
X210914Y125046D01*
X210858Y125121D01*
X210796Y125197D01*
X210793Y125200D01*
X210790Y125207D01*
X210780Y125216D01*
X210767Y125230D01*
X210734Y125262D01*
X210688Y125305D01*
X210639Y125348D01*
X210580Y125394D01*
X210521Y125436D01*
X210458Y125472D01*
Y125672D01*
X212990D01*
Y125364D01*
D02*
G37*
G36*
X212266Y124085D02*
X212295D01*
X212331Y124082D01*
X212367Y124078D01*
X212446Y124068D01*
X212528Y124055D01*
X212607Y124036D01*
X212646Y124023D01*
X212679Y124010D01*
X212682D01*
X212685Y124006D01*
X212695Y124003D01*
X212708Y123996D01*
X212738Y123977D01*
X212777Y123950D01*
X212820Y123918D01*
X212863Y123875D01*
X212905Y123826D01*
X212945Y123767D01*
Y123764D01*
X212948Y123760D01*
X212951Y123750D01*
X212958Y123737D01*
X212974Y123704D01*
X212987Y123655D01*
X213004Y123600D01*
X213020Y123534D01*
X213030Y123458D01*
X213033Y123376D01*
Y123344D01*
X213030Y123321D01*
X213027Y123294D01*
X213023Y123262D01*
X213017Y123225D01*
X213010Y123189D01*
X212987Y123108D01*
X212971Y123065D01*
X212951Y123022D01*
X212931Y122979D01*
X212905Y122940D01*
X212876Y122904D01*
X212843Y122868D01*
X212840Y122865D01*
X212833Y122862D01*
X212823Y122852D01*
X212807Y122842D01*
X212787Y122829D01*
X212764Y122812D01*
X212735Y122796D01*
X212702Y122780D01*
X212663Y122766D01*
X212620Y122750D01*
X212574Y122737D01*
X212525Y122724D01*
X212469Y122714D01*
X212410Y122704D01*
X212348Y122701D01*
X212279D01*
X212236Y123003D01*
X212239D01*
X212249D01*
X212262D01*
X212282Y123006D01*
X212305Y123009D01*
X212331Y123012D01*
X212393Y123019D01*
X212459Y123032D01*
X212525Y123052D01*
X212584Y123075D01*
X212607Y123091D01*
X212630Y123108D01*
X212633Y123111D01*
X212646Y123127D01*
X212663Y123147D01*
X212682Y123180D01*
X212702Y123216D01*
X212718Y123262D01*
X212731Y123317D01*
X212735Y123376D01*
Y123396D01*
X212731Y123422D01*
X212728Y123452D01*
X212721Y123485D01*
X212712Y123521D01*
X212699Y123557D01*
X212679Y123593D01*
X212676Y123596D01*
X212669Y123609D01*
X212656Y123622D01*
X212636Y123642D01*
X212613Y123665D01*
X212587Y123685D01*
X212558Y123704D01*
X212521Y123717D01*
X212518Y123721D01*
X212502Y123724D01*
X212479Y123731D01*
X212446Y123737D01*
X212400Y123744D01*
X212348Y123747D01*
X212282Y123754D01*
X212207D01*
X210468D01*
Y124088D01*
X212187D01*
X212190D01*
X212200D01*
X212216D01*
X212239D01*
X212266Y124085D01*
D02*
G37*
G36*
X40675Y41544D02*
X40704Y41541D01*
X40740Y41537D01*
X40777Y41531D01*
X40819Y41524D01*
X40908Y41501D01*
X40954Y41485D01*
X41000Y41465D01*
X41049Y41446D01*
X41095Y41419D01*
X41137Y41390D01*
X41180Y41357D01*
X41183Y41354D01*
X41190Y41347D01*
X41200Y41337D01*
X41213Y41321D01*
X41232Y41301D01*
X41249Y41278D01*
X41272Y41252D01*
X41291Y41219D01*
X41314Y41186D01*
X41334Y41147D01*
X41357Y41105D01*
X41374Y41059D01*
X41393Y41009D01*
X41406Y40960D01*
X41419Y40904D01*
X41426Y40845D01*
X41101Y40822D01*
Y40826D01*
X41098Y40832D01*
Y40845D01*
X41095Y40862D01*
X41088Y40881D01*
X41082Y40904D01*
X41069Y40954D01*
X41045Y41013D01*
X41016Y41072D01*
X40980Y41127D01*
X40937Y41177D01*
X40931Y41180D01*
X40914Y41193D01*
X40885Y41213D01*
X40849Y41232D01*
X40803Y41255D01*
X40747Y41272D01*
X40688Y41285D01*
X40619Y41291D01*
X40596D01*
X40580Y41288D01*
X40563Y41285D01*
X40540Y41282D01*
X40488Y41272D01*
X40426Y41252D01*
X40363Y41219D01*
X40330Y41203D01*
X40298Y41180D01*
X40268Y41154D01*
X40239Y41124D01*
X40235Y41121D01*
X40232Y41118D01*
X40225Y41108D01*
X40216Y41095D01*
X40203Y41078D01*
X40189Y41055D01*
X40176Y41032D01*
X40160Y41006D01*
X40134Y40940D01*
X40107Y40865D01*
X40091Y40777D01*
X40084Y40731D01*
Y40678D01*
Y40675D01*
Y40665D01*
Y40652D01*
X40088Y40635D01*
Y40613D01*
X40091Y40586D01*
X40104Y40527D01*
X40121Y40458D01*
X40147Y40389D01*
X40183Y40321D01*
X40206Y40288D01*
X40232Y40258D01*
Y40255D01*
X40239Y40252D01*
X40249Y40245D01*
X40258Y40235D01*
X40291Y40209D01*
X40337Y40179D01*
X40393Y40153D01*
X40458Y40127D01*
X40537Y40111D01*
X40576Y40104D01*
X40649D01*
X40675Y40107D01*
X40714Y40114D01*
X40754Y40121D01*
X40799Y40134D01*
X40849Y40153D01*
X40895Y40176D01*
X40901Y40179D01*
X40914Y40189D01*
X40934Y40203D01*
X40960Y40225D01*
X40990Y40248D01*
X41023Y40281D01*
X41052Y40314D01*
X41078Y40353D01*
X41370Y40311D01*
X41127Y39015D01*
X39875D01*
Y39310D01*
X40881D01*
X41016Y39992D01*
X41013Y39989D01*
X41006Y39986D01*
X40993Y39976D01*
X40977Y39966D01*
X40957Y39957D01*
X40931Y39940D01*
X40905Y39927D01*
X40872Y39911D01*
X40799Y39881D01*
X40721Y39858D01*
X40632Y39838D01*
X40586Y39835D01*
X40540Y39832D01*
X40508D01*
X40485Y39835D01*
X40458Y39838D01*
X40426Y39845D01*
X40389Y39851D01*
X40347Y39861D01*
X40304Y39871D01*
X40262Y39888D01*
X40216Y39907D01*
X40166Y39927D01*
X40121Y39957D01*
X40075Y39986D01*
X40029Y40022D01*
X39986Y40061D01*
X39983Y40065D01*
X39976Y40071D01*
X39966Y40084D01*
X39950Y40104D01*
X39934Y40127D01*
X39914Y40153D01*
X39891Y40186D01*
X39871Y40222D01*
X39848Y40262D01*
X39829Y40307D01*
X39809Y40353D01*
X39792Y40406D01*
X39776Y40465D01*
X39766Y40524D01*
X39760Y40586D01*
X39757Y40652D01*
Y40655D01*
Y40668D01*
Y40685D01*
X39760Y40708D01*
X39763Y40737D01*
X39766Y40773D01*
X39773Y40813D01*
X39783Y40852D01*
X39806Y40947D01*
X39822Y40996D01*
X39842Y41045D01*
X39865Y41095D01*
X39891Y41144D01*
X39920Y41193D01*
X39957Y41242D01*
X39960Y41245D01*
X39966Y41255D01*
X39983Y41272D01*
X40002Y41288D01*
X40025Y41314D01*
X40055Y41337D01*
X40091Y41367D01*
X40130Y41393D01*
X40176Y41423D01*
X40225Y41452D01*
X40278Y41475D01*
X40337Y41498D01*
X40403Y41518D01*
X40472Y41534D01*
X40544Y41544D01*
X40619Y41547D01*
X40652D01*
X40675Y41544D01*
D02*
G37*
G36*
X42905D02*
X42935D01*
X42971Y41541D01*
X43010Y41537D01*
X43053Y41531D01*
X43145Y41518D01*
X43240Y41495D01*
X43338Y41465D01*
X43427Y41426D01*
X43430D01*
X43437Y41419D01*
X43450Y41413D01*
X43463Y41403D01*
X43502Y41377D01*
X43551Y41337D01*
X43604Y41288D01*
X43656Y41226D01*
X43706Y41157D01*
X43748Y41075D01*
Y41072D01*
X43751Y41065D01*
X43758Y41052D01*
X43761Y41032D01*
X43771Y41009D01*
X43778Y40980D01*
X43788Y40947D01*
X43794Y40908D01*
X43804Y40865D01*
X43814Y40819D01*
X43820Y40767D01*
X43827Y40711D01*
X43834Y40649D01*
X43840Y40583D01*
X43843Y40514D01*
Y40442D01*
Y38982D01*
X43509D01*
Y40439D01*
Y40442D01*
Y40452D01*
Y40471D01*
Y40491D01*
X43505Y40521D01*
Y40550D01*
X43502Y40586D01*
Y40622D01*
X43496Y40701D01*
X43483Y40783D01*
X43469Y40859D01*
X43460Y40891D01*
X43450Y40924D01*
Y40927D01*
X43446Y40931D01*
X43437Y40950D01*
X43424Y40977D01*
X43400Y41013D01*
X43371Y41049D01*
X43335Y41091D01*
X43292Y41127D01*
X43240Y41164D01*
X43237D01*
X43233Y41167D01*
X43214Y41177D01*
X43181Y41190D01*
X43138Y41203D01*
X43086Y41219D01*
X43023Y41232D01*
X42954Y41242D01*
X42876Y41245D01*
X42840D01*
X42817Y41242D01*
X42787Y41239D01*
X42751Y41236D01*
X42712Y41232D01*
X42672Y41226D01*
X42587Y41206D01*
X42498Y41177D01*
X42459Y41157D01*
X42420Y41134D01*
X42384Y41111D01*
X42351Y41082D01*
X42348Y41078D01*
X42344Y41072D01*
X42338Y41062D01*
X42325Y41049D01*
X42315Y41029D01*
X42302Y41003D01*
X42285Y40973D01*
X42272Y40937D01*
X42256Y40898D01*
X42243Y40852D01*
X42230Y40799D01*
X42216Y40740D01*
X42207Y40675D01*
X42200Y40603D01*
X42197Y40524D01*
X42193Y40439D01*
Y38982D01*
X41859D01*
Y40442D01*
Y40445D01*
Y40458D01*
Y40478D01*
Y40504D01*
X41862Y40537D01*
Y40573D01*
X41866Y40616D01*
X41869Y40658D01*
X41882Y40757D01*
X41895Y40859D01*
X41918Y40957D01*
X41931Y41003D01*
X41947Y41045D01*
Y41049D01*
X41951Y41055D01*
X41957Y41068D01*
X41964Y41082D01*
X41974Y41101D01*
X41987Y41124D01*
X42020Y41173D01*
X42062Y41232D01*
X42115Y41291D01*
X42180Y41354D01*
X42220Y41383D01*
X42259Y41410D01*
X42262D01*
X42269Y41416D01*
X42282Y41423D01*
X42298Y41432D01*
X42321Y41442D01*
X42348Y41452D01*
X42380Y41465D01*
X42417Y41478D01*
X42456Y41491D01*
X42502Y41505D01*
X42548Y41515D01*
X42600Y41524D01*
X42656Y41534D01*
X42715Y41541D01*
X42781Y41544D01*
X42846Y41547D01*
X42879D01*
X42905Y41544D01*
D02*
G37*
G36*
X112819Y46355D02*
X111812D01*
X111678Y45673D01*
X111681Y45676D01*
X111687Y45679D01*
X111700Y45689D01*
X111717Y45699D01*
X111737Y45709D01*
X111763Y45725D01*
X111789Y45738D01*
X111822Y45755D01*
X111894Y45784D01*
X111973Y45807D01*
X112061Y45827D01*
X112107Y45830D01*
X112153Y45833D01*
X112186D01*
X112209Y45830D01*
X112235Y45827D01*
X112268Y45820D01*
X112304Y45814D01*
X112347Y45804D01*
X112389Y45794D01*
X112432Y45778D01*
X112478Y45758D01*
X112527Y45738D01*
X112573Y45709D01*
X112619Y45679D01*
X112665Y45643D01*
X112707Y45604D01*
X112711Y45601D01*
X112717Y45594D01*
X112727Y45581D01*
X112743Y45561D01*
X112760Y45538D01*
X112780Y45512D01*
X112803Y45479D01*
X112822Y45443D01*
X112845Y45404D01*
X112865Y45358D01*
X112884Y45312D01*
X112901Y45259D01*
X112917Y45200D01*
X112927Y45141D01*
X112934Y45079D01*
X112937Y45013D01*
Y45010D01*
Y44997D01*
Y44981D01*
X112934Y44958D01*
X112930Y44928D01*
X112927Y44892D01*
X112921Y44853D01*
X112911Y44813D01*
X112888Y44718D01*
X112871Y44669D01*
X112852Y44620D01*
X112829Y44571D01*
X112803Y44521D01*
X112773Y44472D01*
X112737Y44423D01*
X112734Y44420D01*
X112727Y44410D01*
X112711Y44394D01*
X112691Y44377D01*
X112668Y44351D01*
X112638Y44328D01*
X112602Y44298D01*
X112563Y44272D01*
X112517Y44243D01*
X112468Y44213D01*
X112416Y44190D01*
X112356Y44167D01*
X112291Y44148D01*
X112222Y44131D01*
X112150Y44121D01*
X112074Y44118D01*
X112042D01*
X112019Y44121D01*
X111989Y44124D01*
X111953Y44128D01*
X111917Y44134D01*
X111874Y44141D01*
X111786Y44164D01*
X111740Y44180D01*
X111694Y44200D01*
X111645Y44220D01*
X111599Y44246D01*
X111556Y44275D01*
X111513Y44308D01*
X111510Y44311D01*
X111504Y44318D01*
X111494Y44328D01*
X111481Y44344D01*
X111461Y44364D01*
X111445Y44387D01*
X111422Y44413D01*
X111402Y44446D01*
X111379Y44479D01*
X111359Y44518D01*
X111336Y44561D01*
X111320Y44607D01*
X111300Y44656D01*
X111287Y44705D01*
X111274Y44761D01*
X111267Y44820D01*
X111592Y44843D01*
Y44840D01*
X111595Y44833D01*
Y44820D01*
X111599Y44804D01*
X111605Y44784D01*
X111612Y44761D01*
X111625Y44712D01*
X111648Y44653D01*
X111678Y44594D01*
X111714Y44538D01*
X111756Y44489D01*
X111763Y44485D01*
X111779Y44472D01*
X111809Y44453D01*
X111845Y44433D01*
X111891Y44410D01*
X111946Y44394D01*
X112005Y44380D01*
X112074Y44374D01*
X112097D01*
X112114Y44377D01*
X112130Y44380D01*
X112153Y44384D01*
X112206Y44394D01*
X112268Y44413D01*
X112330Y44446D01*
X112363Y44462D01*
X112396Y44485D01*
X112425Y44512D01*
X112455Y44541D01*
X112458Y44544D01*
X112461Y44548D01*
X112468Y44557D01*
X112478Y44571D01*
X112491Y44587D01*
X112504Y44610D01*
X112517Y44633D01*
X112534Y44659D01*
X112560Y44725D01*
X112586Y44800D01*
X112602Y44889D01*
X112609Y44935D01*
Y44987D01*
Y44990D01*
Y45000D01*
Y45013D01*
X112606Y45030D01*
Y45053D01*
X112602Y45079D01*
X112589Y45138D01*
X112573Y45207D01*
X112547Y45276D01*
X112511Y45345D01*
X112488Y45377D01*
X112461Y45407D01*
Y45410D01*
X112455Y45414D01*
X112445Y45420D01*
X112435Y45430D01*
X112402Y45456D01*
X112356Y45486D01*
X112301Y45512D01*
X112235Y45538D01*
X112156Y45555D01*
X112117Y45561D01*
X112045D01*
X112019Y45558D01*
X111979Y45551D01*
X111940Y45545D01*
X111894Y45532D01*
X111845Y45512D01*
X111799Y45489D01*
X111792Y45486D01*
X111779Y45476D01*
X111759Y45463D01*
X111733Y45440D01*
X111704Y45417D01*
X111671Y45384D01*
X111641Y45351D01*
X111615Y45312D01*
X111323Y45355D01*
X111566Y46650D01*
X112819D01*
Y46355D01*
D02*
G37*
G36*
X109818Y46680D02*
X109880D01*
X109952Y46673D01*
X110028Y46666D01*
X110100Y46657D01*
X110162Y46643D01*
X110165D01*
X110172Y46640D01*
X110185Y46637D01*
X110198Y46634D01*
X110218Y46627D01*
X110241Y46621D01*
X110290Y46604D01*
X110349Y46578D01*
X110411Y46548D01*
X110474Y46509D01*
X110533Y46463D01*
X110536Y46460D01*
X110543Y46457D01*
X110552Y46447D01*
X110566Y46434D01*
X110582Y46417D01*
X110602Y46398D01*
X110621Y46375D01*
X110644Y46348D01*
X110694Y46286D01*
X110743Y46211D01*
X110792Y46129D01*
X110831Y46033D01*
Y46030D01*
X110835Y46020D01*
X110841Y46007D01*
X110848Y45987D01*
X110854Y45961D01*
X110864Y45932D01*
X110874Y45899D01*
X110884Y45860D01*
X110890Y45817D01*
X110900Y45771D01*
X110910Y45722D01*
X110916Y45669D01*
X110930Y45555D01*
X110933Y45433D01*
Y45430D01*
Y45420D01*
Y45407D01*
Y45384D01*
X110930Y45361D01*
Y45331D01*
X110926Y45299D01*
X110923Y45263D01*
X110916Y45184D01*
X110903Y45099D01*
X110887Y45010D01*
X110864Y44925D01*
Y44921D01*
X110861Y44915D01*
X110857Y44902D01*
X110851Y44889D01*
X110844Y44869D01*
X110838Y44846D01*
X110818Y44797D01*
X110795Y44738D01*
X110766Y44675D01*
X110730Y44613D01*
X110694Y44557D01*
X110690Y44551D01*
X110674Y44535D01*
X110654Y44508D01*
X110625Y44475D01*
X110592Y44439D01*
X110552Y44400D01*
X110506Y44364D01*
X110461Y44328D01*
X110454Y44325D01*
X110438Y44315D01*
X110411Y44298D01*
X110375Y44282D01*
X110333Y44262D01*
X110280Y44239D01*
X110221Y44220D01*
X110159Y44203D01*
X110156D01*
X110152Y44200D01*
X110142D01*
X110129Y44197D01*
X110113Y44193D01*
X110093Y44190D01*
X110044Y44183D01*
X109985Y44174D01*
X109916Y44167D01*
X109837Y44164D01*
X109755Y44161D01*
X108847D01*
Y46683D01*
X109788D01*
X109818Y46680D01*
D02*
G37*
G36*
X78203Y74512D02*
X77905D01*
Y75880D01*
X77124D01*
Y74696D01*
X76826D01*
Y75880D01*
X75681D01*
Y76214D01*
X78203D01*
Y74512D01*
D02*
G37*
G36*
Y73098D02*
X78200Y73075D01*
Y73046D01*
X78193Y72980D01*
X78184Y72908D01*
X78170Y72830D01*
X78151Y72754D01*
X78124Y72685D01*
Y72682D01*
X78121Y72679D01*
X78118Y72669D01*
X78111Y72656D01*
X78092Y72626D01*
X78065Y72587D01*
X78033Y72541D01*
X77993Y72498D01*
X77944Y72452D01*
X77888Y72413D01*
X77885D01*
X77882Y72410D01*
X77862Y72397D01*
X77829Y72380D01*
X77787Y72360D01*
X77737Y72344D01*
X77682Y72328D01*
X77623Y72315D01*
X77557Y72311D01*
X77554D01*
X77551D01*
X77541D01*
X77531D01*
X77498Y72315D01*
X77459Y72321D01*
X77409Y72334D01*
X77357Y72347D01*
X77304Y72370D01*
X77249Y72400D01*
X77242Y72403D01*
X77226Y72416D01*
X77200Y72436D01*
X77167Y72465D01*
X77131Y72505D01*
X77095Y72551D01*
X77055Y72603D01*
X77022Y72666D01*
Y72662D01*
X77019Y72656D01*
X77016Y72643D01*
X77009Y72626D01*
X77003Y72610D01*
X76993Y72587D01*
X76967Y72534D01*
X76934Y72479D01*
X76894Y72420D01*
X76845Y72364D01*
X76789Y72315D01*
X76786D01*
X76783Y72308D01*
X76773Y72302D01*
X76760Y72295D01*
X76727Y72275D01*
X76681Y72252D01*
X76626Y72229D01*
X76560Y72210D01*
X76488Y72197D01*
X76409Y72190D01*
X76406D01*
X76402D01*
X76393D01*
X76380D01*
X76347Y72193D01*
X76301Y72200D01*
X76252Y72210D01*
X76196Y72223D01*
X76140Y72239D01*
X76081Y72265D01*
X76074Y72269D01*
X76055Y72278D01*
X76029Y72295D01*
X75996Y72318D01*
X75956Y72344D01*
X75917Y72377D01*
X75881Y72413D01*
X75845Y72452D01*
X75842Y72456D01*
X75832Y72472D01*
X75815Y72495D01*
X75799Y72528D01*
X75779Y72567D01*
X75756Y72613D01*
X75737Y72669D01*
X75720Y72728D01*
Y72734D01*
X75717Y72744D01*
X75714Y72757D01*
X75710Y72774D01*
X75707Y72794D01*
X75700Y72839D01*
X75694Y72898D01*
X75687Y72967D01*
X75684Y73046D01*
X75681Y73135D01*
Y74092D01*
X78203D01*
Y73098D01*
D02*
G37*
G36*
X77580Y71616D02*
X77587Y71606D01*
X77593Y71593D01*
X77603Y71577D01*
X77613Y71554D01*
X77629Y71527D01*
X77662Y71465D01*
X77705Y71396D01*
X77757Y71317D01*
X77813Y71242D01*
X77875Y71167D01*
X77878Y71163D01*
X77882Y71157D01*
X77892Y71147D01*
X77905Y71134D01*
X77938Y71101D01*
X77983Y71058D01*
X78033Y71016D01*
X78092Y70970D01*
X78151Y70927D01*
X78213Y70891D01*
Y70691D01*
X75681D01*
Y70999D01*
X77652D01*
X77649Y71006D01*
X77636Y71019D01*
X77613Y71045D01*
X77587Y71078D01*
X77554Y71121D01*
X77518Y71173D01*
X77478Y71229D01*
X77439Y71294D01*
Y71298D01*
X77436Y71301D01*
X77429Y71311D01*
X77422Y71324D01*
X77403Y71360D01*
X77380Y71403D01*
X77354Y71452D01*
X77327Y71508D01*
X77301Y71564D01*
X77278Y71619D01*
X77580D01*
Y71616D01*
D02*
G37*
G36*
X22209Y74929D02*
X22242Y74926D01*
X22278Y74922D01*
X22318Y74916D01*
X22360Y74906D01*
X22452Y74883D01*
X22498Y74866D01*
X22547Y74847D01*
X22596Y74824D01*
X22642Y74794D01*
X22685Y74765D01*
X22728Y74729D01*
X22731Y74726D01*
X22738Y74719D01*
X22747Y74709D01*
X22761Y74693D01*
X22777Y74673D01*
X22797Y74650D01*
X22813Y74624D01*
X22836Y74591D01*
X22856Y74558D01*
X22872Y74519D01*
X22908Y74434D01*
X22921Y74388D01*
X22931Y74338D01*
X22938Y74286D01*
X22941Y74230D01*
Y74224D01*
Y74204D01*
X22938Y74174D01*
X22934Y74135D01*
X22925Y74092D01*
X22915Y74040D01*
X22898Y73988D01*
X22879Y73932D01*
X22875Y73925D01*
X22865Y73905D01*
X22852Y73876D01*
X22829Y73840D01*
X22800Y73794D01*
X22764Y73742D01*
X22721Y73682D01*
X22672Y73623D01*
Y73620D01*
X22665Y73617D01*
X22656Y73607D01*
X22646Y73594D01*
X22629Y73577D01*
X22610Y73558D01*
X22587Y73535D01*
X22557Y73509D01*
X22528Y73479D01*
X22492Y73446D01*
X22452Y73407D01*
X22410Y73368D01*
X22360Y73325D01*
X22311Y73282D01*
X22252Y73233D01*
X22193Y73181D01*
X22190Y73177D01*
X22180Y73171D01*
X22167Y73158D01*
X22147Y73145D01*
X22128Y73125D01*
X22101Y73102D01*
X22046Y73053D01*
X21983Y73000D01*
X21924Y72948D01*
X21898Y72925D01*
X21875Y72902D01*
X21852Y72879D01*
X21836Y72862D01*
X21832Y72859D01*
X21822Y72849D01*
X21809Y72833D01*
X21790Y72810D01*
X21770Y72787D01*
X21747Y72758D01*
X21704Y72698D01*
X22944D01*
Y72400D01*
X21275D01*
Y72407D01*
Y72420D01*
Y72439D01*
X21278Y72469D01*
X21281Y72502D01*
X21288Y72538D01*
X21298Y72574D01*
X21311Y72613D01*
Y72616D01*
X21314Y72620D01*
X21317Y72629D01*
X21324Y72643D01*
X21337Y72676D01*
X21360Y72718D01*
X21389Y72771D01*
X21422Y72826D01*
X21465Y72885D01*
X21514Y72948D01*
X21517Y72951D01*
X21521Y72954D01*
X21531Y72964D01*
X21540Y72977D01*
X21573Y73013D01*
X21619Y73059D01*
X21675Y73115D01*
X21744Y73181D01*
X21826Y73253D01*
X21921Y73331D01*
X21924Y73335D01*
X21937Y73348D01*
X21960Y73364D01*
X21986Y73387D01*
X22019Y73417D01*
X22059Y73449D01*
X22101Y73486D01*
X22144Y73525D01*
X22236Y73610D01*
X22328Y73699D01*
X22370Y73745D01*
X22410Y73787D01*
X22446Y73827D01*
X22475Y73866D01*
X22478Y73869D01*
X22482Y73876D01*
X22488Y73886D01*
X22498Y73899D01*
X22508Y73919D01*
X22521Y73938D01*
X22551Y73988D01*
X22577Y74043D01*
X22600Y74106D01*
X22616Y74174D01*
X22623Y74207D01*
Y74240D01*
Y74243D01*
Y74250D01*
Y74256D01*
X22619Y74270D01*
X22616Y74306D01*
X22606Y74348D01*
X22590Y74397D01*
X22567Y74447D01*
X22534Y74499D01*
X22488Y74548D01*
X22482Y74555D01*
X22465Y74568D01*
X22436Y74588D01*
X22396Y74614D01*
X22347Y74637D01*
X22288Y74657D01*
X22219Y74670D01*
X22144Y74676D01*
X22121D01*
X22108Y74673D01*
X22088D01*
X22065Y74670D01*
X22016Y74660D01*
X21960Y74643D01*
X21898Y74620D01*
X21839Y74588D01*
X21786Y74542D01*
X21780Y74535D01*
X21767Y74519D01*
X21744Y74486D01*
X21721Y74447D01*
X21695Y74391D01*
X21671Y74329D01*
X21658Y74256D01*
X21652Y74171D01*
X21334Y74204D01*
Y74207D01*
X21337Y74220D01*
Y74237D01*
X21340Y74263D01*
X21347Y74292D01*
X21353Y74325D01*
X21363Y74365D01*
X21376Y74404D01*
X21406Y74493D01*
X21426Y74538D01*
X21449Y74581D01*
X21475Y74627D01*
X21504Y74670D01*
X21537Y74709D01*
X21576Y74745D01*
X21580Y74748D01*
X21586Y74752D01*
X21599Y74761D01*
X21616Y74775D01*
X21639Y74788D01*
X21665Y74804D01*
X21695Y74821D01*
X21731Y74840D01*
X21770Y74857D01*
X21813Y74873D01*
X21858Y74889D01*
X21911Y74903D01*
X21963Y74916D01*
X22023Y74926D01*
X22085Y74929D01*
X22150Y74932D01*
X22186D01*
X22209Y74929D01*
D02*
G37*
G36*
X19871Y74919D02*
X19933D01*
X20005Y74912D01*
X20081Y74906D01*
X20153Y74896D01*
X20215Y74883D01*
X20219D01*
X20225Y74880D01*
X20238Y74876D01*
X20251Y74873D01*
X20271Y74866D01*
X20294Y74860D01*
X20343Y74844D01*
X20402Y74817D01*
X20464Y74788D01*
X20527Y74748D01*
X20586Y74703D01*
X20589Y74699D01*
X20596Y74696D01*
X20606Y74686D01*
X20619Y74673D01*
X20635Y74657D01*
X20655Y74637D01*
X20674Y74614D01*
X20697Y74588D01*
X20747Y74525D01*
X20796Y74450D01*
X20845Y74368D01*
X20884Y74273D01*
Y74270D01*
X20888Y74260D01*
X20894Y74247D01*
X20901Y74227D01*
X20907Y74201D01*
X20917Y74171D01*
X20927Y74138D01*
X20937Y74099D01*
X20943Y74056D01*
X20953Y74010D01*
X20963Y73961D01*
X20970Y73909D01*
X20983Y73794D01*
X20986Y73673D01*
Y73669D01*
Y73659D01*
Y73646D01*
Y73623D01*
X20983Y73600D01*
Y73571D01*
X20979Y73538D01*
X20976Y73502D01*
X20970Y73423D01*
X20956Y73338D01*
X20940Y73250D01*
X20917Y73164D01*
Y73161D01*
X20914Y73154D01*
X20911Y73141D01*
X20904Y73128D01*
X20898Y73108D01*
X20891Y73085D01*
X20871Y73036D01*
X20848Y72977D01*
X20819Y72915D01*
X20783Y72853D01*
X20747Y72797D01*
X20743Y72790D01*
X20727Y72774D01*
X20707Y72748D01*
X20678Y72715D01*
X20645Y72679D01*
X20606Y72639D01*
X20560Y72603D01*
X20514Y72567D01*
X20507Y72564D01*
X20491Y72554D01*
X20464Y72538D01*
X20428Y72521D01*
X20386Y72502D01*
X20333Y72479D01*
X20274Y72459D01*
X20212Y72443D01*
X20209D01*
X20205Y72439D01*
X20196D01*
X20182Y72436D01*
X20166Y72433D01*
X20146Y72430D01*
X20097Y72423D01*
X20038Y72413D01*
X19969Y72407D01*
X19891Y72403D01*
X19808Y72400D01*
X18900D01*
Y74922D01*
X19841D01*
X19871Y74919D01*
D02*
G37*
G36*
X34992Y74299D02*
X35010D01*
X36465D01*
Y73966D01*
X35010D01*
X35007D01*
X34996D01*
X34992D01*
Y73946D01*
X34699D01*
X34669Y73942D01*
X34592Y73925D01*
X34557Y73917D01*
X34527Y73906D01*
X34524D01*
X34521Y73903D01*
X34513Y73901D01*
X34502Y73895D01*
X34472Y73879D01*
X34439Y73857D01*
X34398Y73830D01*
X34360Y73794D01*
X34322Y73751D01*
X34286Y73699D01*
Y73696D01*
X34284Y73690D01*
X34278Y73682D01*
X34273Y73671D01*
X34267Y73658D01*
X34262Y73639D01*
X34254Y73620D01*
X34245Y73598D01*
X34232Y73543D01*
X34218Y73480D01*
X34207Y73409D01*
X34205Y73333D01*
Y73297D01*
X34207Y73273D01*
X34210Y73243D01*
X34213Y73207D01*
X34218Y73169D01*
X34226Y73128D01*
X34245Y73044D01*
X34259Y73000D01*
X34275Y72956D01*
X34295Y72915D01*
X34317Y72877D01*
X34341Y72841D01*
X34371Y72809D01*
X34374Y72806D01*
X34379Y72800D01*
X34390Y72795D01*
X34404Y72784D01*
X34423Y72773D01*
X34448Y72759D01*
X34478Y72743D01*
X34513Y72729D01*
X34554Y72716D01*
X34600Y72699D01*
X34638Y72690D01*
Y73372D01*
X37160D01*
Y72430D01*
X37157Y72401D01*
Y72339D01*
X37150Y72266D01*
X37144Y72191D01*
X37134Y72119D01*
X37121Y72057D01*
Y72053D01*
X37118Y72047D01*
X37114Y72034D01*
X37111Y72020D01*
X37104Y72001D01*
X37098Y71978D01*
X37082Y71929D01*
X37055Y71870D01*
X37026Y71807D01*
X36986Y71745D01*
X36941Y71686D01*
X36937Y71683D01*
X36934Y71676D01*
X36924Y71666D01*
X36911Y71653D01*
X36895Y71637D01*
X36875Y71617D01*
X36852Y71597D01*
X36826Y71574D01*
X36763Y71525D01*
X36688Y71476D01*
X36606Y71427D01*
X36511Y71387D01*
X36507D01*
X36498Y71384D01*
X36485Y71377D01*
X36465Y71371D01*
X36439Y71364D01*
X36428Y71361D01*
X36432Y71348D01*
X36446Y71304D01*
X36457Y71255D01*
X36465Y71206D01*
X36470Y71154D01*
X36473Y71100D01*
Y71064D01*
X36470Y71045D01*
X36468Y71026D01*
X36462Y70974D01*
X36451Y70917D01*
X36435Y70851D01*
X36413Y70786D01*
X36383Y70720D01*
Y70718D01*
X36380Y70712D01*
X36375Y70704D01*
X36367Y70690D01*
X36348Y70660D01*
X36332Y70638D01*
X36353Y70607D01*
X36376Y70571D01*
X36399Y70528D01*
X36422Y70482D01*
X36445Y70430D01*
X36465Y70377D01*
X36481Y70318D01*
X36494Y70256D01*
X36501Y70190D01*
X36504Y70121D01*
Y70085D01*
X36501Y70059D01*
X36498Y70029D01*
X36491Y69993D01*
X36485Y69951D01*
X36475Y69908D01*
X36462Y69862D01*
X36442Y69813D01*
X36422Y69764D01*
X36399Y69715D01*
X36370Y69662D01*
X36337Y69613D01*
X36298Y69567D01*
X36255Y69521D01*
X36252Y69518D01*
X36242Y69511D01*
X36229Y69498D01*
X36209Y69485D01*
X36183Y69469D01*
X36153Y69449D01*
X36117Y69426D01*
X36075Y69403D01*
X36025Y69383D01*
X35973Y69360D01*
X35917Y69341D01*
X35855Y69324D01*
X35786Y69311D01*
X35714Y69298D01*
X35635Y69292D01*
X35553Y69288D01*
X35546D01*
X35533D01*
X35507D01*
X35471Y69292D01*
Y70488D01*
X35444Y70516D01*
X35408Y70551D01*
X35373Y70597D01*
X35349Y70636D01*
X35300Y70626D01*
X35277Y70619D01*
X35261Y70581D01*
X35231Y70526D01*
X35195Y70469D01*
X35149Y70412D01*
X35092Y70363D01*
X35089Y70360D01*
X35084Y70357D01*
X35075Y70352D01*
X35062Y70344D01*
X35048Y70333D01*
X35029Y70322D01*
X35007Y70311D01*
X34980Y70300D01*
X34953Y70289D01*
X34923Y70278D01*
X34883Y70265D01*
X34881Y70259D01*
X34861Y70184D01*
X34858Y70144D01*
X34854Y70102D01*
Y70072D01*
X34858Y70043D01*
X34864Y70000D01*
X34877Y69957D01*
X34890Y69908D01*
X34914Y69859D01*
X34943Y69813D01*
X34946Y69806D01*
X34959Y69793D01*
X34982Y69770D01*
X35012Y69744D01*
X35051Y69715D01*
X35104Y69682D01*
X35163Y69649D01*
X35232Y69623D01*
X35189Y69301D01*
X35186D01*
X35176Y69305D01*
X35163Y69308D01*
X35143Y69318D01*
X35120Y69324D01*
X35091Y69337D01*
X35028Y69364D01*
X34959Y69403D01*
X34887Y69452D01*
X34815Y69511D01*
X34753Y69580D01*
Y69583D01*
X34746Y69590D01*
X34740Y69600D01*
X34730Y69616D01*
X34717Y69636D01*
X34704Y69662D01*
X34690Y69688D01*
X34677Y69721D01*
X34661Y69757D01*
X34648Y69797D01*
X34635Y69839D01*
X34622Y69885D01*
X34605Y69987D01*
X34602Y70043D01*
X34599Y70102D01*
Y70118D01*
X34602Y70141D01*
Y70167D01*
X34605Y70200D01*
X34612Y70239D01*
X34612Y70244D01*
X34603Y70245D01*
X34570Y70251D01*
X34535Y70256D01*
X34494Y70267D01*
X34450Y70281D01*
X34407Y70297D01*
X34360Y70316D01*
X34314Y70341D01*
X34265Y70368D01*
X34218Y70401D01*
X34172Y70436D01*
X34128Y70480D01*
X34125Y70483D01*
X34117Y70491D01*
X34106Y70505D01*
X34093Y70524D01*
X34076Y70546D01*
X34057Y70575D01*
X34035Y70608D01*
X34016Y70647D01*
X33994Y70688D01*
X33972Y70734D01*
X33953Y70783D01*
X33937Y70838D01*
X33923Y70895D01*
X33912Y70955D01*
X33904Y71018D01*
X33902Y71086D01*
Y71100D01*
X33904Y71119D01*
Y71141D01*
X33907Y71171D01*
X33912Y71203D01*
X33918Y71239D01*
X33926Y71280D01*
X33937Y71324D01*
X33951Y71367D01*
X33964Y71414D01*
X33983Y71460D01*
X34008Y71507D01*
X34033Y71550D01*
X34063Y71597D01*
X34098Y71637D01*
X34101Y71640D01*
X34106Y71646D01*
X34117Y71657D01*
X34134Y71673D01*
X34153Y71689D01*
X34177Y71709D01*
X34205Y71728D01*
X34237Y71749D01*
X34270Y71771D01*
X34311Y71793D01*
X34352Y71815D01*
X34398Y71834D01*
X34448Y71851D01*
X34499Y71867D01*
X34554Y71878D01*
X34611Y71886D01*
X34652Y71577D01*
X34650D01*
X34641Y71575D01*
X34628Y71572D01*
X34609Y71566D01*
X34587Y71561D01*
X34562Y71556D01*
X34505Y71536D01*
X34442Y71512D01*
X34379Y71482D01*
X34322Y71444D01*
X34297Y71422D01*
X34273Y71400D01*
Y71397D01*
X34267Y71394D01*
X34262Y71386D01*
X34254Y71378D01*
X34237Y71351D01*
X34216Y71313D01*
X34194Y71266D01*
X34177Y71214D01*
X34164Y71152D01*
X34158Y71086D01*
Y71064D01*
X34161Y71048D01*
X34164Y71031D01*
X34166Y71007D01*
X34177Y70958D01*
X34194Y70898D01*
X34221Y70835D01*
X34240Y70805D01*
X34259Y70775D01*
X34281Y70745D01*
X34308Y70715D01*
X34311Y70712D01*
X34317Y70709D01*
X34325Y70701D01*
X34336Y70690D01*
X34349Y70679D01*
X34368Y70668D01*
X34387Y70655D01*
X34412Y70638D01*
X34467Y70611D01*
X34529Y70589D01*
X34603Y70570D01*
X34641Y70567D01*
X34682Y70565D01*
X34685D01*
X34690D01*
X34704D01*
X34718Y70567D01*
X34718Y70567D01*
X34730Y70590D01*
X34763Y70643D01*
X34802Y70692D01*
X34845Y70738D01*
X34848Y70741D01*
X34858Y70748D01*
X34871Y70761D01*
X34890Y70774D01*
X34917Y70790D01*
X34946Y70810D01*
X34982Y70833D01*
X35022Y70853D01*
X35071Y70876D01*
X35120Y70899D01*
X35147Y70908D01*
X35149Y70914D01*
X35166Y70982D01*
X35168Y71021D01*
X35171Y71059D01*
Y71075D01*
X35168Y71094D01*
Y71119D01*
X35163Y71152D01*
X35157Y71187D01*
X35149Y71231D01*
X35138Y71277D01*
X35408Y71244D01*
Y71239D01*
X35406Y71225D01*
X35403Y71209D01*
Y71173D01*
X35406Y71160D01*
Y71141D01*
X35408Y71122D01*
X35417Y71075D01*
X35428Y71021D01*
X35445Y70967D01*
X35451Y70968D01*
X35533Y70971D01*
X35540D01*
X35553D01*
X35579Y70968D01*
X35609D01*
X35648Y70964D01*
X35694Y70958D01*
X35743Y70951D01*
X35796Y70941D01*
X35851Y70928D01*
X35911Y70912D01*
X35970Y70895D01*
X36029Y70872D01*
X36088Y70843D01*
X36129Y70822D01*
X36143Y70840D01*
X36165Y70873D01*
X36184Y70917D01*
X36203Y70969D01*
X36214Y71026D01*
X36219Y71092D01*
Y71108D01*
X36217Y71122D01*
Y71138D01*
X36214Y71154D01*
X36206Y71198D01*
X36192Y71244D01*
X36170Y71296D01*
X36166Y71305D01*
X36147Y71302D01*
X36032Y71289D01*
X35911Y71286D01*
X35907D01*
X35897D01*
X35884D01*
X35861D01*
X35838Y71289D01*
X35809D01*
X35776Y71292D01*
X35740Y71296D01*
X35661Y71302D01*
X35576Y71315D01*
X35487Y71332D01*
X35402Y71355D01*
X35399D01*
X35392Y71358D01*
X35379Y71361D01*
X35366Y71368D01*
X35346Y71374D01*
X35324Y71381D01*
X35274Y71400D01*
X35215Y71424D01*
X35153Y71453D01*
X35091Y71489D01*
X35035Y71525D01*
X35028Y71528D01*
X35012Y71545D01*
X34986Y71565D01*
X34953Y71594D01*
X34917Y71627D01*
X34877Y71666D01*
X34841Y71712D01*
X34805Y71758D01*
X34802Y71765D01*
X34792Y71781D01*
X34776Y71807D01*
X34759Y71843D01*
X34740Y71886D01*
X34717Y71938D01*
X34697Y71997D01*
X34681Y72060D01*
Y72063D01*
X34677Y72066D01*
Y72076D01*
X34674Y72089D01*
X34671Y72106D01*
X34668Y72125D01*
X34661Y72175D01*
X34651Y72234D01*
X34644Y72303D01*
X34643Y72346D01*
X34595Y72353D01*
X34497Y72375D01*
X34450Y72388D01*
X34407Y72405D01*
X34404D01*
X34396Y72407D01*
X34385Y72413D01*
X34368Y72421D01*
X34349Y72432D01*
X34327Y72443D01*
X34278Y72476D01*
X34248Y72495D01*
X34221Y72517D01*
X34188Y72544D01*
X34158Y72571D01*
X34128Y72604D01*
X34098Y72637D01*
X34071Y72675D01*
X34043Y72716D01*
X34041Y72719D01*
X34038Y72727D01*
X34030Y72738D01*
X34022Y72757D01*
X34011Y72779D01*
X34000Y72806D01*
X33986Y72836D01*
X33975Y72874D01*
X33962Y72912D01*
X33948Y72956D01*
X33937Y73005D01*
X33926Y73057D01*
X33918Y73114D01*
X33910Y73175D01*
X33907Y73237D01*
X33904Y73303D01*
Y73338D01*
X33907Y73363D01*
Y73393D01*
X33910Y73426D01*
X33915Y73467D01*
X33921Y73508D01*
X33934Y73600D01*
X33956Y73699D01*
X33986Y73794D01*
X34003Y73841D01*
X34024Y73884D01*
X34027Y73887D01*
X34030Y73895D01*
X34038Y73906D01*
X34046Y73920D01*
X34060Y73939D01*
X34076Y73961D01*
X34093Y73983D01*
X34115Y74007D01*
X34164Y74062D01*
X34224Y74114D01*
X34295Y74163D01*
X34336Y74185D01*
X34376Y74204D01*
X34379D01*
X34387Y74206D01*
X34401Y74212D01*
X34420Y74217D01*
X34442Y74225D01*
X34472Y74234D01*
X34505Y74242D01*
X34543Y74250D01*
X34587Y74261D01*
X34633Y74269D01*
X34638Y74270D01*
Y74300D01*
X34992D01*
Y74299D01*
D02*
G37*
G36*
X35232Y68727D02*
X35228D01*
X35225D01*
X35215Y68724D01*
X35202Y68721D01*
X35169Y68714D01*
X35127Y68701D01*
X35081Y68681D01*
X35035Y68658D01*
X34989Y68626D01*
X34949Y68586D01*
X34946Y68580D01*
X34936Y68563D01*
X34920Y68537D01*
X34904Y68501D01*
X34884Y68452D01*
X34871Y68396D01*
X34858Y68330D01*
X34854Y68255D01*
Y68219D01*
X34858Y68183D01*
X34864Y68134D01*
X34874Y68084D01*
X34890Y68032D01*
X34910Y67980D01*
X34940Y67937D01*
X34943Y67934D01*
X34956Y67920D01*
X34973Y67904D01*
X34999Y67884D01*
X35028Y67865D01*
X35061Y67848D01*
X35100Y67835D01*
X35143Y67832D01*
X35146D01*
X35160D01*
X35179Y67835D01*
X35202Y67842D01*
X35228Y67855D01*
X35255Y67871D01*
X35281Y67894D01*
X35307Y67924D01*
X35310Y67927D01*
X35314Y67937D01*
X35324Y67957D01*
X35333Y67989D01*
X35343Y68009D01*
X35350Y68029D01*
X35356Y68055D01*
X35366Y68084D01*
X35376Y68117D01*
X35386Y68157D01*
X35399Y68196D01*
X35409Y68242D01*
Y68245D01*
X35412Y68258D01*
X35419Y68275D01*
X35425Y68298D01*
X35432Y68324D01*
X35442Y68357D01*
X35461Y68429D01*
X35484Y68508D01*
X35510Y68586D01*
X35524Y68622D01*
X35537Y68655D01*
X35546Y68688D01*
X35560Y68714D01*
X35563Y68721D01*
X35573Y68737D01*
X35586Y68760D01*
X35605Y68790D01*
X35629Y68819D01*
X35658Y68855D01*
X35691Y68885D01*
X35730Y68914D01*
X35737Y68918D01*
X35750Y68924D01*
X35773Y68934D01*
X35802Y68947D01*
X35838Y68960D01*
X35881Y68970D01*
X35927Y68977D01*
X35976Y68980D01*
X35983D01*
X35996D01*
X36019Y68977D01*
X36052Y68973D01*
X36084Y68967D01*
X36124Y68957D01*
X36163Y68944D01*
X36202Y68924D01*
X36206Y68921D01*
X36219Y68914D01*
X36239Y68901D01*
X36265Y68885D01*
X36291Y68862D01*
X36321Y68836D01*
X36350Y68806D01*
X36376Y68773D01*
X36380Y68770D01*
X36386Y68760D01*
X36396Y68744D01*
X36406Y68721D01*
X36422Y68695D01*
X36435Y68658D01*
X36452Y68619D01*
X36465Y68576D01*
X36468Y68570D01*
X36472Y68554D01*
X36478Y68530D01*
X36485Y68494D01*
X36491Y68455D01*
X36498Y68409D01*
X36504Y68360D01*
Y68271D01*
X36501Y68252D01*
Y68232D01*
X36498Y68180D01*
X36488Y68124D01*
X36478Y68058D01*
X36462Y67996D01*
X36442Y67934D01*
Y67930D01*
X36439Y67927D01*
X36432Y67907D01*
X36416Y67878D01*
X36396Y67842D01*
X36373Y67802D01*
X36344Y67763D01*
X36311Y67724D01*
X36271Y67691D01*
X36268Y67687D01*
X36252Y67678D01*
X36229Y67665D01*
X36196Y67648D01*
X36157Y67629D01*
X36111Y67612D01*
X36055Y67596D01*
X35993Y67583D01*
X35950Y67884D01*
X35956D01*
X35973Y67891D01*
X35999Y67897D01*
X36029Y67907D01*
X36065Y67924D01*
X36101Y67947D01*
X36134Y67973D01*
X36166Y68006D01*
X36170Y68009D01*
X36180Y68025D01*
X36193Y68045D01*
X36209Y68078D01*
X36222Y68117D01*
X36235Y68166D01*
X36245Y68222D01*
X36248Y68288D01*
Y68324D01*
X36245Y68360D01*
X36239Y68406D01*
X36232Y68455D01*
X36219Y68508D01*
X36199Y68554D01*
X36176Y68593D01*
X36173Y68596D01*
X36163Y68606D01*
X36150Y68622D01*
X36130Y68635D01*
X36107Y68652D01*
X36078Y68668D01*
X36048Y68678D01*
X36012Y68681D01*
X36009D01*
X36002D01*
X35993Y68678D01*
X35976D01*
X35943Y68665D01*
X35924Y68658D01*
X35904Y68645D01*
X35901Y68642D01*
X35897Y68639D01*
X35888Y68629D01*
X35875Y68616D01*
X35861Y68599D01*
X35848Y68580D01*
X35835Y68554D01*
X35822Y68527D01*
Y68524D01*
X35819Y68517D01*
X35812Y68501D01*
X35806Y68475D01*
X35796Y68439D01*
X35789Y68416D01*
X35783Y68389D01*
X35773Y68360D01*
X35766Y68327D01*
X35753Y68291D01*
X35743Y68252D01*
Y68248D01*
X35740Y68239D01*
X35737Y68219D01*
X35730Y68199D01*
X35720Y68173D01*
X35714Y68140D01*
X35694Y68071D01*
X35671Y67996D01*
X35648Y67920D01*
X35625Y67852D01*
X35612Y67822D01*
X35602Y67796D01*
X35599Y67789D01*
X35592Y67773D01*
X35579Y67750D01*
X35560Y67720D01*
X35537Y67687D01*
X35510Y67655D01*
X35478Y67619D01*
X35438Y67589D01*
X35435Y67586D01*
X35419Y67576D01*
X35396Y67566D01*
X35366Y67550D01*
X35327Y67537D01*
X35284Y67527D01*
X35232Y67517D01*
X35176Y67514D01*
X35173D01*
X35169D01*
X35150D01*
X35120Y67517D01*
X35081Y67524D01*
X35035Y67537D01*
X34986Y67553D01*
X34933Y67576D01*
X34881Y67606D01*
X34874Y67609D01*
X34858Y67622D01*
X34835Y67645D01*
X34805Y67671D01*
X34769Y67711D01*
X34736Y67756D01*
X34700Y67809D01*
X34671Y67868D01*
Y67871D01*
X34668Y67874D01*
X34664Y67884D01*
X34661Y67897D01*
X34648Y67934D01*
X34635Y67980D01*
X34622Y68035D01*
X34608Y68101D01*
X34602Y68173D01*
X34599Y68252D01*
Y68284D01*
X34602Y68311D01*
Y68340D01*
X34605Y68373D01*
X34612Y68412D01*
X34618Y68455D01*
X34635Y68540D01*
X34661Y68632D01*
X34697Y68717D01*
X34717Y68760D01*
X34743Y68796D01*
X34746Y68800D01*
X34749Y68803D01*
X34759Y68813D01*
X34769Y68826D01*
X34786Y68842D01*
X34805Y68858D01*
X34828Y68875D01*
X34854Y68895D01*
X34884Y68914D01*
X34917Y68937D01*
X34953Y68957D01*
X34992Y68973D01*
X35035Y68993D01*
X35081Y69009D01*
X35130Y69023D01*
X35182Y69032D01*
X35232Y68727D01*
D02*
G37*
G36*
X37160Y66838D02*
X36806D01*
Y67146D01*
X37160D01*
Y66838D01*
D02*
G37*
G36*
X36465D02*
X34638D01*
Y67146D01*
X36465D01*
Y66838D01*
D02*
G37*
G36*
X35629Y66480D02*
X35655Y66477D01*
X35684D01*
X35717Y66471D01*
X35792Y66461D01*
X35875Y66444D01*
X35956Y66422D01*
X36042Y66389D01*
X36045D01*
X36052Y66385D01*
X36061Y66379D01*
X36078Y66372D01*
X36098Y66362D01*
X36117Y66349D01*
X36166Y66320D01*
X36222Y66280D01*
X36278Y66234D01*
X36334Y66179D01*
X36383Y66116D01*
Y66113D01*
X36389Y66107D01*
X36393Y66097D01*
X36403Y66084D01*
X36412Y66067D01*
X36422Y66048D01*
X36445Y65995D01*
X36465Y65933D01*
X36485Y65861D01*
X36498Y65782D01*
X36504Y65693D01*
Y65680D01*
X36501Y65661D01*
Y65637D01*
X36498Y65611D01*
X36491Y65579D01*
X36481Y65542D01*
X36472Y65503D01*
X36458Y65464D01*
X36439Y65421D01*
X36419Y65375D01*
X36393Y65329D01*
X36363Y65287D01*
X36327Y65241D01*
X36285Y65198D01*
X36239Y65159D01*
X36465D01*
Y64873D01*
X34887D01*
X34884D01*
X34868D01*
X34848D01*
X34818D01*
X34782Y64877D01*
X34743D01*
X34700Y64880D01*
X34654Y64883D01*
X34556Y64896D01*
X34454Y64909D01*
X34408Y64919D01*
X34362Y64932D01*
X34323Y64946D01*
X34287Y64962D01*
X34284D01*
X34280Y64965D01*
X34271Y64972D01*
X34258Y64978D01*
X34225Y64998D01*
X34185Y65027D01*
X34139Y65067D01*
X34093Y65113D01*
X34048Y65172D01*
X34005Y65237D01*
Y65241D01*
X34002Y65247D01*
X33995Y65257D01*
X33988Y65270D01*
X33982Y65290D01*
X33972Y65310D01*
X33962Y65336D01*
X33952Y65365D01*
X33933Y65431D01*
X33916Y65510D01*
X33903Y65601D01*
X33900Y65700D01*
Y65733D01*
X33903Y65752D01*
Y65782D01*
X33906Y65815D01*
X33913Y65847D01*
X33920Y65887D01*
X33936Y65972D01*
X33962Y66061D01*
X33998Y66146D01*
X34021Y66189D01*
X34048Y66228D01*
X34051Y66231D01*
X34054Y66238D01*
X34064Y66248D01*
X34074Y66258D01*
X34090Y66274D01*
X34110Y66290D01*
X34133Y66310D01*
X34159Y66326D01*
X34189Y66346D01*
X34221Y66362D01*
X34258Y66379D01*
X34297Y66395D01*
X34339Y66405D01*
X34385Y66415D01*
X34438Y66422D01*
X34490D01*
X34448Y66120D01*
X34441D01*
X34425Y66116D01*
X34402Y66110D01*
X34372Y66100D01*
X34336Y66087D01*
X34303Y66067D01*
X34271Y66044D01*
X34244Y66015D01*
X34241Y66008D01*
X34231Y65995D01*
X34215Y65969D01*
X34202Y65933D01*
X34185Y65887D01*
X34169Y65834D01*
X34159Y65772D01*
X34156Y65700D01*
Y65664D01*
X34159Y65628D01*
X34166Y65579D01*
X34179Y65526D01*
X34192Y65470D01*
X34215Y65418D01*
X34244Y65369D01*
X34248Y65362D01*
X34261Y65349D01*
X34280Y65329D01*
X34307Y65303D01*
X34339Y65277D01*
X34382Y65254D01*
X34428Y65228D01*
X34484Y65211D01*
X34487D01*
X34503Y65208D01*
X34530Y65201D01*
X34546D01*
X34569Y65198D01*
X34592Y65195D01*
X34622D01*
X34654Y65192D01*
X34690D01*
X34730Y65188D01*
X34776D01*
X34825D01*
X34877D01*
X34874Y65192D01*
X34868Y65198D01*
X34854Y65208D01*
X34841Y65224D01*
X34822Y65244D01*
X34802Y65267D01*
X34779Y65296D01*
X34759Y65326D01*
X34736Y65362D01*
X34713Y65401D01*
X34674Y65487D01*
X34661Y65536D01*
X34648Y65585D01*
X34641Y65637D01*
X34638Y65693D01*
Y65710D01*
X34641Y65729D01*
Y65756D01*
X34648Y65788D01*
X34651Y65825D01*
X34661Y65864D01*
X34671Y65907D01*
X34687Y65952D01*
X34704Y66002D01*
X34727Y66051D01*
X34753Y66100D01*
X34782Y66146D01*
X34818Y66192D01*
X34861Y66238D01*
X34907Y66277D01*
X34910Y66280D01*
X34920Y66287D01*
X34933Y66297D01*
X34956Y66310D01*
X34982Y66326D01*
X35012Y66343D01*
X35051Y66362D01*
X35091Y66379D01*
X35137Y66399D01*
X35186Y66418D01*
X35238Y66435D01*
X35297Y66451D01*
X35360Y66464D01*
X35422Y66474D01*
X35491Y66480D01*
X35560Y66484D01*
X35563D01*
X35573D01*
X35586D01*
X35605D01*
X35629Y66480D01*
D02*
G37*
G36*
X36465Y64126D02*
X36202D01*
X36206Y64122D01*
X36216Y64116D01*
X36232Y64106D01*
X36248Y64089D01*
X36271Y64066D01*
X36298Y64043D01*
X36324Y64014D01*
X36353Y63978D01*
X36383Y63938D01*
X36409Y63896D01*
X36435Y63850D01*
X36458Y63797D01*
X36478Y63742D01*
X36491Y63683D01*
X36501Y63617D01*
X36504Y63548D01*
Y63519D01*
X36501Y63489D01*
X36498Y63446D01*
X36488Y63401D01*
X36478Y63348D01*
X36462Y63296D01*
X36442Y63243D01*
X36439Y63237D01*
X36432Y63220D01*
X36419Y63197D01*
X36399Y63164D01*
X36380Y63132D01*
X36353Y63099D01*
X36321Y63066D01*
X36288Y63037D01*
X36285Y63033D01*
X36271Y63027D01*
X36252Y63013D01*
X36222Y62997D01*
X36189Y62984D01*
X36150Y62968D01*
X36107Y62954D01*
X36058Y62941D01*
X36055D01*
X36042Y62938D01*
X36019Y62935D01*
X35989Y62932D01*
X35947Y62928D01*
X35897Y62925D01*
X35835Y62922D01*
X35760D01*
X34638D01*
Y63230D01*
X35747D01*
X35750D01*
X35756D01*
X35763D01*
X35776D01*
X35812Y63233D01*
X35851D01*
X35897Y63240D01*
X35943Y63246D01*
X35986Y63256D01*
X36025Y63269D01*
X36029D01*
X36042Y63276D01*
X36058Y63286D01*
X36081Y63299D01*
X36104Y63315D01*
X36130Y63338D01*
X36153Y63364D01*
X36176Y63397D01*
X36180Y63401D01*
X36186Y63414D01*
X36196Y63433D01*
X36206Y63460D01*
X36216Y63489D01*
X36226Y63525D01*
X36232Y63568D01*
X36235Y63611D01*
Y63630D01*
X36232Y63643D01*
X36229Y63683D01*
X36219Y63729D01*
X36206Y63781D01*
X36183Y63840D01*
X36150Y63899D01*
X36107Y63955D01*
X36101Y63961D01*
X36094Y63968D01*
X36081Y63978D01*
X36068Y63988D01*
X36048Y64001D01*
X36029Y64011D01*
X36002Y64024D01*
X35970Y64037D01*
X35937Y64050D01*
X35897Y64063D01*
X35855Y64073D01*
X35806Y64083D01*
X35753Y64089D01*
X35694Y64093D01*
X35632Y64096D01*
X34638D01*
Y64404D01*
X36465D01*
Y64126D01*
D02*
G37*
G36*
X35166Y62548D02*
X35199Y62545D01*
X35235Y62538D01*
X35278Y62525D01*
X35320Y62512D01*
X35363Y62492D01*
X35369Y62489D01*
X35383Y62482D01*
X35402Y62466D01*
X35428Y62449D01*
X35455Y62426D01*
X35484Y62397D01*
X35514Y62367D01*
X35540Y62331D01*
X35543Y62328D01*
X35550Y62315D01*
X35563Y62292D01*
X35579Y62266D01*
X35596Y62233D01*
X35612Y62197D01*
X35629Y62154D01*
X35642Y62108D01*
Y62105D01*
X35645Y62092D01*
X35651Y62069D01*
X35655Y62039D01*
X35665Y62000D01*
X35671Y61954D01*
X35678Y61898D01*
X35688Y61833D01*
Y61830D01*
X35691Y61816D01*
Y61797D01*
X35697Y61770D01*
X35701Y61741D01*
X35704Y61705D01*
X35710Y61665D01*
X35717Y61623D01*
X35734Y61534D01*
X35753Y61442D01*
X35773Y61357D01*
X35786Y61318D01*
X35796Y61282D01*
X35799D01*
X35806D01*
X35816D01*
X35829Y61278D01*
X35855D01*
X35868D01*
X35875D01*
X35878D01*
X35884D01*
X35894D01*
X35904D01*
X35940Y61282D01*
X35980Y61288D01*
X36025Y61301D01*
X36068Y61314D01*
X36111Y61338D01*
X36143Y61367D01*
X36147Y61374D01*
X36160Y61390D01*
X36176Y61416D01*
X36196Y61456D01*
X36216Y61508D01*
X36232Y61567D01*
X36245Y61639D01*
X36248Y61721D01*
Y61757D01*
X36245Y61797D01*
X36239Y61843D01*
X36229Y61898D01*
X36216Y61951D01*
X36196Y62003D01*
X36170Y62046D01*
X36166Y62049D01*
X36157Y62062D01*
X36137Y62082D01*
X36107Y62102D01*
X36071Y62128D01*
X36025Y62151D01*
X35966Y62177D01*
X35901Y62197D01*
X35943Y62499D01*
X35947D01*
X35953Y62495D01*
X35963D01*
X35976Y62492D01*
X36012Y62482D01*
X36055Y62466D01*
X36104Y62449D01*
X36157Y62426D01*
X36209Y62397D01*
X36255Y62364D01*
X36261Y62361D01*
X36275Y62348D01*
X36294Y62325D01*
X36324Y62295D01*
X36353Y62256D01*
X36383Y62210D01*
X36412Y62154D01*
X36439Y62092D01*
Y62089D01*
X36442Y62082D01*
X36445Y62072D01*
X36448Y62059D01*
X36455Y62043D01*
X36458Y62023D01*
X36472Y61971D01*
X36485Y61911D01*
X36494Y61839D01*
X36501Y61761D01*
X36504Y61675D01*
Y61616D01*
X36501Y61593D01*
X36498Y61541D01*
X36491Y61482D01*
X36481Y61416D01*
X36468Y61357D01*
X36448Y61298D01*
Y61295D01*
X36445Y61291D01*
X36439Y61275D01*
X36426Y61249D01*
X36409Y61216D01*
X36389Y61180D01*
X36367Y61144D01*
X36337Y61111D01*
X36307Y61082D01*
X36304Y61078D01*
X36294Y61072D01*
X36275Y61059D01*
X36252Y61042D01*
X36222Y61026D01*
X36186Y61010D01*
X36147Y60996D01*
X36101Y60983D01*
X36098D01*
X36084Y60980D01*
X36065Y60977D01*
X36035Y60973D01*
X35996D01*
X35947Y60970D01*
X35888Y60967D01*
X35816D01*
X35402D01*
X35399D01*
X35383D01*
X35363D01*
X35333D01*
X35300D01*
X35261D01*
X35219D01*
X35173Y60963D01*
X35081D01*
X34992Y60960D01*
X34949Y60957D01*
X34914D01*
X34884Y60954D01*
X34858Y60950D01*
X34851D01*
X34838Y60947D01*
X34815Y60941D01*
X34789Y60934D01*
X34753Y60921D01*
X34717Y60908D01*
X34677Y60891D01*
X34638Y60872D01*
Y61196D01*
X34641Y61200D01*
X34654Y61203D01*
X34674Y61213D01*
X34704Y61219D01*
X34736Y61233D01*
X34776Y61239D01*
X34818Y61249D01*
X34868Y61256D01*
Y61259D01*
X34861Y61262D01*
X34854Y61272D01*
X34845Y61285D01*
X34818Y61318D01*
X34786Y61364D01*
X34753Y61413D01*
X34717Y61469D01*
X34684Y61531D01*
X34658Y61590D01*
Y61593D01*
X34654Y61597D01*
X34651Y61606D01*
X34648Y61616D01*
X34638Y61649D01*
X34628Y61692D01*
X34618Y61741D01*
X34608Y61800D01*
X34602Y61862D01*
X34599Y61928D01*
Y61957D01*
X34602Y61977D01*
Y62003D01*
X34605Y62033D01*
X34618Y62098D01*
X34635Y62174D01*
X34661Y62249D01*
X34697Y62325D01*
X34717Y62358D01*
X34743Y62390D01*
X34746Y62394D01*
X34749Y62397D01*
X34769Y62417D01*
X34802Y62440D01*
X34845Y62469D01*
X34900Y62499D01*
X34963Y62525D01*
X35035Y62545D01*
X35074Y62548D01*
X35117Y62551D01*
X35123D01*
X35140D01*
X35166Y62548D01*
D02*
G37*
G36*
X36465Y60435D02*
X36914D01*
X37101Y60127D01*
X36465D01*
Y59816D01*
X36226D01*
Y60127D01*
X35156D01*
X35150D01*
X35133D01*
X35110D01*
X35084Y60124D01*
X35054D01*
X35025Y60121D01*
X35002Y60117D01*
X34982Y60114D01*
X34976Y60111D01*
X34963Y60101D01*
X34943Y60084D01*
X34923Y60062D01*
Y60058D01*
X34920Y60055D01*
X34917Y60045D01*
X34914Y60032D01*
X34907Y59999D01*
X34904Y59953D01*
Y59917D01*
X34907Y59898D01*
Y59871D01*
X34910Y59845D01*
X34914Y59816D01*
X34641Y59773D01*
Y59780D01*
X34638Y59796D01*
X34635Y59819D01*
X34628Y59852D01*
X34625Y59888D01*
X34618Y59927D01*
X34615Y60009D01*
Y60035D01*
X34618Y60068D01*
X34622Y60104D01*
X34628Y60147D01*
X34638Y60189D01*
X34651Y60232D01*
X34668Y60268D01*
X34671Y60272D01*
X34677Y60285D01*
X34687Y60298D01*
X34704Y60317D01*
X34723Y60340D01*
X34749Y60363D01*
X34776Y60383D01*
X34805Y60399D01*
X34808D01*
X34825Y60406D01*
X34848Y60409D01*
X34884Y60416D01*
X34907Y60419D01*
X34933Y60422D01*
X34963Y60426D01*
X34999Y60429D01*
X35035Y60432D01*
X35078D01*
X35123Y60435D01*
X35173D01*
X36226D01*
Y60665D01*
X36465D01*
Y60435D01*
D02*
G37*
G36*
X35599Y59622D02*
X35632D01*
X35674Y59615D01*
X35724Y59609D01*
X35776Y59602D01*
X35832Y59589D01*
X35894Y59576D01*
X35956Y59556D01*
X36019Y59534D01*
X36081Y59507D01*
X36140Y59474D01*
X36199Y59438D01*
X36252Y59396D01*
X36301Y59346D01*
X36304Y59343D01*
X36311Y59337D01*
X36321Y59324D01*
X36334Y59304D01*
X36347Y59281D01*
X36367Y59255D01*
X36383Y59222D01*
X36403Y59186D01*
X36422Y59146D01*
X36439Y59104D01*
X36458Y59055D01*
X36472Y59005D01*
X36485Y58950D01*
X36494Y58894D01*
X36501Y58835D01*
X36504Y58772D01*
Y58736D01*
X36501Y58710D01*
X36498Y58677D01*
X36491Y58641D01*
X36485Y58599D01*
X36475Y58553D01*
X36462Y58507D01*
X36442Y58458D01*
X36422Y58405D01*
X36399Y58353D01*
X36370Y58300D01*
X36337Y58251D01*
X36298Y58202D01*
X36255Y58156D01*
X36252Y58153D01*
X36245Y58146D01*
X36229Y58133D01*
X36209Y58120D01*
X36186Y58100D01*
X36153Y58080D01*
X36117Y58057D01*
X36078Y58034D01*
X36032Y58015D01*
X35983Y57992D01*
X35927Y57972D01*
X35865Y57952D01*
X35799Y57939D01*
X35730Y57926D01*
X35655Y57920D01*
X35576Y57916D01*
X35573D01*
X35560D01*
X35543D01*
X35517D01*
X35487Y57920D01*
X35455Y57923D01*
X35415Y57926D01*
X35376Y57929D01*
X35287Y57943D01*
X35195Y57962D01*
X35104Y57989D01*
X35061Y58005D01*
X35022Y58025D01*
X35018D01*
X35012Y58028D01*
X35002Y58034D01*
X34989Y58044D01*
X34953Y58067D01*
X34907Y58103D01*
X34858Y58146D01*
X34805Y58198D01*
X34756Y58261D01*
X34710Y58333D01*
Y58336D01*
X34707Y58343D01*
X34700Y58353D01*
X34694Y58369D01*
X34684Y58385D01*
X34674Y58408D01*
X34654Y58464D01*
X34635Y58526D01*
X34615Y58602D01*
X34602Y58684D01*
X34599Y58772D01*
Y58789D01*
X34602Y58809D01*
Y58835D01*
X34605Y58868D01*
X34612Y58904D01*
X34618Y58946D01*
X34628Y58992D01*
X34641Y59042D01*
X34658Y59091D01*
X34677Y59140D01*
X34700Y59192D01*
X34730Y59245D01*
X34763Y59294D01*
X34799Y59343D01*
X34841Y59389D01*
X34845Y59392D01*
X34854Y59399D01*
X34868Y59412D01*
X34887Y59425D01*
X34914Y59445D01*
X34943Y59465D01*
X34979Y59484D01*
X35022Y59507D01*
X35071Y59530D01*
X35123Y59550D01*
X35179Y59570D01*
X35245Y59589D01*
X35314Y59602D01*
X35386Y59615D01*
X35465Y59622D01*
X35550Y59625D01*
X35556D01*
X35573D01*
X35599Y59622D01*
D02*
G37*
G36*
X36465Y57277D02*
X36186D01*
X36193Y57274D01*
X36202Y57267D01*
X36216Y57260D01*
X36248Y57237D01*
X36288Y57214D01*
X36334Y57185D01*
X36376Y57152D01*
X36412Y57116D01*
X36442Y57083D01*
X36445Y57080D01*
X36452Y57067D01*
X36462Y57047D01*
X36475Y57024D01*
X36485Y56995D01*
X36494Y56959D01*
X36501Y56923D01*
X36504Y56883D01*
Y56857D01*
X36498Y56824D01*
X36491Y56785D01*
X36478Y56736D01*
X36462Y56680D01*
X36435Y56624D01*
X36403Y56562D01*
X36117Y56670D01*
X36121Y56677D01*
X36127Y56690D01*
X36137Y56713D01*
X36150Y56742D01*
X36163Y56775D01*
X36173Y56814D01*
X36180Y56857D01*
X36183Y56900D01*
Y56916D01*
X36180Y56936D01*
X36176Y56962D01*
X36166Y56988D01*
X36157Y57021D01*
X36140Y57051D01*
X36121Y57083D01*
X36117Y57087D01*
X36111Y57096D01*
X36094Y57110D01*
X36075Y57126D01*
X36052Y57146D01*
X36022Y57165D01*
X35989Y57182D01*
X35950Y57198D01*
X35947D01*
X35943Y57201D01*
X35934D01*
X35920Y57205D01*
X35888Y57214D01*
X35845Y57221D01*
X35789Y57231D01*
X35730Y57241D01*
X35661Y57244D01*
X35589Y57247D01*
X34638D01*
Y57556D01*
X36465D01*
Y57277D01*
D02*
G37*
G36*
X212385Y58945D02*
X212989D01*
Y58636D01*
X212385D01*
Y57541D01*
X212100D01*
X210467Y58692D01*
Y58945D01*
X212100D01*
Y59286D01*
X212385D01*
Y58945D01*
D02*
G37*
G36*
X212264Y57223D02*
X212294D01*
X212330Y57219D01*
X212366Y57216D01*
X212444Y57206D01*
X212526Y57193D01*
X212605Y57174D01*
X212645Y57160D01*
X212677Y57147D01*
X212681D01*
X212684Y57144D01*
X212694Y57141D01*
X212707Y57134D01*
X212736Y57114D01*
X212776Y57088D01*
X212818Y57055D01*
X212861Y57013D01*
X212904Y56964D01*
X212943Y56905D01*
Y56901D01*
X212946Y56898D01*
X212949Y56888D01*
X212956Y56875D01*
X212972Y56842D01*
X212986Y56793D01*
X213002Y56737D01*
X213018Y56672D01*
X213028Y56596D01*
X213032Y56514D01*
Y56481D01*
X213028Y56458D01*
X213025Y56432D01*
X213022Y56399D01*
X213015Y56363D01*
X213009Y56327D01*
X212986Y56245D01*
X212969Y56203D01*
X212949Y56160D01*
X212930Y56117D01*
X212904Y56078D01*
X212874Y56042D01*
X212841Y56006D01*
X212838Y56002D01*
X212831Y55999D01*
X212822Y55989D01*
X212805Y55980D01*
X212786Y55966D01*
X212763Y55950D01*
X212733Y55934D01*
X212700Y55917D01*
X212661Y55904D01*
X212618Y55888D01*
X212572Y55875D01*
X212523Y55862D01*
X212467Y55852D01*
X212408Y55842D01*
X212346Y55839D01*
X212277D01*
X212234Y56140D01*
X212238D01*
X212248D01*
X212261D01*
X212280Y56144D01*
X212303Y56147D01*
X212330Y56150D01*
X212392Y56157D01*
X212457Y56170D01*
X212523Y56190D01*
X212582Y56213D01*
X212605Y56229D01*
X212628Y56245D01*
X212631Y56248D01*
X212645Y56265D01*
X212661Y56285D01*
X212681Y56317D01*
X212700Y56353D01*
X212717Y56399D01*
X212730Y56455D01*
X212733Y56514D01*
Y56534D01*
X212730Y56560D01*
X212726Y56590D01*
X212720Y56622D01*
X212710Y56659D01*
X212697Y56695D01*
X212677Y56731D01*
X212674Y56734D01*
X212667Y56747D01*
X212654Y56760D01*
X212635Y56780D01*
X212612Y56803D01*
X212585Y56823D01*
X212556Y56842D01*
X212520Y56855D01*
X212517Y56859D01*
X212500Y56862D01*
X212477Y56868D01*
X212444Y56875D01*
X212399Y56882D01*
X212346Y56885D01*
X212280Y56891D01*
X212205D01*
X210467D01*
Y57226D01*
X212185D01*
X212189D01*
X212198D01*
X212215D01*
X212238D01*
X212264Y57223D01*
D02*
G37*
G36*
X16300Y16678D02*
X15359D01*
X15329Y16681D01*
X15267D01*
X15195Y16688D01*
X15119Y16694D01*
X15047Y16704D01*
X14985Y16717D01*
X14981D01*
X14975Y16720D01*
X14962Y16724D01*
X14949Y16727D01*
X14929Y16734D01*
X14906Y16740D01*
X14857Y16756D01*
X14798Y16783D01*
X14736Y16812D01*
X14673Y16852D01*
X14614Y16897D01*
X14611Y16901D01*
X14604Y16904D01*
X14594Y16914D01*
X14581Y16927D01*
X14565Y16943D01*
X14545Y16963D01*
X14526Y16986D01*
X14503Y17012D01*
X14453Y17075D01*
X14404Y17150D01*
X14355Y17232D01*
X14316Y17327D01*
Y17330D01*
X14312Y17340D01*
X14306Y17353D01*
X14299Y17373D01*
X14293Y17399D01*
X14283Y17429D01*
X14273Y17462D01*
X14263Y17501D01*
X14257Y17544D01*
X14247Y17590D01*
X14237Y17639D01*
X14230Y17691D01*
X14217Y17806D01*
X14214Y17927D01*
Y17931D01*
Y17941D01*
Y17954D01*
Y17977D01*
X14217Y18000D01*
Y18029D01*
X14220Y18062D01*
X14224Y18098D01*
X14230Y18177D01*
X14243Y18262D01*
X14260Y18350D01*
X14283Y18436D01*
Y18439D01*
X14286Y18446D01*
X14289Y18459D01*
X14296Y18472D01*
X14302Y18492D01*
X14309Y18515D01*
X14329Y18564D01*
X14352Y18623D01*
X14381Y18685D01*
X14417Y18747D01*
X14453Y18803D01*
X14457Y18810D01*
X14473Y18826D01*
X14493Y18852D01*
X14522Y18885D01*
X14555Y18921D01*
X14594Y18961D01*
X14640Y18997D01*
X14686Y19033D01*
X14693Y19036D01*
X14709Y19046D01*
X14736Y19062D01*
X14772Y19079D01*
X14814Y19098D01*
X14867Y19121D01*
X14926Y19141D01*
X14988Y19157D01*
X14991D01*
X14995Y19161D01*
X15004D01*
X15018Y19164D01*
X15034Y19167D01*
X15054Y19171D01*
X15103Y19177D01*
X15162Y19187D01*
X15231Y19194D01*
X15310Y19197D01*
X15392Y19200D01*
X16300D01*
Y16678D01*
D02*
G37*
G36*
X13023Y17229D02*
X13030Y17232D01*
X13043Y17245D01*
X13069Y17268D01*
X13102Y17294D01*
X13145Y17327D01*
X13197Y17363D01*
X13253Y17403D01*
X13318Y17442D01*
X13322D01*
X13325Y17445D01*
X13335Y17452D01*
X13348Y17458D01*
X13384Y17478D01*
X13427Y17501D01*
X13476Y17527D01*
X13532Y17553D01*
X13588Y17580D01*
X13643Y17603D01*
Y17301D01*
X13640D01*
X13630Y17294D01*
X13617Y17288D01*
X13601Y17278D01*
X13578Y17268D01*
X13551Y17252D01*
X13489Y17219D01*
X13420Y17176D01*
X13341Y17124D01*
X13266Y17068D01*
X13191Y17006D01*
X13187Y17002D01*
X13181Y16999D01*
X13171Y16989D01*
X13158Y16976D01*
X13125Y16943D01*
X13082Y16897D01*
X13040Y16848D01*
X12994Y16789D01*
X12951Y16730D01*
X12915Y16668D01*
X12715D01*
Y19200D01*
X13023D01*
Y17229D01*
D02*
G37*
%LPC*%
G36*
X109765Y46384D02*
X109181D01*
Y44459D01*
X109782D01*
X109805Y44462D01*
X109860Y44466D01*
X109923Y44469D01*
X109988Y44479D01*
X110054Y44489D01*
X110110Y44505D01*
X110113D01*
X110116Y44508D01*
X110133Y44515D01*
X110159Y44525D01*
X110192Y44538D01*
X110228Y44557D01*
X110264Y44577D01*
X110303Y44603D01*
X110336Y44633D01*
X110343Y44640D01*
X110356Y44656D01*
X110375Y44682D01*
X110405Y44718D01*
X110434Y44764D01*
X110464Y44820D01*
X110493Y44882D01*
X110520Y44954D01*
Y44958D01*
X110523Y44964D01*
X110526Y44974D01*
X110529Y44990D01*
X110536Y45010D01*
X110543Y45033D01*
X110549Y45059D01*
X110556Y45089D01*
X110559Y45125D01*
X110566Y45161D01*
X110579Y45243D01*
X110585Y45338D01*
X110589Y45440D01*
Y45443D01*
Y45456D01*
Y45479D01*
X110585Y45505D01*
Y45538D01*
X110582Y45574D01*
X110579Y45617D01*
X110572Y45663D01*
X110556Y45761D01*
X110533Y45863D01*
X110500Y45958D01*
X110480Y46004D01*
X110457Y46047D01*
Y46050D01*
X110451Y46056D01*
X110444Y46066D01*
X110434Y46083D01*
X110405Y46119D01*
X110369Y46161D01*
X110323Y46211D01*
X110270Y46257D01*
X110208Y46299D01*
X110175Y46316D01*
X110142Y46332D01*
X110136Y46335D01*
X110129Y46338D01*
X110116Y46342D01*
X110103Y46345D01*
X110083Y46348D01*
X110064Y46355D01*
X110038Y46358D01*
X110011Y46365D01*
X109978Y46368D01*
X109942Y46371D01*
X109903Y46378D01*
X109860Y46381D01*
X109814D01*
X109765Y46384D01*
D02*
G37*
G36*
X77905Y73758D02*
X77144D01*
Y73138D01*
X77147Y73092D01*
X77150Y73040D01*
X77154Y72987D01*
X77160Y72938D01*
X77170Y72898D01*
X77173Y72892D01*
X77176Y72879D01*
X77186Y72856D01*
X77200Y72826D01*
X77219Y72794D01*
X77239Y72764D01*
X77265Y72731D01*
X77295Y72705D01*
X77298Y72702D01*
X77311Y72695D01*
X77331Y72685D01*
X77357Y72672D01*
X77386Y72659D01*
X77426Y72649D01*
X77468Y72643D01*
X77518Y72639D01*
X77524D01*
X77537D01*
X77564Y72643D01*
X77593Y72646D01*
X77626Y72656D01*
X77662Y72666D01*
X77701Y72682D01*
X77737Y72702D01*
X77741Y72705D01*
X77754Y72711D01*
X77770Y72725D01*
X77790Y72744D01*
X77813Y72771D01*
X77833Y72797D01*
X77852Y72833D01*
X77869Y72872D01*
X77872Y72879D01*
X77875Y72895D01*
X77882Y72921D01*
X77888Y72961D01*
X77892Y72987D01*
X77895Y73013D01*
Y73046D01*
X77898Y73082D01*
X77901Y73118D01*
X77905Y73161D01*
Y73758D01*
D02*
G37*
G36*
X76845D02*
X75979D01*
Y73043D01*
X75983Y72967D01*
X75986Y72935D01*
X75989Y72905D01*
Y72898D01*
X75992Y72885D01*
X75999Y72866D01*
X76006Y72839D01*
X76015Y72807D01*
X76025Y72777D01*
X76042Y72744D01*
X76058Y72715D01*
X76061Y72711D01*
X76068Y72702D01*
X76078Y72689D01*
X76094Y72669D01*
X76114Y72649D01*
X76140Y72626D01*
X76166Y72606D01*
X76199Y72587D01*
X76202Y72584D01*
X76215Y72577D01*
X76235Y72570D01*
X76261Y72561D01*
X76291Y72551D01*
X76327Y72541D01*
X76370Y72538D01*
X76412Y72534D01*
X76419D01*
X76435D01*
X76461Y72538D01*
X76494Y72544D01*
X76534Y72554D01*
X76573Y72567D01*
X76616Y72584D01*
X76655Y72610D01*
X76658Y72613D01*
X76671Y72623D01*
X76691Y72639D01*
X76714Y72662D01*
X76737Y72692D01*
X76763Y72725D01*
X76783Y72764D01*
X76803Y72810D01*
X76806Y72816D01*
X76809Y72833D01*
X76816Y72862D01*
X76826Y72905D01*
X76832Y72954D01*
X76839Y73020D01*
X76842Y73092D01*
X76845Y73177D01*
Y73758D01*
D02*
G37*
G36*
X19818Y74624D02*
X19234D01*
Y72698D01*
X19835D01*
X19858Y72702D01*
X19914Y72705D01*
X19976Y72708D01*
X20041Y72718D01*
X20107Y72728D01*
X20163Y72744D01*
X20166D01*
X20169Y72748D01*
X20186Y72754D01*
X20212Y72764D01*
X20245Y72777D01*
X20281Y72797D01*
X20317Y72816D01*
X20356Y72843D01*
X20389Y72872D01*
X20396Y72879D01*
X20409Y72895D01*
X20428Y72922D01*
X20458Y72958D01*
X20488Y73004D01*
X20517Y73059D01*
X20547Y73122D01*
X20573Y73194D01*
Y73197D01*
X20576Y73203D01*
X20579Y73213D01*
X20583Y73230D01*
X20589Y73250D01*
X20596Y73272D01*
X20602Y73299D01*
X20609Y73328D01*
X20612Y73364D01*
X20619Y73400D01*
X20632Y73482D01*
X20638Y73577D01*
X20642Y73679D01*
Y73682D01*
Y73696D01*
Y73719D01*
X20638Y73745D01*
Y73778D01*
X20635Y73814D01*
X20632Y73856D01*
X20625Y73902D01*
X20609Y74001D01*
X20586Y74102D01*
X20553Y74197D01*
X20533Y74243D01*
X20510Y74286D01*
Y74289D01*
X20504Y74296D01*
X20497Y74306D01*
X20488Y74322D01*
X20458Y74358D01*
X20422Y74401D01*
X20376Y74450D01*
X20324Y74496D01*
X20261Y74538D01*
X20228Y74555D01*
X20196Y74571D01*
X20189Y74575D01*
X20182Y74578D01*
X20169Y74581D01*
X20156Y74584D01*
X20136Y74588D01*
X20117Y74594D01*
X20091Y74598D01*
X20064Y74604D01*
X20031Y74607D01*
X19996Y74611D01*
X19956Y74617D01*
X19914Y74620D01*
X19868D01*
X19818Y74624D01*
D02*
G37*
G36*
X36862Y73037D02*
X34936D01*
Y72653D01*
X35010Y72650D01*
X36465D01*
Y72317D01*
X35010D01*
X35004D01*
X34993D01*
X34974D01*
X34947D01*
X34945Y72317D01*
X34946Y72296D01*
X34956Y72230D01*
X34966Y72165D01*
X34982Y72109D01*
Y72106D01*
X34986Y72102D01*
X34992Y72086D01*
X35002Y72060D01*
X35015Y72027D01*
X35035Y71991D01*
X35054Y71955D01*
X35081Y71916D01*
X35110Y71883D01*
X35117Y71876D01*
X35133Y71863D01*
X35160Y71843D01*
X35195Y71814D01*
X35241Y71784D01*
X35297Y71755D01*
X35360Y71725D01*
X35432Y71699D01*
X35435D01*
X35442Y71696D01*
X35451Y71692D01*
X35468Y71689D01*
X35487Y71683D01*
X35510Y71676D01*
X35537Y71670D01*
X35566Y71663D01*
X35602Y71660D01*
X35638Y71653D01*
X35720Y71640D01*
X35782Y71636D01*
X35821Y71856D01*
X35823D01*
X35834Y71853D01*
X35851Y71851D01*
X35873Y71845D01*
X35897Y71837D01*
X35927Y71829D01*
X35960Y71818D01*
X35995Y71804D01*
X36075Y71769D01*
X36113Y71749D01*
X36154Y71725D01*
X36192Y71698D01*
X36230Y71667D01*
X36236Y71662D01*
X36239Y71663D01*
X36340Y71686D01*
X36435Y71719D01*
X36481Y71738D01*
X36524Y71761D01*
X36527D01*
X36534Y71768D01*
X36544Y71774D01*
X36560Y71784D01*
X36596Y71814D01*
X36639Y71850D01*
X36688Y71896D01*
X36734Y71948D01*
X36777Y72011D01*
X36793Y72043D01*
X36809Y72076D01*
X36813Y72083D01*
X36816Y72089D01*
X36819Y72102D01*
X36822Y72115D01*
X36826Y72135D01*
X36832Y72155D01*
X36836Y72181D01*
X36842Y72207D01*
X36845Y72240D01*
X36849Y72276D01*
X36855Y72316D01*
X36858Y72358D01*
Y72404D01*
X36862Y72453D01*
Y73037D01*
D02*
G37*
G36*
X36132Y70447D02*
X36127Y70445D01*
X36116Y70439D01*
X36102Y70431D01*
X36086Y70423D01*
X36045Y70406D01*
X35995Y70390D01*
X35941Y70373D01*
X35881Y70363D01*
X35818Y70360D01*
X35815D01*
X35810D01*
X35802D01*
X35791D01*
X35758Y70365D01*
X35727Y70370D01*
Y69616D01*
X35730D01*
X35737D01*
X35750Y69620D01*
X35763Y69623D01*
X35783D01*
X35806Y69629D01*
X35855Y69639D01*
X35911Y69656D01*
X35966Y69675D01*
X36022Y69701D01*
X36068Y69734D01*
X36071D01*
X36075Y69741D01*
X36084Y69751D01*
X36098Y69761D01*
X36124Y69793D01*
X36160Y69836D01*
X36193Y69892D01*
X36219Y69957D01*
X36242Y70033D01*
X36245Y70075D01*
X36248Y70118D01*
Y70138D01*
X36245Y70154D01*
Y70170D01*
X36242Y70193D01*
X36232Y70243D01*
X36212Y70298D01*
X36186Y70361D01*
X36153Y70420D01*
X36132Y70447D01*
D02*
G37*
G36*
X35583Y66166D02*
X35579D01*
X35566D01*
X35550D01*
X35524Y66162D01*
X35494D01*
X35461Y66159D01*
X35422Y66153D01*
X35383Y66149D01*
X35297Y66129D01*
X35209Y66107D01*
X35127Y66070D01*
X35091Y66051D01*
X35058Y66025D01*
X35054Y66021D01*
X35051Y66018D01*
X35032Y65998D01*
X35005Y65969D01*
X34976Y65926D01*
X34946Y65874D01*
X34920Y65811D01*
X34900Y65742D01*
X34897Y65703D01*
X34894Y65664D01*
Y65644D01*
X34897Y65628D01*
X34900Y65611D01*
X34904Y65588D01*
X34914Y65539D01*
X34933Y65483D01*
X34963Y65424D01*
X34982Y65391D01*
X35005Y65362D01*
X35028Y65333D01*
X35058Y65306D01*
X35061Y65303D01*
X35064Y65300D01*
X35074Y65293D01*
X35091Y65283D01*
X35107Y65273D01*
X35127Y65260D01*
X35153Y65247D01*
X35182Y65234D01*
X35219Y65221D01*
X35255Y65208D01*
X35297Y65195D01*
X35343Y65185D01*
X35396Y65175D01*
X35451Y65168D01*
X35510Y65162D01*
X35573D01*
X35576D01*
X35589D01*
X35605D01*
X35629Y65165D01*
X35655D01*
X35688Y65168D01*
X35724Y65175D01*
X35763Y65182D01*
X35842Y65198D01*
X35927Y65224D01*
X36006Y65264D01*
X36045Y65287D01*
X36078Y65313D01*
X36081D01*
X36084Y65319D01*
X36104Y65339D01*
X36130Y65372D01*
X36163Y65411D01*
X36196Y65464D01*
X36222Y65526D01*
X36242Y65595D01*
X36245Y65631D01*
X36248Y65670D01*
Y65690D01*
X36245Y65703D01*
X36239Y65742D01*
X36229Y65792D01*
X36206Y65847D01*
X36176Y65907D01*
X36157Y65936D01*
X36134Y65965D01*
X36107Y65995D01*
X36078Y66021D01*
X36075D01*
X36071Y66028D01*
X36061Y66034D01*
X36048Y66044D01*
X36029Y66054D01*
X36009Y66067D01*
X35983Y66080D01*
X35953Y66093D01*
X35920Y66107D01*
X35884Y66120D01*
X35842Y66133D01*
X35799Y66143D01*
X35750Y66153D01*
X35697Y66159D01*
X35642Y66162D01*
X35583Y66166D01*
D02*
G37*
G36*
X35127Y62220D02*
X35120D01*
X35107D01*
X35084Y62213D01*
X35054Y62207D01*
X35025Y62197D01*
X34989Y62180D01*
X34956Y62157D01*
X34923Y62128D01*
X34920Y62125D01*
X34910Y62112D01*
X34897Y62089D01*
X34884Y62059D01*
X34868Y62020D01*
X34854Y61971D01*
X34845Y61915D01*
X34841Y61852D01*
Y61823D01*
X34845Y61790D01*
X34851Y61747D01*
X34861Y61698D01*
X34874Y61646D01*
X34890Y61590D01*
X34917Y61537D01*
Y61534D01*
X34920Y61531D01*
X34930Y61515D01*
X34949Y61488D01*
X34973Y61459D01*
X35002Y61426D01*
X35041Y61390D01*
X35081Y61357D01*
X35130Y61331D01*
X35137Y61328D01*
X35150Y61324D01*
X35173Y61314D01*
X35209Y61305D01*
X35251Y61298D01*
X35304Y61288D01*
X35366Y61285D01*
X35438Y61282D01*
X35553D01*
Y61285D01*
X35550Y61288D01*
X35546Y61298D01*
X35543Y61314D01*
X35537Y61331D01*
X35530Y61354D01*
X35520Y61380D01*
X35514Y61410D01*
X35504Y61442D01*
X35494Y61479D01*
X35484Y61521D01*
X35474Y61567D01*
X35465Y61616D01*
X35455Y61669D01*
X35445Y61725D01*
X35435Y61787D01*
Y61797D01*
X35432Y61803D01*
Y61816D01*
X35425Y61852D01*
X35419Y61892D01*
X35409Y61934D01*
X35399Y61980D01*
X35386Y62023D01*
X35373Y62056D01*
Y62059D01*
X35366Y62069D01*
X35360Y62082D01*
X35350Y62102D01*
X35317Y62141D01*
X35297Y62161D01*
X35274Y62177D01*
X35271Y62180D01*
X35264Y62184D01*
X35248Y62190D01*
X35232Y62197D01*
X35209Y62207D01*
X35186Y62213D01*
X35156Y62217D01*
X35127Y62220D01*
D02*
G37*
G36*
X35550Y59307D02*
X35546D01*
X35533D01*
X35517D01*
X35494Y59304D01*
X35465D01*
X35432Y59301D01*
X35392Y59294D01*
X35353Y59288D01*
X35271Y59271D01*
X35182Y59245D01*
X35100Y59206D01*
X35064Y59183D01*
X35028Y59156D01*
X35025Y59153D01*
X35022Y59150D01*
X35012Y59140D01*
X35002Y59130D01*
X34973Y59094D01*
X34943Y59051D01*
X34910Y58996D01*
X34881Y58930D01*
X34861Y58855D01*
X34858Y58815D01*
X34854Y58772D01*
Y58750D01*
X34858Y58733D01*
X34861Y58714D01*
X34864Y58691D01*
X34877Y58638D01*
X34897Y58579D01*
X34927Y58513D01*
X34946Y58481D01*
X34973Y58448D01*
X34999Y58418D01*
X35028Y58389D01*
X35032Y58385D01*
X35038Y58382D01*
X35048Y58376D01*
X35061Y58366D01*
X35081Y58353D01*
X35104Y58340D01*
X35130Y58326D01*
X35160Y58310D01*
X35195Y58297D01*
X35235Y58284D01*
X35278Y58271D01*
X35327Y58258D01*
X35379Y58248D01*
X35435Y58241D01*
X35494Y58235D01*
X35560D01*
X35563D01*
X35576D01*
X35592D01*
X35615Y58238D01*
X35645D01*
X35674Y58241D01*
X35710Y58248D01*
X35750Y58254D01*
X35832Y58271D01*
X35917Y58300D01*
X35999Y58336D01*
X36039Y58363D01*
X36071Y58389D01*
X36075Y58392D01*
X36078Y58395D01*
X36088Y58405D01*
X36098Y58415D01*
X36127Y58451D01*
X36160Y58494D01*
X36193Y58549D01*
X36222Y58615D01*
X36242Y58691D01*
X36245Y58730D01*
X36248Y58772D01*
Y58795D01*
X36245Y58812D01*
X36242Y58832D01*
X36239Y58855D01*
X36226Y58907D01*
X36206Y58966D01*
X36176Y59032D01*
X36157Y59064D01*
X36134Y59094D01*
X36104Y59127D01*
X36075Y59156D01*
X36071D01*
X36068Y59163D01*
X36055Y59169D01*
X36042Y59179D01*
X36022Y59192D01*
X36002Y59206D01*
X35976Y59219D01*
X35943Y59232D01*
X35911Y59245D01*
X35871Y59258D01*
X35829Y59271D01*
X35779Y59284D01*
X35730Y59294D01*
X35674Y59301D01*
X35612Y59304D01*
X35550Y59307D01*
D02*
G37*
G36*
X212100Y58636D02*
X210962D01*
X212100Y57843D01*
Y58636D01*
D02*
G37*
G36*
X15966Y18902D02*
X15365D01*
X15342Y18898D01*
X15286Y18895D01*
X15224Y18892D01*
X15159Y18882D01*
X15093Y18872D01*
X15037Y18856D01*
X15034D01*
X15031Y18852D01*
X15014Y18846D01*
X14988Y18836D01*
X14955Y18823D01*
X14919Y18803D01*
X14883Y18783D01*
X14844Y18757D01*
X14811Y18728D01*
X14804Y18721D01*
X14791Y18705D01*
X14772Y18678D01*
X14742Y18642D01*
X14713Y18597D01*
X14683Y18541D01*
X14653Y18478D01*
X14627Y18406D01*
Y18403D01*
X14624Y18396D01*
X14621Y18387D01*
X14617Y18370D01*
X14611Y18350D01*
X14604Y18327D01*
X14598Y18301D01*
X14591Y18272D01*
X14588Y18236D01*
X14581Y18200D01*
X14568Y18118D01*
X14562Y18022D01*
X14558Y17921D01*
Y17918D01*
Y17904D01*
Y17882D01*
X14562Y17855D01*
Y17822D01*
X14565Y17786D01*
X14568Y17744D01*
X14575Y17698D01*
X14591Y17599D01*
X14614Y17498D01*
X14647Y17403D01*
X14667Y17357D01*
X14690Y17314D01*
Y17311D01*
X14696Y17304D01*
X14703Y17294D01*
X14713Y17278D01*
X14742Y17242D01*
X14778Y17199D01*
X14824Y17150D01*
X14876Y17104D01*
X14939Y17062D01*
X14972Y17045D01*
X15004Y17029D01*
X15011Y17025D01*
X15018Y17022D01*
X15031Y17019D01*
X15044Y17016D01*
X15064Y17012D01*
X15083Y17006D01*
X15109Y17002D01*
X15136Y16996D01*
X15168Y16993D01*
X15204Y16989D01*
X15244Y16983D01*
X15286Y16980D01*
X15332D01*
X15382Y16976D01*
X15966D01*
Y18902D01*
D02*
G37*
%LPD*%
D11*
X201321Y97898D02*
X224746D01*
Y147504D01*
X201321D02*
X224746D01*
X201321Y97898D02*
Y147504D01*
X103130Y40528D02*
Y49190D01*
Y40528D02*
X114564D01*
Y49190D01*
X103130D02*
X114564D01*
X73963Y79704D02*
X77398D01*
X73963Y72725D02*
Y79704D01*
Y72725D02*
X77398D01*
Y79704D01*
X14963Y70038D02*
X22837D01*
X14963D02*
Y74762D01*
X22837Y70038D02*
Y74762D01*
X14963D02*
X22837D01*
X27799Y81297D02*
X40004D01*
X27799Y67301D02*
Y81297D01*
Y67301D02*
X40004D01*
Y81297D01*
X201319Y31035D02*
Y80642D01*
X224744D01*
Y31035D02*
Y80642D01*
X201319Y31035D02*
X224744D01*
X12363Y16838D02*
X20237D01*
X12363D02*
Y21562D01*
X20237D01*
Y16838D02*
Y21562D01*
D13*
X99917Y22167D02*
X102083D01*
X99917Y18033D02*
X102083D01*
Y22167D01*
X99917Y18033D02*
Y22167D01*
X102183Y26233D02*
Y30367D01*
X100017Y26233D02*
Y30367D01*
X102183D01*
X100017Y26233D02*
X102183D01*
X193017Y117267D02*
X195183D01*
X193017Y113133D02*
X195183D01*
Y117267D01*
X193017Y113133D02*
Y117267D01*
Y50404D02*
X195183D01*
X193017Y46270D02*
X195183D01*
Y50404D01*
X193017Y46270D02*
Y50404D01*
X48267Y51945D02*
Y56079D01*
X46101Y51945D02*
Y56079D01*
X48267D01*
X46101Y51945D02*
X48267D01*
X42035Y24481D02*
X46365D01*
X42035Y22119D02*
X46365D01*
X42035D02*
Y24481D01*
X46365Y22119D02*
Y24481D01*
X26454Y33170D02*
X33146D01*
X26454Y29430D02*
X33146D01*
X26454D02*
Y33170D01*
X33146Y29430D02*
Y33170D01*
X51816Y33575D02*
Y49520D01*
X35871D02*
X51816D01*
X35871Y33575D02*
Y49520D01*
Y33575D02*
X51816D01*
X26509Y38070D02*
X33202D01*
X26509Y34330D02*
X33202D01*
X26509D02*
Y38070D01*
X33202Y34330D02*
Y38070D01*
X81269Y54046D02*
Y59754D01*
X89931Y54046D02*
Y59754D01*
X81269D02*
X89931D01*
X81269Y54046D02*
X89931D01*
X147217Y79533D02*
X149383D01*
X147217Y83667D02*
X149383D01*
X147217Y79533D02*
Y83667D01*
X149383Y79533D02*
Y83667D01*
X42433Y77083D02*
X46567D01*
X42433Y74917D02*
X46567D01*
X42433D02*
Y77083D01*
X46567Y74917D02*
Y77083D01*
X58331Y71443D02*
Y76758D01*
X49669Y71443D02*
Y76758D01*
Y71443D02*
X58331D01*
X49669Y76758D02*
X58331D01*
X43446Y52005D02*
Y56139D01*
X41280Y52005D02*
Y56139D01*
X43446D01*
X41280Y52005D02*
X43446D01*
X43883Y79033D02*
Y83167D01*
X41717Y79033D02*
Y83167D01*
X43883D01*
X41717Y79033D02*
X43883D01*
X45219Y79035D02*
X47581D01*
X45219Y83365D02*
X47581D01*
X45219Y79035D02*
Y83365D01*
X47581Y79035D02*
Y83365D01*
X100817Y105767D02*
X102983D01*
X100817Y101633D02*
X102983D01*
Y105767D01*
X100817Y101633D02*
Y105767D01*
X122719Y92535D02*
X125081D01*
X122719Y96865D02*
X125081D01*
X122719Y92535D02*
Y96865D01*
X125081Y92535D02*
Y96865D01*
X154870Y66992D02*
Y73882D01*
X151130Y66992D02*
Y73882D01*
X154870D01*
X151130Y66992D02*
X154870D01*
X93846Y99373D02*
Y108035D01*
X99554Y99373D02*
Y108035D01*
X93846Y99373D02*
X99554D01*
X93846Y108035D02*
X99554D01*
X34035Y82119D02*
X38365D01*
X34035Y84481D02*
X38365D01*
Y82119D02*
Y84481D01*
X34035Y82119D02*
Y84481D01*
X55828Y124619D02*
Y126981D01*
X60159Y124619D02*
Y126981D01*
X55828D02*
X60159D01*
X55828Y124619D02*
X60159D01*
X100002D02*
Y126981D01*
X95672Y124619D02*
Y126981D01*
Y124619D02*
X100002D01*
X95672Y126981D02*
X100002D01*
X105648Y135033D02*
Y139167D01*
X103483Y135033D02*
Y139167D01*
X105648D01*
X103483Y135033D02*
X105648D01*
X103384Y170606D02*
X105746D01*
X103384Y174937D02*
X105746D01*
X103384Y170606D02*
Y174937D01*
X105746Y170606D02*
Y174937D01*
X49517Y156133D02*
Y160267D01*
X51683Y156133D02*
Y160267D01*
X49517Y156133D02*
X51683D01*
X49517Y160267D02*
X51683D01*
X170217Y42404D02*
X172383D01*
X170217Y38270D02*
X172383D01*
Y42404D01*
X170217Y38270D02*
Y42404D01*
X148967Y60468D02*
Y62633D01*
X144833Y60468D02*
Y62633D01*
Y60468D02*
X148967D01*
X144833Y62633D02*
X148967D01*
X144833Y64068D02*
Y66233D01*
X148967Y64068D02*
Y66233D01*
X144833D02*
X148967D01*
X144833Y64068D02*
X148967D01*
X156617Y69570D02*
X158783D01*
X156617Y73704D02*
X158783D01*
X156617Y69570D02*
Y73704D01*
X158783Y69570D02*
Y73704D01*
X170217Y109067D02*
X172383D01*
X170217Y104933D02*
X172383D01*
Y109067D01*
X170217Y104933D02*
Y109067D01*
X148967Y127131D02*
Y129296D01*
X144833Y127131D02*
Y129296D01*
Y127131D02*
X148967D01*
X144833Y129296D02*
X148967D01*
Y130731D02*
Y132896D01*
X144833Y130731D02*
Y132896D01*
Y130731D02*
X148967D01*
X144833Y132896D02*
X148967D01*
X156617Y136233D02*
X158783D01*
X156617Y140367D02*
X158783D01*
X156617Y136233D02*
Y140367D01*
X158783Y136233D02*
Y140367D01*
X9369Y82146D02*
Y87854D01*
X18031Y82146D02*
Y87854D01*
X9369D02*
X18031D01*
X9369Y82146D02*
X18031D01*
X8542Y80031D02*
X13858D01*
X8542Y71369D02*
X13858D01*
Y80031D01*
X8542Y71369D02*
Y80031D01*
X195183Y61370D02*
Y65504D01*
X193017Y61370D02*
Y65504D01*
X195183D01*
X193017Y61370D02*
X195183D01*
X11369Y22546D02*
X20031D01*
X11369Y28254D02*
X20031D01*
Y22546D02*
Y28254D01*
X11369Y22546D02*
Y28254D01*
X32046Y54161D02*
Y58295D01*
X29880Y54161D02*
Y58295D01*
X32046D01*
X29880Y54161D02*
X32046D01*
X29880Y47433D02*
X32046D01*
X29880Y51567D02*
X32046D01*
X29880Y47433D02*
Y51567D01*
X32046Y47433D02*
Y51567D01*
X33917Y56167D02*
X36083D01*
X33917Y52033D02*
X36083D01*
Y56167D01*
X33917Y52033D02*
Y56167D01*
X55783Y49633D02*
Y53767D01*
X53617Y49633D02*
Y53767D01*
X55783D01*
X53617Y49633D02*
X55783D01*
X26826Y60219D02*
Y62581D01*
X31157Y60219D02*
Y62581D01*
X26826D02*
X31157D01*
X26826Y60219D02*
X31157D01*
X24280Y75567D02*
X26446D01*
X24280Y71433D02*
X26446D01*
Y75567D01*
X24280Y71433D02*
Y75567D01*
X28483Y54133D02*
Y58267D01*
X26317Y54133D02*
Y58267D01*
X28483D01*
X26317Y54133D02*
X28483D01*
X44860Y26663D02*
X47223D01*
X44860Y30994D02*
X47223D01*
X44860Y26663D02*
Y30994D01*
X47223Y26663D02*
Y30994D01*
X39717Y26833D02*
Y30967D01*
X41883Y26833D02*
Y30967D01*
X39717Y26833D02*
X41883D01*
X39717Y30967D02*
X41883D01*
X37617Y56167D02*
X39783D01*
X37617Y52033D02*
X39783D01*
Y56167D01*
X37617Y52033D02*
Y56167D01*
X58430Y45317D02*
Y47483D01*
X54296Y45317D02*
Y47483D01*
Y45317D02*
X58430D01*
X54296Y47483D02*
X58430D01*
X195183Y128233D02*
Y132367D01*
X193017Y128233D02*
Y132367D01*
X195183D01*
X193017Y128233D02*
X195183D01*
X154870Y133655D02*
Y140545D01*
X151130Y133655D02*
Y140545D01*
X154870D01*
X151130Y133655D02*
X154870D01*
X115406Y59619D02*
X119737D01*
X115406Y61981D02*
X119737D01*
Y59619D02*
Y61981D01*
X115406Y59619D02*
Y61981D01*
X85581Y92163D02*
Y96494D01*
X83219Y92163D02*
Y96494D01*
X85581D01*
X83219Y92163D02*
X85581D01*
X86281Y74035D02*
Y78365D01*
X83919Y74035D02*
Y78365D01*
X86281D01*
X83919Y74035D02*
X86281D01*
X113316Y52330D02*
Y60991D01*
X107607Y52330D02*
Y60991D01*
X113316D01*
X107607Y52330D02*
X113316D01*
X85735Y63381D02*
X90065D01*
X85735Y61019D02*
X90065D01*
X85735D02*
Y63381D01*
X90065Y61019D02*
Y63381D01*
X87535Y100781D02*
X91865D01*
X87535Y98419D02*
X91865D01*
X87535D02*
Y100781D01*
X91865Y98419D02*
Y100781D01*
M02*
