G04*
G04 #@! TF.GenerationSoftware,Altium Limited,Altium Designer,26.8.1 (31)*
G04*
G04 Layer_Physical_Order=1*
G04 Layer_Color=255*
G04 Board_Origin=0|0*
%FSLAX25Y25*%
%MOIN*%
G70*
G04*
G04 #@! TF.SameCoordinates,D1305378-CED7-41CA-A8E7-99A2C117E124*
G04*
G04*
G04 #@! TF.FilePolarity,Positive*
G04*
G01*
G75*
%ADD15C,0.00510*%
%ADD16C,0.00600*%
G04:AMPARAMS|DCode=19|XSize=21.65mil|YSize=19.68mil|CornerRadius=2.46mil|HoleSize=0mil|Usage=FLASHONLY|Rotation=0.000|XOffset=0mil|YOffset=0mil|HoleType=Round|Shape=RoundedRectangle|*
%AMROUNDEDRECTD19*
21,1,0.02165,0.01476,0,0,0.0*
21,1,0.01673,0.01968,0,0,0.0*
1,1,0.00492,0.00837,-0.00738*
1,1,0.00492,-0.00837,-0.00738*
1,1,0.00492,-0.00837,0.00738*
1,1,0.00492,0.00837,0.00738*
%
%ADD19ROUNDEDRECTD19*%
%ADD20R,0.03150X0.03150*%
%ADD21R,0.03598X0.04799*%
G04:AMPARAMS|DCode=22|XSize=21.65mil|YSize=19.68mil|CornerRadius=2.46mil|HoleSize=0mil|Usage=FLASHONLY|Rotation=270.000|XOffset=0mil|YOffset=0mil|HoleType=Round|Shape=RoundedRectangle|*
%AMROUNDEDRECTD22*
21,1,0.02165,0.01476,0,0,270.0*
21,1,0.01673,0.01968,0,0,270.0*
1,1,0.00492,-0.00738,-0.00837*
1,1,0.00492,-0.00738,0.00837*
1,1,0.00492,0.00738,0.00837*
1,1,0.00492,0.00738,-0.00837*
%
%ADD22ROUNDEDRECTD22*%
G04:AMPARAMS|DCode=23|XSize=29.92mil|YSize=26mil|CornerRadius=3.25mil|HoleSize=0mil|Usage=FLASHONLY|Rotation=270.000|XOffset=0mil|YOffset=0mil|HoleType=Round|Shape=RoundedRectangle|*
%AMROUNDEDRECTD23*
21,1,0.02992,0.01950,0,0,270.0*
21,1,0.02342,0.02600,0,0,270.0*
1,1,0.00650,-0.00975,-0.01171*
1,1,0.00650,-0.00975,0.01171*
1,1,0.00650,0.00975,0.01171*
1,1,0.00650,0.00975,-0.01171*
%
%ADD23ROUNDEDRECTD23*%
%ADD24R,0.00984X0.02362*%
%ADD25R,0.02362X0.00984*%
%ADD26R,0.10630X0.10630*%
G04:AMPARAMS|DCode=27|XSize=47.64mil|YSize=23.23mil|CornerRadius=2.9mil|HoleSize=0mil|Usage=FLASHONLY|Rotation=270.000|XOffset=0mil|YOffset=0mil|HoleType=Round|Shape=RoundedRectangle|*
%AMROUNDEDRECTD27*
21,1,0.04764,0.01742,0,0,270.0*
21,1,0.04183,0.02323,0,0,270.0*
1,1,0.00581,-0.00871,-0.02092*
1,1,0.00581,-0.00871,0.02092*
1,1,0.00581,0.00871,0.02092*
1,1,0.00581,0.00871,-0.02092*
%
%ADD27ROUNDEDRECTD27*%
G04:AMPARAMS|DCode=28|XSize=51.18mil|YSize=29.92mil|CornerRadius=3.74mil|HoleSize=0mil|Usage=FLASHONLY|Rotation=90.000|XOffset=0mil|YOffset=0mil|HoleType=Round|Shape=RoundedRectangle|*
%AMROUNDEDRECTD28*
21,1,0.05118,0.02244,0,0,90.0*
21,1,0.04370,0.02992,0,0,90.0*
1,1,0.00748,0.01122,0.02185*
1,1,0.00748,0.01122,-0.02185*
1,1,0.00748,-0.01122,-0.02185*
1,1,0.00748,-0.01122,0.02185*
%
%ADD28ROUNDEDRECTD28*%
%ADD29R,0.02362X0.04528*%
%ADD30R,0.00787X0.03740*%
%ADD31R,0.07087X0.03937*%
%ADD32R,0.03661X0.03504*%
%ADD33R,0.03504X0.03661*%
%ADD34R,0.10709X0.03780*%
G04:AMPARAMS|DCode=35|XSize=31.89mil|YSize=10.63mil|CornerRadius=1.33mil|HoleSize=0mil|Usage=FLASHONLY|Rotation=270.000|XOffset=0mil|YOffset=0mil|HoleType=Round|Shape=RoundedRectangle|*
%AMROUNDEDRECTD35*
21,1,0.03189,0.00797,0,0,270.0*
21,1,0.02923,0.01063,0,0,270.0*
1,1,0.00266,-0.00399,-0.01462*
1,1,0.00266,-0.00399,0.01462*
1,1,0.00266,0.00399,0.01462*
1,1,0.00266,0.00399,-0.01462*
%
%ADD35ROUNDEDRECTD35*%
G04:AMPARAMS|DCode=37|XSize=10.63mil|YSize=31.89mil|CornerRadius=1.33mil|HoleSize=0mil|Usage=FLASHONLY|Rotation=270.000|XOffset=0mil|YOffset=0mil|HoleType=Round|Shape=RoundedRectangle|*
%AMROUNDEDRECTD37*
21,1,0.01063,0.02923,0,0,270.0*
21,1,0.00797,0.03189,0,0,270.0*
1,1,0.00266,-0.01462,-0.00399*
1,1,0.00266,-0.01462,0.00399*
1,1,0.00266,0.01462,0.00399*
1,1,0.00266,0.01462,-0.00399*
%
%ADD37ROUNDEDRECTD37*%
G04:AMPARAMS|DCode=38|XSize=29.92mil|YSize=26mil|CornerRadius=3.25mil|HoleSize=0mil|Usage=FLASHONLY|Rotation=180.000|XOffset=0mil|YOffset=0mil|HoleType=Round|Shape=RoundedRectangle|*
%AMROUNDEDRECTD38*
21,1,0.02992,0.01950,0,0,180.0*
21,1,0.02342,0.02600,0,0,180.0*
1,1,0.00650,-0.01171,0.00975*
1,1,0.00650,0.01171,0.00975*
1,1,0.00650,0.01171,-0.00975*
1,1,0.00650,-0.01171,-0.00975*
%
%ADD38ROUNDEDRECTD38*%
%ADD39R,0.05512X0.04724*%
%ADD40R,0.03740X0.00787*%
G04:AMPARAMS|DCode=41|XSize=51.18mil|YSize=29.92mil|CornerRadius=3.74mil|HoleSize=0mil|Usage=FLASHONLY|Rotation=180.000|XOffset=0mil|YOffset=0mil|HoleType=Round|Shape=RoundedRectangle|*
%AMROUNDEDRECTD41*
21,1,0.05118,0.02244,0,0,180.0*
21,1,0.04370,0.02992,0,0,180.0*
1,1,0.00748,-0.02185,0.01122*
1,1,0.00748,0.02185,0.01122*
1,1,0.00748,0.02185,-0.01122*
1,1,0.00748,-0.02185,-0.01122*
%
%ADD41ROUNDEDRECTD41*%
G04:AMPARAMS|DCode=42|XSize=39.53mil|YSize=17.16mil|CornerRadius=8.58mil|HoleSize=0mil|Usage=FLASHONLY|Rotation=0.000|XOffset=0mil|YOffset=0mil|HoleType=Round|Shape=RoundedRectangle|*
%AMROUNDEDRECTD42*
21,1,0.03953,0.00000,0,0,0.0*
21,1,0.02237,0.01716,0,0,0.0*
1,1,0.01716,0.01118,0.00000*
1,1,0.01716,-0.01118,0.00000*
1,1,0.01716,-0.01118,0.00000*
1,1,0.01716,0.01118,0.00000*
%
%ADD42ROUNDEDRECTD42*%
%ADD43R,0.03335X0.03335*%
%ADD44R,0.04724X0.05512*%
%ADD45R,0.03937X0.04134*%
%ADD46R,0.06102X0.05906*%
%ADD47R,0.02095X0.04938*%
%ADD48R,0.05906X0.06102*%
%ADD49R,0.03583X0.04803*%
%ADD50R,0.03953X0.01716*%
%ADD51R,0.01181X0.04528*%
%ADD52R,0.02254X0.02423*%
%ADD53R,0.01772X0.01968*%
%ADD54R,0.03937X0.07087*%
G04:AMPARAMS|DCode=55|XSize=49.38mil|YSize=20.95mil|CornerRadius=10.48mil|HoleSize=0mil|Usage=FLASHONLY|Rotation=270.000|XOffset=0mil|YOffset=0mil|HoleType=Round|Shape=RoundedRectangle|*
%AMROUNDEDRECTD55*
21,1,0.04938,0.00000,0,0,270.0*
21,1,0.02843,0.02095,0,0,270.0*
1,1,0.02095,0.00000,-0.01422*
1,1,0.02095,0.00000,0.01422*
1,1,0.02095,0.00000,0.01422*
1,1,0.02095,0.00000,-0.01422*
%
%ADD55ROUNDEDRECTD55*%
%ADD56R,0.07900X0.20900*%
G04:AMPARAMS|DCode=57|XSize=23.23mil|YSize=23.62mil|CornerRadius=6.16mil|HoleSize=0mil|Usage=FLASHONLY|Rotation=180.000|XOffset=0mil|YOffset=0mil|HoleType=Round|Shape=RoundedRectangle|*
%AMROUNDEDRECTD57*
21,1,0.02323,0.01131,0,0,180.0*
21,1,0.01092,0.02362,0,0,180.0*
1,1,0.01231,-0.00546,0.00566*
1,1,0.01231,0.00546,0.00566*
1,1,0.01231,0.00546,-0.00566*
1,1,0.01231,-0.00546,-0.00566*
%
%ADD57ROUNDEDRECTD57*%
%ADD60R,0.02165X0.03150*%
%ADD61R,0.14567X0.14567*%
%ADD64R,0.25591X0.25591*%
%ADD65C,0.04331*%
%ADD66C,0.05512*%
%ADD67R,0.05512X0.05512*%
%ADD68C,0.12795*%
%ADD69O,0.03937X0.07087*%
%ADD70O,0.03937X0.08661*%
%ADD71R,0.02165X0.02559*%
%ADD72R,0.11811X0.11811*%
%ADD73R,0.02559X0.02165*%
%ADD74C,0.00400*%
%ADD75C,0.00800*%
%ADD76C,0.02000*%
%ADD77C,0.01000*%
%ADD78C,0.01200*%
%ADD79C,0.04000*%
%ADD80C,0.00516*%
%ADD81C,0.01201*%
%ADD82C,0.00435*%
%ADD83C,0.02362*%
G36*
X112965Y174911D02*
X110450D01*
X109845Y174791D01*
X109332Y174448D01*
X109048Y174164D01*
X108705Y173651D01*
X108585Y173047D01*
X108705Y172442D01*
X109048Y171929D01*
X109561Y171586D01*
X110165Y171466D01*
X110770Y171586D01*
X111016Y171750D01*
X112965D01*
Y170700D01*
X107465D01*
Y171700D01*
X105565Y173600D01*
X93624D01*
X93265Y173700D01*
X93065Y174017D01*
Y175500D01*
X112965D01*
Y174911D01*
D02*
G37*
G36*
X76380Y119700D02*
X77660Y118420D01*
X76250D01*
Y120980D01*
X77660D01*
X76380Y119700D01*
D02*
G37*
G36*
X78190Y118420D02*
X76900Y119710D01*
X78190Y120980D01*
Y118420D01*
D02*
G37*
G36*
X96665Y128700D02*
X96965Y128400D01*
Y124900D01*
X97865Y124000D01*
Y117600D01*
X97824Y117500D01*
X93165D01*
Y131800D01*
X93365Y132000D01*
X96665D01*
Y128700D01*
D02*
G37*
G36*
X61665Y131800D02*
Y117500D01*
X57007D01*
X56965Y117600D01*
Y124000D01*
X57156Y124191D01*
X57271Y124214D01*
X57534Y124390D01*
X57710Y124653D01*
X57733Y124768D01*
X57865Y124900D01*
Y128400D01*
X58165Y128700D01*
Y132000D01*
X61465D01*
X61665Y131800D01*
D02*
G37*
G36*
X64100Y102400D02*
Y90984D01*
X61216D01*
X53485Y98715D01*
Y102515D01*
X63985D01*
X64100Y102400D01*
D02*
G37*
G36*
X49800Y100000D02*
X60100Y89700D01*
X63900Y89700D01*
X65400Y88200D01*
Y78900D01*
X60500D01*
X51400Y88000D01*
X42000D01*
Y108700D01*
X42041Y108800D01*
X49800D01*
Y100000D01*
D02*
G37*
G36*
X36300Y88300D02*
Y82300D01*
X35000Y81000D01*
Y77449D01*
X32897D01*
Y88300D01*
X28100D01*
Y108600D01*
X36300D01*
Y88300D01*
D02*
G37*
G36*
X22300Y81100D02*
X31200Y81100D01*
Y76200D01*
X26400D01*
Y74300D01*
X24300D01*
Y76300D01*
X22900Y77700D01*
X8741D01*
X8700Y77800D01*
Y80700D01*
X11895D01*
X15765Y84569D01*
X18831D01*
X22300Y81100D01*
D02*
G37*
G36*
X52295Y71443D02*
X48824D01*
Y83648D01*
X48812Y83660D01*
X48824Y83693D01*
X52295D01*
Y71443D01*
D02*
G37*
G36*
X62200Y76700D02*
X62200Y71400D01*
X61800Y71000D01*
X53197Y71000D01*
X52900Y71297D01*
Y76750D01*
X53150Y77000D01*
X61900D01*
X62200Y76700D01*
D02*
G37*
G36*
X17500Y70800D02*
X19700Y68600D01*
X19800D01*
Y67328D01*
X19689Y67235D01*
X19400Y67132D01*
X19112Y67325D01*
X18663Y67414D01*
X18214Y67325D01*
X17834Y67070D01*
X17579Y66690D01*
X17490Y66241D01*
X17579Y65792D01*
X17748Y65540D01*
Y63900D01*
X10400Y63900D01*
X8600Y65700D01*
Y74000D01*
X17500D01*
Y70800D01*
D02*
G37*
G36*
X23763Y50200D02*
X16963Y43400D01*
Y40500D01*
X16063Y39600D01*
X13163Y39600D01*
Y45700D01*
X11963Y46900D01*
Y51700D01*
X15963D01*
D01*
X20163Y55900D01*
Y57800D01*
X21163Y58800D01*
X23763D01*
X23763Y50200D01*
D02*
G37*
G36*
X8035Y44085D02*
X6755Y45365D01*
X5475Y44085D01*
Y45495D01*
X8035D01*
Y44085D01*
D02*
G37*
G36*
Y43555D02*
X5475D01*
X6765Y44845D01*
X8035Y43555D01*
D02*
G37*
G36*
X97108Y42292D02*
X97108Y40100D01*
X96608Y39600D01*
X94208Y39600D01*
X93800Y39193D01*
Y38423D01*
X93737Y38517D01*
X93225Y38860D01*
X92620Y38980D01*
X92015Y38860D01*
X91502Y38517D01*
X91462Y38457D01*
Y39938D01*
X91201Y40199D01*
Y40214D01*
X91186D01*
X90908Y40492D01*
X90908Y42308D01*
X91400Y42800D01*
X96600D01*
X97108Y42292D01*
D02*
G37*
G36*
X69135Y42308D02*
X69135Y40492D01*
X68856Y40214D01*
X68841D01*
Y40199D01*
X68581Y39938D01*
Y38457D01*
X68540Y38517D01*
X68028Y38860D01*
X67423Y38980D01*
X66818Y38860D01*
X66305Y38517D01*
X66242Y38423D01*
Y39193D01*
X65835Y39600D01*
X63435Y39600D01*
X62935Y40100D01*
X62935Y42292D01*
X63442Y42800D01*
X68642D01*
X69135Y42308D01*
D02*
G37*
G36*
X91502Y35332D02*
X91632Y35202D01*
X91462D01*
Y35392D01*
X91502Y35332D01*
D02*
G37*
G36*
X68581Y35202D02*
X68410D01*
X68540Y35332D01*
X68581Y35392D01*
Y35202D01*
D02*
G37*
G36*
X6745Y33845D02*
X5475Y35135D01*
X8035D01*
X6745Y33845D01*
D02*
G37*
G36*
X6755Y33325D02*
X8035Y34605D01*
Y33195D01*
X5475D01*
Y34605D01*
X6755Y33325D01*
D02*
G37*
G36*
X90698Y34907D02*
X90698Y34800D01*
X90889Y34586D01*
X90911Y34586D01*
X90998Y34500D01*
X92298D01*
X92598Y34200D01*
Y31700D01*
X92198Y31300D01*
X86798Y31300D01*
X86398Y31700D01*
Y34100D01*
X86798Y34500D01*
X87998D01*
X88298Y34800D01*
X88298Y36900D01*
Y39700D01*
X90698D01*
X90698Y34907D01*
D02*
G37*
G36*
X71800D02*
X71800Y34800D01*
X71991Y34586D01*
X72014Y34586D01*
X72100Y34500D01*
X73400D01*
X73700Y34200D01*
Y31700D01*
X73300Y31300D01*
X67900Y31300D01*
X67500Y31700D01*
Y34100D01*
X67900Y34500D01*
X69100D01*
X69400Y34800D01*
X69400Y36900D01*
Y39700D01*
X71800D01*
X71800Y34907D01*
D02*
G37*
G36*
X25500Y29000D02*
Y21600D01*
X29500Y17600D01*
Y16200D01*
X25500Y12200D01*
X24200D01*
X18679Y17721D01*
X17300Y17721D01*
Y34800D01*
X19700D01*
X25500Y29000D01*
D02*
G37*
G36*
X147950Y56602D02*
X146540D01*
X147820Y57882D01*
X146540Y59162D01*
X147950D01*
Y56602D01*
D02*
G37*
G36*
X147300Y57872D02*
X146010Y56602D01*
Y59162D01*
X147300Y57872D01*
D02*
G37*
G36*
X196700Y60237D02*
X200300D01*
Y56737D01*
X199900Y56337D01*
X180200D01*
X179100Y57437D01*
X175800D01*
Y58537D01*
X179000D01*
X180300Y59837D01*
X196100D01*
X196600Y60337D01*
X196700Y60237D01*
D02*
G37*
G36*
X200300Y55335D02*
Y51835D01*
X196700D01*
X196600Y51735D01*
X196100Y52235D01*
X180300D01*
X179000Y53535D01*
X175800D01*
Y54635D01*
X179100D01*
X180200Y55735D01*
X199900D01*
X200300Y55335D01*
D02*
G37*
G36*
X179639Y50625D02*
X179953Y50563D01*
X180374D01*
X181400Y49537D01*
X184700D01*
Y46237D01*
X184600Y46137D01*
X186700Y44037D01*
X191900D01*
Y36987D01*
X181200D01*
Y40237D01*
X175800Y45637D01*
Y50637D01*
X179622D01*
X179639Y50625D01*
D02*
G37*
G36*
X174198Y45737D02*
X179898Y40037D01*
Y32637D01*
X176198D01*
X173198Y35637D01*
Y47937D01*
X174198D01*
Y45737D01*
D02*
G37*
G36*
X191800Y24337D02*
X191700Y24237D01*
X181200D01*
Y31337D01*
X191800D01*
Y24337D01*
D02*
G37*
G36*
Y87637D02*
Y80637D01*
X181200D01*
Y87737D01*
X191700D01*
X191800Y87637D01*
D02*
G37*
G36*
X147950Y67457D02*
X146540D01*
X147820Y68737D01*
X146540Y70017D01*
X147950D01*
Y67457D01*
D02*
G37*
G36*
X147300Y68727D02*
X146010Y67457D01*
Y70017D01*
X147300Y68727D01*
D02*
G37*
G36*
X179899Y72035D02*
X174199Y66335D01*
Y64135D01*
X173199D01*
Y76436D01*
X176199Y79435D01*
X179899D01*
Y72035D01*
D02*
G37*
G36*
X191900Y68037D02*
Y67837D01*
X186700D01*
X184700Y65837D01*
Y62537D01*
Y62337D01*
X181400D01*
X180574Y61511D01*
X179953D01*
X179639Y61449D01*
X179622Y61437D01*
X179373Y61271D01*
X179339Y61237D01*
X175800D01*
Y61437D01*
Y66237D01*
Y66437D01*
X181200Y71837D01*
Y75087D01*
X191900D01*
Y68037D01*
D02*
G37*
G36*
X191800Y154500D02*
Y147500D01*
X181200D01*
Y154600D01*
X191700D01*
X191800Y154500D01*
D02*
G37*
G36*
X147950Y134120D02*
X146540D01*
X147820Y135400D01*
X146540Y136680D01*
X147950D01*
Y134120D01*
D02*
G37*
G36*
X147300Y135390D02*
X146010Y134120D01*
Y136680D01*
X147300Y135390D01*
D02*
G37*
G36*
X179899Y138698D02*
X174199Y132998D01*
Y130798D01*
X173199D01*
Y143098D01*
X176199Y146098D01*
X179899D01*
Y138698D01*
D02*
G37*
G36*
X191900Y134700D02*
X186700D01*
X184600Y132600D01*
X184700Y132500D01*
Y129200D01*
X181400D01*
X180374Y128174D01*
X179953D01*
X179639Y128112D01*
X179622Y128100D01*
X175800D01*
Y133100D01*
X181200Y138500D01*
Y141750D01*
X191900D01*
Y134700D01*
D02*
G37*
G36*
X147950Y123265D02*
X146540D01*
X147820Y124545D01*
X146540Y125825D01*
X147950D01*
Y123265D01*
D02*
G37*
G36*
X147300Y124535D02*
X146010Y123265D01*
Y125825D01*
X147300Y124535D01*
D02*
G37*
G36*
X196700Y126900D02*
X200300D01*
Y123400D01*
X199900Y123000D01*
X180200D01*
X179100Y124100D01*
X175800D01*
Y125200D01*
X179000D01*
X180300Y126500D01*
X196100D01*
X196600Y127000D01*
X196700Y126900D01*
D02*
G37*
G36*
X200300Y121998D02*
Y118498D01*
X196700D01*
X196600Y118398D01*
X196100Y118898D01*
X180300D01*
X179000Y120198D01*
X175800D01*
Y121298D01*
X179100D01*
X180200Y122398D01*
X199900D01*
X200300Y121998D01*
D02*
G37*
G36*
X179639Y117288D02*
X179953Y117226D01*
X180374D01*
X181400Y116200D01*
X184700D01*
Y112900D01*
X184600Y112800D01*
X186700Y110700D01*
X191900D01*
Y103650D01*
X181200D01*
Y106900D01*
X175800Y112300D01*
Y117300D01*
X179622D01*
X179639Y117288D01*
D02*
G37*
G36*
X174200Y112400D02*
X179900Y106700D01*
Y99300D01*
X176200D01*
X173200Y102300D01*
Y114600D01*
X174200D01*
Y112400D01*
D02*
G37*
G36*
X191800Y91200D02*
X191700Y91100D01*
X181200D01*
Y98200D01*
X191800D01*
Y91200D01*
D02*
G37*
D15*
X151500Y55100D02*
X151745Y55345D01*
X153446D01*
X154138Y56037D01*
X149100Y52600D02*
X155000D01*
X156256Y53856D01*
X157942D01*
X158017Y56037D02*
X158086Y55968D01*
X154138Y56037D02*
X158017D01*
X157942Y53856D02*
X158154Y54068D01*
X151200Y118600D02*
X153331Y120731D01*
X158154D01*
X130200Y70986D02*
Y75500D01*
Y70986D02*
X130986Y70199D01*
X138900Y51100D02*
Y63400D01*
Y113500D02*
X141918Y116518D01*
X138900Y63400D02*
Y113500D01*
X120163Y84912D02*
X126576D01*
X127844Y83644D02*
X128060D01*
X126576Y84912D02*
X127844Y83644D01*
X120051Y85024D02*
X120163Y84912D01*
X103800Y61501D02*
X104412Y62114D01*
X103800Y61000D02*
Y61501D01*
X104412Y62114D02*
Y64661D01*
X104500Y64749D01*
X101100Y30072D02*
X101142Y30114D01*
X104963D01*
X105262Y29815D01*
Y27600D02*
Y29815D01*
X105250Y18527D02*
Y20800D01*
X104952Y18228D02*
X105250Y18527D01*
X101100Y18228D02*
X104952D01*
X101000Y18328D02*
X101100Y18228D01*
X111491Y20741D02*
X111550Y20800D01*
X108585Y20741D02*
X111491D01*
X108601Y27613D02*
X111548D01*
X111561Y27600D01*
X192426Y118047D02*
X193502Y116972D01*
X193600D01*
X179953Y118047D02*
X192426D01*
X179514Y118486D02*
X179953Y118047D01*
X177722Y118486D02*
X179514D01*
X179953Y51384D02*
X192426D01*
X193502Y50309D01*
X179514Y51824D02*
X179953Y51384D01*
X177722Y51824D02*
X179514D01*
X47184Y52241D02*
X47204Y52220D01*
X50880D01*
X50900Y52200D01*
X46796Y51853D02*
X47184Y52241D01*
X46796Y49028D02*
Y51853D01*
X49002Y49928D02*
X54700D01*
X48246Y25754D02*
X48600Y25400D01*
X38922Y31485D02*
Y33575D01*
Y31485D02*
X39221Y31186D01*
X40286D01*
X40800Y30672D01*
X51324Y38594D02*
X57006D01*
X58200Y31400D02*
Y37400D01*
X57006Y38594D02*
X58200Y37400D01*
X59300Y30300D02*
X74000D01*
X58200Y31400D02*
X59300Y30300D01*
X74000D02*
X75100Y31400D01*
Y37400D01*
X38922Y34057D02*
Y34067D01*
X38685Y33820D02*
X38922Y34057D01*
X36122Y33820D02*
X38685D01*
X34717Y46468D02*
X36363D01*
X34418Y46767D02*
X34717Y46468D01*
X48765Y49028D02*
Y49691D01*
X51324Y42531D02*
X57824D01*
X48765Y49691D02*
X49002Y49928D01*
X33100Y44600D02*
X34731Y46231D01*
X33100Y44400D02*
Y44600D01*
X141913Y119800D02*
X142000D01*
X140200Y121513D02*
X141913Y119800D01*
X140200Y121513D02*
Y144800D01*
X141918Y116518D02*
X157878D01*
X158154Y116795D01*
X99812Y169900D02*
X100006Y170094D01*
X96100Y169900D02*
X99812D01*
X95051Y61033D02*
Y64749D01*
X93518Y59500D02*
X95051Y61033D01*
X93500Y59500D02*
X93518D01*
X80000Y171465D02*
X82765Y168700D01*
X80000Y171465D02*
Y175100D01*
X95300Y57300D02*
X96626Y58626D01*
Y64749D01*
X95300Y57200D02*
Y57300D01*
X97400Y55524D02*
X98201Y56325D01*
Y64749D01*
X97400Y55100D02*
Y55524D01*
X99776Y53876D02*
Y64749D01*
X97400Y51500D02*
X99776Y53876D01*
X97400Y51500D02*
Y51500D01*
X120051Y83450D02*
X122693D01*
X123743Y82400D01*
X123918D01*
X148237Y77000D02*
Y79765D01*
X120051Y80300D02*
X123999D01*
X124799Y79500D01*
X125300D01*
X120051Y78725D02*
X123085D01*
X124755Y77055D02*
X127454D01*
X123085Y78725D02*
X124755Y77055D01*
X127454D02*
X127800Y77401D01*
X122313Y77087D02*
X124634Y74766D01*
X126034D02*
X126200Y74600D01*
X120115Y77087D02*
X122313D01*
X124634Y74766D02*
X126034D01*
X120051Y77150D02*
X120115Y77087D01*
X130986Y66186D02*
Y70199D01*
X120190Y75437D02*
X122229D01*
X126170Y71495D01*
X127683D01*
X127793Y71385D01*
X120051Y75576D02*
X120190Y75437D01*
X127412Y68673D02*
X128606D01*
X120051Y74001D02*
X120190Y73862D01*
X122223D01*
X127412Y68673D01*
X128606D02*
X128932Y68346D01*
X120190Y72287D02*
X122213D01*
X124946Y67954D02*
Y69554D01*
X122213Y72287D02*
X124946Y69554D01*
X120051Y72426D02*
X120190Y72287D01*
X124946Y67954D02*
X125300Y67600D01*
X122900Y66800D02*
Y69900D01*
X124300Y65400D02*
X130200D01*
X122900Y66800D02*
X124300Y65400D01*
X130200D02*
X130986Y66186D01*
X122088Y70713D02*
X122900Y69900D01*
X120190Y70713D02*
X122088D01*
X120051Y70851D02*
X120190Y70713D01*
X120911Y66486D02*
X124047Y63350D01*
X120911Y66486D02*
Y67563D01*
X124047Y63350D02*
X126050D01*
X120051Y67702D02*
X120772D01*
X120911Y67563D01*
X138900Y51100D02*
X139868Y50131D01*
X141900Y83557D02*
X145628Y79828D01*
X141900Y83557D02*
Y112900D01*
X139868Y50131D02*
X158154D01*
X145628Y79828D02*
X148300D01*
X148274Y79728D02*
X169972D01*
X148237Y79765D02*
X148274Y79728D01*
X171737Y65683D02*
Y66746D01*
X172361Y67370D01*
Y77339D01*
X169972Y79728D02*
X172361Y77339D01*
X105987Y64661D02*
X106075Y64749D01*
X105987Y58587D02*
Y64661D01*
X105900Y58500D02*
X105987Y58587D01*
X50600Y159972D02*
X50700Y159872D01*
X50900D01*
X54788Y160300D02*
X54994Y160094D01*
X54788Y160300D02*
X54994Y160094D01*
X51328Y160300D02*
X54788D01*
X50900Y159872D02*
X51328Y160300D01*
X67500Y65100D02*
X69800Y62800D01*
X81600D01*
X86363Y67563D01*
X67500Y65100D02*
Y132120D01*
X61100Y138520D02*
X67500Y132120D01*
X86363Y67563D02*
X88810D01*
X84800Y68900D02*
Y69300D01*
X86351Y70851D01*
X88949D01*
X84305Y72426D02*
X88949D01*
X82800Y71200D02*
X83079D01*
X84305Y72426D01*
X88810Y67563D02*
X88949Y67702D01*
X86911Y37400D02*
Y40900D01*
X120051Y89749D02*
X131249D01*
X79272Y116828D02*
Y119700D01*
X82700Y113400D02*
X101400D01*
X79272Y116828D02*
X82700Y113400D01*
X101900Y101928D02*
X101998D01*
X105100Y105030D01*
Y109700D01*
X101400Y113400D02*
X105100Y109700D01*
X74890Y119255D02*
X75335Y119700D01*
X74890Y116000D02*
Y119255D01*
X112000Y100691D02*
Y110000D01*
X107571Y103471D02*
X107800Y103700D01*
X102925Y99892D02*
X105000Y101967D01*
Y102000D01*
X102925Y95851D02*
Y99892D01*
X104500Y98682D02*
X107571Y101754D01*
X104500Y95851D02*
Y98682D01*
X107571Y101754D02*
Y103471D01*
X58464Y49964D02*
X58500Y50000D01*
X54736Y49964D02*
X58464D01*
X54700Y49928D02*
X54736Y49964D01*
X109146Y100646D02*
X109500Y101000D01*
X106075Y98486D02*
X108234Y100646D01*
X106075Y95851D02*
Y98486D01*
X108234Y100646D02*
X109146D01*
X34418Y46767D02*
Y50218D01*
X35000Y50801D01*
Y52328D01*
X140200Y144800D02*
X141689Y146289D01*
X171212D01*
X172361Y145139D01*
Y135946D02*
Y145139D01*
X136884Y120384D02*
X137000Y120500D01*
X136884Y118884D02*
Y120384D01*
X134000Y114000D02*
X139000Y119000D01*
X137275Y130500D02*
X139000Y128775D01*
Y119000D02*
Y128775D01*
X132940Y114940D02*
X136884Y118884D01*
X167721Y104501D02*
Y108254D01*
X169769Y110301D01*
Y113054D01*
X132940Y101500D02*
Y114940D01*
X130940Y99500D02*
X132940Y101500D01*
X119271Y99500D02*
X130940D01*
X117098Y97328D02*
X119271Y99500D01*
X117098Y95851D02*
Y97328D01*
X134000Y92500D02*
Y114000D01*
X131249Y89749D02*
X134000Y92500D01*
X137000Y130500D02*
X137275D01*
X109363Y98054D02*
X112000Y100691D01*
X114300Y101300D02*
Y129900D01*
X110938Y97938D02*
X114300Y101300D01*
X109127Y135073D02*
X114300Y129900D01*
X115614Y101114D02*
Y149986D01*
X112513Y98013D02*
X115614Y101114D01*
X110506Y155094D02*
X115614Y149986D01*
X109224Y95851D02*
X109363Y95990D01*
Y98054D01*
X88810Y83588D02*
X88949Y83450D01*
X84700Y85400D02*
X86512Y83588D01*
X88810D01*
X6700Y29200D02*
Y32225D01*
X6755Y32280D01*
X6700Y46465D02*
Y49400D01*
X61100Y138520D02*
Y157800D01*
X101350Y95851D02*
Y101379D01*
X101900Y101928D01*
X112513Y95990D02*
Y98013D01*
X110799Y95851D02*
X110938Y95990D01*
Y97938D01*
X112374Y95851D02*
X112513Y95990D01*
X100006Y165094D02*
X100216Y165304D01*
X103510D01*
X100100Y160000D02*
X103500D01*
X100006Y155094D02*
X110506D01*
X100006Y160094D02*
X100100Y160000D01*
X54994Y160094D02*
X55088Y160000D01*
X58900D01*
X61100Y157800D01*
X104820Y135073D02*
X109127D01*
X104565Y135328D02*
X104820Y135073D01*
X177722Y60251D02*
X179514D01*
X179953Y60690D01*
X192326D02*
X193502Y61865D01*
X179953Y60690D02*
X192326D01*
X179953Y127353D02*
X192326D01*
X193502Y128528D01*
X193600D01*
X179514Y126913D02*
X179953Y127353D01*
X177722Y126913D02*
X179514D01*
X177446Y126637D02*
X177722Y126913D01*
X171737Y135322D02*
X172361Y135946D01*
X171737Y132346D02*
Y135322D01*
D16*
X50663Y81300D02*
Y81480D01*
X49172Y82972D02*
X50663Y81480D01*
X46350Y82922D02*
X46400Y82972D01*
X49172D01*
X42800Y82872D02*
X42850Y82922D01*
X46350D01*
X41500Y68177D02*
Y74772D01*
X30163Y67190D02*
X30515Y66839D01*
X40161D02*
X41500Y68177D01*
X30161Y70164D02*
X30163Y70162D01*
Y67190D02*
Y70162D01*
X30515Y66839D02*
X40161D01*
X41946Y75217D02*
X42044D01*
X42728Y75902D02*
Y76000D01*
X38988Y70965D02*
X40350Y72327D01*
X39743Y83300D02*
X40350Y82693D01*
X41500Y74772D02*
X41946Y75217D01*
X40350Y72327D02*
Y82693D01*
X42044Y75217D02*
X42728Y75902D01*
X37640Y70165D02*
Y70965D01*
X38988D01*
X42728Y76098D02*
X45219Y78589D01*
Y79378D01*
X46350D01*
X46286Y79314D02*
X46400Y79428D01*
X32100Y98400D02*
X33863Y96637D01*
Y87690D02*
Y96637D01*
X33723Y83300D02*
Y87550D01*
X33863Y87690D01*
X46350Y79378D02*
X46400Y79428D01*
X42850Y79378D02*
X45219D01*
X42800Y79328D02*
X42850Y79378D01*
X37972Y83300D02*
X39743D01*
X33614Y83191D02*
X33723Y83300D01*
X33614Y78721D02*
Y83191D01*
Y78721D02*
X33900Y78435D01*
X34428Y83202D02*
Y83300D01*
D19*
X101000Y21872D02*
D03*
Y18328D02*
D03*
X101100Y30072D02*
D03*
Y26528D02*
D03*
X194100Y116972D02*
D03*
Y113428D02*
D03*
Y50109D02*
D03*
Y46565D02*
D03*
X47184Y52241D02*
D03*
Y55784D02*
D03*
X194100Y132072D02*
D03*
X171300Y105228D02*
D03*
X157700Y140072D02*
D03*
X123900Y96472D02*
D03*
X194100Y65209D02*
D03*
X171300Y38565D02*
D03*
X157700Y73409D02*
D03*
X104565Y171000D02*
D03*
Y138872D02*
D03*
X101900Y105472D02*
D03*
X84400Y96100D02*
D03*
X50600Y156428D02*
D03*
X85100Y77972D02*
D03*
X46042Y27057D02*
D03*
X38700Y55872D02*
D03*
X35000D02*
D03*
X46400Y82972D02*
D03*
X42800Y82872D02*
D03*
X42363Y55843D02*
D03*
X148300Y79828D02*
D03*
Y83372D02*
D03*
X40800Y27128D02*
D03*
X54700Y53472D02*
D03*
X85100Y74428D02*
D03*
X104565Y174543D02*
D03*
X42363Y52300D02*
D03*
X35000Y52328D02*
D03*
X38700D02*
D03*
X25363Y75272D02*
D03*
X42800Y79328D02*
D03*
X46400Y79428D02*
D03*
X101900Y101928D02*
D03*
X123900Y92928D02*
D03*
X50600Y159972D02*
D03*
X104565Y135328D02*
D03*
X171300Y42109D02*
D03*
X157700Y69865D02*
D03*
X171300Y108772D02*
D03*
X157700Y136528D02*
D03*
X54700Y49928D02*
D03*
X30963Y47728D02*
D03*
X27400Y57972D02*
D03*
X46042Y30600D02*
D03*
X40800Y30672D02*
D03*
X27400Y54428D02*
D03*
X30963Y51272D02*
D03*
Y54457D02*
D03*
X84400Y92557D02*
D03*
X25363Y71728D02*
D03*
X194100Y61665D02*
D03*
X30963Y58000D02*
D03*
X194100Y128528D02*
D03*
D20*
X105262Y27600D02*
D03*
X111561D02*
D03*
X105250Y20800D02*
D03*
X111550D02*
D03*
D21*
X36650Y25000D02*
D03*
X23750D02*
D03*
D22*
X42428Y23300D02*
D03*
X45972D02*
D03*
X145128Y131814D02*
D03*
Y128214D02*
D03*
Y61550D02*
D03*
X119343Y60800D02*
D03*
X99609Y125800D02*
D03*
X87928Y99600D02*
D03*
X56222Y125800D02*
D03*
X86128Y62200D02*
D03*
X46272Y76000D02*
D03*
X58135Y46400D02*
D03*
X27220Y61400D02*
D03*
X59765Y125800D02*
D03*
X145128Y65150D02*
D03*
X96065Y125800D02*
D03*
X42728Y76000D02*
D03*
X34428Y83300D02*
D03*
X37972D02*
D03*
X148672Y61550D02*
D03*
Y65150D02*
D03*
Y128214D02*
D03*
Y131814D02*
D03*
X54591Y46400D02*
D03*
X115800Y60800D02*
D03*
X89672Y62200D02*
D03*
X91472Y99600D02*
D03*
X30763Y61400D02*
D03*
D23*
X27044Y31300D02*
D03*
X32556D02*
D03*
X27100Y36200D02*
D03*
X32612D02*
D03*
D24*
X48765Y34067D02*
D03*
X46796D02*
D03*
X42859D02*
D03*
X40890D02*
D03*
X38922D02*
D03*
X40890Y49028D02*
D03*
X44828D02*
D03*
X46796D02*
D03*
X48765D02*
D03*
X38922D02*
D03*
X44828Y34067D02*
D03*
X42859Y49028D02*
D03*
D25*
X36363Y36626D02*
D03*
Y38594D02*
D03*
Y40563D02*
D03*
Y42531D02*
D03*
Y44500D02*
D03*
X51324Y46468D02*
D03*
X36363D02*
D03*
X51324Y44500D02*
D03*
Y42531D02*
D03*
Y38594D02*
D03*
Y36626D02*
D03*
Y40563D02*
D03*
D26*
X43843Y41547D02*
D03*
D27*
X22303Y42240D02*
D03*
X14823D02*
D03*
X18563Y32358D02*
D03*
Y32359D02*
D03*
X14921Y56358D02*
D03*
X18661Y66240D02*
D03*
X22402Y56358D02*
D03*
D28*
X19204Y25400D02*
D03*
X10157Y85000D02*
D03*
X82057Y56900D02*
D03*
X12157Y25400D02*
D03*
X50496Y74100D02*
D03*
X89104Y56900D02*
D03*
X57543Y74100D02*
D03*
X17204Y85000D02*
D03*
D29*
X89470Y37400D02*
D03*
X70572D02*
D03*
X92620D02*
D03*
X67423D02*
D03*
D30*
X104500Y64749D02*
D03*
X113949D02*
D03*
X93476Y95851D02*
D03*
X91902Y64749D02*
D03*
X117098Y95851D02*
D03*
X109224D02*
D03*
X101350D02*
D03*
X104500D02*
D03*
X106075D02*
D03*
X102925D02*
D03*
X112374Y64749D02*
D03*
X96626Y95851D02*
D03*
X98201D02*
D03*
X99776D02*
D03*
X107650D02*
D03*
X113949D02*
D03*
X115524D02*
D03*
X107650Y64749D02*
D03*
X106075D02*
D03*
X102925D02*
D03*
X101350D02*
D03*
X117098D02*
D03*
X110799D02*
D03*
X109224D02*
D03*
X95051Y95851D02*
D03*
X115524Y64749D02*
D03*
X93476D02*
D03*
X91902Y95851D02*
D03*
X99776Y64749D02*
D03*
X98201D02*
D03*
X112374Y95851D02*
D03*
X96626Y64749D02*
D03*
X95051D02*
D03*
X110799Y95851D02*
D03*
D31*
X121700Y53800D02*
D03*
X76385Y67583D02*
D03*
X50000Y67500D02*
D03*
D32*
X198400Y137068D02*
D03*
Y131532D02*
D03*
Y113868D02*
D03*
Y108332D02*
D03*
X162300Y143731D02*
D03*
X198400Y70205D02*
D03*
Y64669D02*
D03*
Y47006D02*
D03*
Y41469D02*
D03*
X162300Y77069D02*
D03*
X198400Y102269D02*
D03*
X162300Y71005D02*
D03*
X198400Y53069D02*
D03*
Y76269D02*
D03*
Y58605D02*
D03*
Y35405D02*
D03*
X162300Y137669D02*
D03*
X198400Y119931D02*
D03*
Y143131D02*
D03*
Y125469D02*
D03*
D33*
X189000Y130900D02*
D03*
Y114700D02*
D03*
X154569Y107600D02*
D03*
X189000Y64037D02*
D03*
Y47837D02*
D03*
X154569Y40937D02*
D03*
X160632D02*
D03*
Y107600D02*
D03*
X182937Y64037D02*
D03*
Y47837D02*
D03*
Y130900D02*
D03*
Y114700D02*
D03*
D34*
X186500Y149398D02*
D03*
Y96302D02*
D03*
Y82535D02*
D03*
Y29439D02*
D03*
X58700Y100598D02*
D03*
Y87802D02*
D03*
X186500Y42235D02*
D03*
Y136602D02*
D03*
Y109098D02*
D03*
Y69739D02*
D03*
D35*
X169769Y132346D02*
D03*
X167800Y113054D02*
D03*
X169769Y65683D02*
D03*
X167800Y46391D02*
D03*
X161895D02*
D03*
Y113054D02*
D03*
X173705Y65683D02*
D03*
X171737D02*
D03*
X167800D02*
D03*
X165831D02*
D03*
X163863D02*
D03*
X161895D02*
D03*
X163863Y46391D02*
D03*
X165831D02*
D03*
X169769D02*
D03*
X171737D02*
D03*
X173705D02*
D03*
Y132346D02*
D03*
X171737D02*
D03*
X167800D02*
D03*
X165831D02*
D03*
X163863D02*
D03*
X161895D02*
D03*
X163863Y113054D02*
D03*
X165831D02*
D03*
X169769D02*
D03*
X171737D02*
D03*
X173705D02*
D03*
D37*
X177446Y122700D02*
D03*
X158154Y118763D02*
D03*
X177446Y56037D02*
D03*
X158154Y52100D02*
D03*
X177446Y128605D02*
D03*
Y116795D02*
D03*
Y61942D02*
D03*
Y50131D02*
D03*
X158154Y61942D02*
D03*
Y59974D02*
D03*
Y58005D02*
D03*
Y56037D02*
D03*
Y54068D02*
D03*
Y50131D02*
D03*
X177446Y52100D02*
D03*
Y54068D02*
D03*
Y58005D02*
D03*
Y59974D02*
D03*
X158154Y128605D02*
D03*
Y126637D02*
D03*
Y124669D02*
D03*
Y122700D02*
D03*
Y120731D02*
D03*
Y116795D02*
D03*
X177446Y118763D02*
D03*
Y120731D02*
D03*
Y124669D02*
D03*
Y126637D02*
D03*
D38*
X153000Y139856D02*
D03*
Y73193D02*
D03*
Y67681D02*
D03*
Y134344D02*
D03*
D39*
X110165Y166353D02*
D03*
Y173047D02*
D03*
D40*
X120051Y91324D02*
D03*
X88949Y75576D02*
D03*
X120051Y86599D02*
D03*
Y88174D02*
D03*
Y89749D02*
D03*
X88949Y74001D02*
D03*
Y83450D02*
D03*
X120051Y78725D02*
D03*
X88949Y80300D02*
D03*
Y78725D02*
D03*
Y77150D02*
D03*
Y81875D02*
D03*
X120051Y85024D02*
D03*
Y83450D02*
D03*
Y80300D02*
D03*
Y77150D02*
D03*
Y75576D02*
D03*
Y72426D02*
D03*
X88949Y85024D02*
D03*
Y86599D02*
D03*
Y88174D02*
D03*
Y89749D02*
D03*
Y91324D02*
D03*
X120051Y67702D02*
D03*
Y70851D02*
D03*
Y69276D02*
D03*
X88949D02*
D03*
X120051Y81875D02*
D03*
X88949Y92898D02*
D03*
X120051D02*
D03*
Y74001D02*
D03*
X88949Y72426D02*
D03*
Y67702D02*
D03*
Y70851D02*
D03*
D41*
X110461Y53117D02*
D03*
X96700Y107247D02*
D03*
X11200Y72196D02*
D03*
Y79243D02*
D03*
X96700Y100200D02*
D03*
X110461Y60165D02*
D03*
D42*
X112194Y44859D02*
D03*
X105500Y42300D02*
D03*
D43*
X90000Y175100D02*
D03*
X100006Y140094D02*
D03*
X90000Y130088D02*
D03*
X70000Y175100D02*
D03*
X60000D02*
D03*
X65000Y130088D02*
D03*
X60000D02*
D03*
X95000Y175100D02*
D03*
Y130088D02*
D03*
X100006Y155094D02*
D03*
Y160094D02*
D03*
X54994D02*
D03*
X100006Y135094D02*
D03*
Y170094D02*
D03*
X75000Y175100D02*
D03*
X100006Y165094D02*
D03*
X80000Y175100D02*
D03*
X85000D02*
D03*
X54994Y170094D02*
D03*
Y165094D02*
D03*
Y155094D02*
D03*
Y150094D02*
D03*
Y145094D02*
D03*
Y140094D02*
D03*
Y135094D02*
D03*
X70000Y130088D02*
D03*
X75000D02*
D03*
X80000D02*
D03*
X85000D02*
D03*
X100006Y145094D02*
D03*
Y150094D02*
D03*
X65000Y175100D02*
D03*
D44*
X102258Y120200D02*
D03*
X52672D02*
D03*
X59365D02*
D03*
X95565D02*
D03*
D45*
X80400Y81600D02*
D03*
Y75695D02*
D03*
D46*
X53500Y20357D02*
D03*
Y27443D02*
D03*
D47*
X37642Y78434D02*
D03*
D48*
X42587Y15800D02*
D03*
X35500D02*
D03*
D49*
X50663Y81300D02*
D03*
X26595Y49316D02*
D03*
X13721D02*
D03*
X63537Y81300D02*
D03*
D50*
X105500Y47418D02*
D03*
D51*
X81006Y37400D02*
D03*
X79037D02*
D03*
X75100D02*
D03*
X77069D02*
D03*
X86911D02*
D03*
X82974D02*
D03*
X84943D02*
D03*
X73132D02*
D03*
D52*
X75681Y74527D02*
D03*
Y77902D02*
D03*
D53*
X75700Y84276D02*
D03*
Y81324D02*
D03*
D54*
X8400Y64900D02*
D03*
D55*
X30161Y78434D02*
D03*
X37642Y70164D02*
D03*
X33902D02*
D03*
X30161D02*
D03*
X33902Y78434D02*
D03*
D56*
X45900Y98400D02*
D03*
X32100D02*
D03*
D57*
X170395Y70400D02*
D03*
X167206D02*
D03*
Y137100D02*
D03*
X170395D02*
D03*
D60*
X18761Y19200D02*
D03*
X21361Y72400D02*
D03*
X13839Y19200D02*
D03*
X16439Y72400D02*
D03*
D61*
X167800Y122700D02*
D03*
Y56037D02*
D03*
D64*
X104500Y80300D02*
D03*
D65*
X207226Y143764D02*
D03*
X207224Y76902D02*
D03*
D66*
X215100Y117780D02*
D03*
Y127622D02*
D03*
Y107937D02*
D03*
X215098Y41075D02*
D03*
Y50917D02*
D03*
Y60760D02*
D03*
D67*
X215100Y137465D02*
D03*
X215098Y70602D02*
D03*
D68*
X217560Y168305D02*
D03*
Y18699D02*
D03*
X8899Y168305D02*
D03*
D69*
X97021Y35136D02*
D03*
X63021D02*
D03*
D70*
X97021Y19388D02*
D03*
X63021D02*
D03*
D71*
X144928Y68737D02*
D03*
X75335Y119700D02*
D03*
X144928Y57882D02*
D03*
Y124545D02*
D03*
Y135400D02*
D03*
X79272Y119700D02*
D03*
X148865Y68737D02*
D03*
Y57882D02*
D03*
Y124545D02*
D03*
Y135400D02*
D03*
D72*
X83996Y159090D02*
D03*
Y146098D02*
D03*
X71004Y159090D02*
D03*
Y146098D02*
D03*
D73*
X6755Y32280D02*
D03*
X6755Y46410D02*
D03*
Y42473D02*
D03*
X6755Y36217D02*
D03*
D74*
X151200Y121700D02*
X151719D01*
X152719Y122700D02*
X158154D01*
X151719Y121700D02*
X152719Y122700D01*
X38630Y49396D02*
X38922Y49104D01*
Y49028D02*
Y49104D01*
X36404Y49396D02*
X38630D01*
X38922Y49028D02*
Y52106D01*
X38700Y52328D02*
X38922Y52106D01*
D75*
X115800Y58300D02*
Y60800D01*
X115524Y64749D02*
X115530Y64742D01*
Y61070D02*
Y64742D01*
Y61070D02*
X115800Y60800D01*
X47442Y56042D02*
X50942D01*
X51200Y56300D01*
X47184Y55784D02*
X47442Y56042D01*
X51200Y56300D02*
X51499Y56001D01*
X52072D01*
X54602Y53472D01*
X38700Y55872D02*
X38740Y55912D01*
Y58531D01*
X38780Y58571D01*
X36800Y30700D02*
X37130D01*
X40702Y27128D01*
X40800D01*
X141928Y68737D02*
X144928D01*
X112194Y44859D02*
X112214Y44879D01*
X116079D01*
X116100Y44900D01*
X143674Y130261D02*
X145128Y131715D01*
X143701Y129739D02*
X145128Y128312D01*
X115524Y91324D02*
X120051D01*
X114800Y90600D02*
X115524Y91324D01*
X104500Y80300D02*
X114800Y90600D01*
X104500Y80300D02*
X113949Y70851D01*
Y64749D02*
Y70851D01*
X141928Y61550D02*
X145128D01*
X93476Y91324D02*
X94200Y90600D01*
X104500Y80300D01*
X93476Y91324D02*
Y95851D01*
X88949Y75576D02*
X99776D01*
X94200Y70000D02*
X99776Y75576D01*
X91908Y64755D02*
Y67708D01*
X94200Y70000D01*
X91902Y64749D02*
X91908Y64755D01*
X46272Y75902D02*
Y76000D01*
X44872Y74502D02*
X46272Y75902D01*
X44872Y73299D02*
Y74502D01*
X44573Y73000D02*
X44872Y73299D01*
X85033Y74428D02*
X85454Y74007D01*
X123876Y92905D02*
X123888Y92917D01*
X126365D01*
X126376Y92905D01*
X120057D02*
X123876D01*
X120051Y92898D02*
X120057Y92905D01*
X84400Y90057D02*
Y92557D01*
X91472Y99600D02*
Y102100D01*
X84400Y92557D02*
X84735Y92892D01*
X88942D01*
X88949Y92898D01*
X91472Y99600D02*
X91895Y99176D01*
Y95858D02*
Y99176D01*
Y95858D02*
X91902Y95851D01*
X89672Y62200D02*
X89943Y61929D01*
X92689D01*
X93470Y62710D01*
Y64742D01*
X93476Y64749D01*
X75700Y84276D02*
Y86776D01*
X85454Y74007D02*
X88942D01*
X88949Y74001D01*
X161897Y37140D02*
Y46389D01*
X54602Y53472D02*
X54700D01*
X144883Y124500D02*
X144928Y124545D01*
X142500Y124500D02*
X144883D01*
X148300Y83372D02*
Y85800D01*
X161895Y46391D02*
X161897Y46389D01*
Y37140D02*
X161900Y37137D01*
X148844Y124567D02*
Y128042D01*
X148957Y124637D02*
X158123D01*
X141928Y57882D02*
X144928D01*
X141928Y65150D02*
X145128D01*
X142500Y135500D02*
X144828D01*
X144928Y135400D01*
X110461Y60165D02*
X111272D01*
X112368Y61261D01*
Y64742D01*
X112374Y64749D01*
X148865Y57882D02*
X158031D01*
X158154Y58005D01*
X148768Y58049D02*
X148844Y57974D01*
X148768Y58049D02*
Y61303D01*
X148844Y57904D02*
Y57974D01*
X148768Y61303D02*
X148844Y61379D01*
X165831Y132346D02*
Y135590D01*
X167206Y136964D01*
Y137100D01*
X170395Y136964D02*
Y137100D01*
X169317Y135886D02*
X170395Y136964D01*
X169317Y135886D02*
Y135886D01*
X167931Y134501D02*
X169317Y135886D01*
X167931Y132477D02*
Y134501D01*
X167800Y132346D02*
X167931Y132477D01*
X169766Y69635D02*
Y69772D01*
X167800Y65683D02*
X167879Y65762D01*
Y67748D01*
X169766Y69635D01*
Y69772D02*
X170395Y70400D01*
X165831Y65683D02*
Y69150D01*
X166558Y69752D02*
X167206Y70400D01*
X165831Y69150D02*
X166433Y69752D01*
X166558D01*
X153750Y126637D02*
X158154D01*
X148672Y131715D02*
X153750Y126637D01*
X95051Y95851D02*
Y99104D01*
X96147Y100200D01*
X96700D01*
X148672Y65150D02*
X148865Y65344D01*
Y68737D01*
X148672Y65052D02*
X153750Y59974D01*
X158154D01*
X148844Y131986D02*
Y135378D01*
D76*
X82007Y56850D02*
X82057Y56900D01*
X78550Y56850D02*
X82007D01*
X78500Y56800D02*
X78550Y56850D01*
X89104Y56900D02*
X89600Y57396D01*
X85600Y56900D02*
X89104D01*
X21361Y72400D02*
X21443Y72317D01*
X36075Y16375D02*
Y24425D01*
X36650Y25000D01*
X23750D02*
Y25600D01*
X36650Y25000D02*
Y25224D01*
X26744Y31000D02*
X27044Y31300D01*
X26744Y28594D02*
Y31000D01*
X23750Y25600D02*
X26744Y28594D01*
X32556Y27194D02*
Y31300D01*
Y27194D02*
X33727Y26023D01*
X35851D01*
X36650Y25224D01*
X35500Y15800D02*
X36075Y16375D01*
X42587Y15800D02*
X47508D01*
X32256Y30804D02*
Y31796D01*
X28152Y35704D02*
X32060Y31796D01*
X27100Y36004D02*
Y36200D01*
Y36004D02*
X27400Y35704D01*
X28152D01*
X67242Y36268D02*
X67423Y36449D01*
Y37400D01*
X92620Y36449D02*
X92801Y36268D01*
X92620Y36449D02*
Y37400D01*
X63021Y35136D02*
Y35373D01*
X97021Y35136D02*
Y35373D01*
X96127Y36268D02*
X97021Y35373D01*
X63021D02*
X63916Y36268D01*
X37631Y74375D02*
Y78426D01*
X37640Y78435D01*
X37620Y74365D02*
X37631Y74375D01*
X12157Y25400D02*
X15300D01*
X50496Y67996D02*
Y74100D01*
X50000Y67500D02*
X50496Y67996D01*
X50580Y81217D02*
X50663Y81300D01*
X50580Y74183D02*
Y81217D01*
X89672Y62133D02*
Y62200D01*
X89600Y57396D02*
Y62061D01*
X89672Y62133D01*
X60004Y116200D02*
Y130084D01*
X95004Y116200D02*
Y120200D01*
X95283Y120479D02*
Y129806D01*
X60000Y130088D02*
X60004Y130084D01*
X85313Y109650D02*
X85328Y109666D01*
Y109700D01*
X95000Y130088D02*
X95283Y129806D01*
X95004Y120200D02*
X95283Y120479D01*
X110165Y173047D02*
X110450Y173331D01*
X114296D01*
X114365Y173400D01*
X195400Y76069D02*
X198400D01*
D77*
X101048Y26476D02*
X101100Y26528D01*
X101048Y24296D02*
Y26476D01*
X100996Y24244D02*
X101048Y24296D01*
X100998Y21874D02*
X101000Y21872D01*
X100998Y21874D02*
Y24242D01*
X100996Y24244D02*
X100998Y24242D01*
X193517Y65126D02*
X193600Y65209D01*
X193517Y64724D02*
Y65126D01*
X192792Y64724D02*
X193517D01*
X192105Y64037D02*
X192792Y64724D01*
X189000Y64037D02*
X192105D01*
X192792Y131587D02*
X193517D01*
X193600Y131670D02*
Y132072D01*
X193517Y131587D02*
X193600Y131670D01*
X192105Y130900D02*
X192792Y131587D01*
X189000Y130900D02*
X192105D01*
X191997Y47576D02*
X192491D01*
X191736Y47837D02*
X191997Y47576D01*
X192491D02*
X193537Y46530D01*
X189000Y47837D02*
X191736D01*
X193537Y46300D02*
Y46530D01*
X35000Y55872D02*
Y58500D01*
X45986Y20914D02*
X46000Y20900D01*
X45986Y20914D02*
Y23286D01*
X45972Y23300D02*
X45986Y23286D01*
X48339Y25661D02*
X48600Y25400D01*
X47536Y25661D02*
X48339D01*
X46140Y27057D02*
X47536Y25661D01*
X46042Y27057D02*
X46140D01*
X43230Y24200D02*
Y33022D01*
X42428Y23300D02*
Y23398D01*
X43230Y24200D01*
X42859Y33394D02*
Y34067D01*
Y33394D02*
X43230Y33022D01*
X46013Y30050D02*
X47427D01*
X48677Y28800D01*
X48700D01*
X46401Y30340D02*
X46411Y30350D01*
X32612Y36200D02*
X33030Y36618D01*
X35682D01*
X46796Y31374D02*
Y34067D01*
X46361Y30939D02*
X46796Y31374D01*
X46042Y30600D02*
X46140D01*
X46013Y29091D02*
Y30050D01*
X53498Y27443D02*
X53500D01*
X51045Y29896D02*
X53498Y27443D01*
X51045Y29896D02*
Y31113D01*
X48772Y33386D02*
X51045Y31113D01*
X53500Y27443D02*
X55500Y29443D01*
Y33200D01*
X53500Y15435D02*
Y20357D01*
X33229Y40571D02*
X36355D01*
X36363Y40563D01*
X30300Y43500D02*
Y46658D01*
Y43500D02*
X33229Y40571D01*
X42363Y52300D02*
X42585Y52078D01*
X44828Y49028D02*
Y51435D01*
X42585Y52078D02*
X44185D01*
X44828Y51435D01*
X51332Y46461D02*
X54531D01*
X54591Y46400D01*
X47979Y40563D02*
X51324D01*
X46995Y41547D02*
X47979Y40563D01*
X51324Y36626D02*
Y38594D01*
X44828Y34067D02*
Y37435D01*
X51324Y42531D02*
Y44500D01*
X42859Y45683D02*
Y49028D01*
X51324Y46468D02*
X51332Y46461D01*
X42859Y45683D02*
X43845Y44697D01*
X43863Y38400D02*
X44828Y37435D01*
X30865Y47728D02*
X30963D01*
X30380Y47244D02*
X30865Y47728D01*
X30380Y46739D02*
Y47244D01*
X30300Y46658D02*
X30380Y46739D01*
X14823Y41021D02*
X16095Y39748D01*
X15303Y40003D02*
X16095Y39210D01*
X22303Y43171D02*
X22965Y43832D01*
X22303Y42241D02*
Y43171D01*
X22965Y43832D02*
X25664D01*
X14823Y41021D02*
Y42241D01*
Y43461D02*
X17994Y46632D01*
X14823Y42241D02*
Y43461D01*
X22403Y51296D02*
Y56359D01*
X21696Y50589D02*
X22403Y51296D01*
X20503Y50589D02*
X21696D01*
X17994Y48079D02*
X20503Y50589D01*
X17994Y46632D02*
Y48079D01*
X16095Y39210D02*
Y39748D01*
X26831Y45000D02*
X27200D01*
X25664Y43832D02*
X26831Y45000D01*
X85004Y171810D02*
Y175096D01*
X85000Y175100D02*
X85004Y175096D01*
X75000Y171810D02*
Y175100D01*
X121621Y53721D02*
X121700Y53800D01*
X116279Y53721D02*
X121621D01*
X116200Y53800D02*
X116279Y53721D01*
X58135Y46400D02*
Y46498D01*
X58619Y46983D01*
X59814D01*
X60131Y47300D01*
X60500D01*
X169769Y129483D02*
Y132346D01*
Y129483D02*
X171803Y127448D01*
X172549D01*
X172548Y122700D02*
X177446D01*
X172548Y122699D02*
X172548Y122700D01*
X171300Y102900D02*
Y105228D01*
X157809Y142572D02*
X158969Y143731D01*
X162300D01*
X157700Y140072D02*
Y142572D01*
X157439Y142311D02*
X157700Y142572D01*
X157809D01*
X155651Y142311D02*
X157439D01*
X153196Y139856D02*
X155651Y142311D01*
X153000Y139856D02*
X153196D01*
X145128Y131715D02*
Y131814D01*
X105765Y168500D02*
Y168869D01*
X105148Y169486D02*
X105765Y168869D01*
X106134Y168500D02*
X106418Y168216D01*
X105765Y168500D02*
X106134D01*
X104664Y171000D02*
X105148Y170516D01*
X104565Y171000D02*
X104664D01*
X105148Y169486D02*
Y170516D01*
X108303Y168216D02*
X110165Y166353D01*
X106418Y168216D02*
X108303D01*
X104583Y141383D02*
X104600Y141400D01*
X104583Y139356D02*
Y141383D01*
X158154Y118763D02*
X162237D01*
X145128Y128214D02*
Y128312D01*
X162237Y118763D02*
X163050Y117950D01*
X167800Y113054D02*
Y117950D01*
X154180Y107543D02*
X154237Y107600D01*
X151206Y107543D02*
X154180D01*
X143261Y130261D02*
X143674D01*
X143000Y130000D02*
X143261Y130261D01*
Y129739D02*
X143701D01*
X143000Y130000D02*
X143261Y129739D01*
X126614Y96386D02*
X126700Y96300D01*
X123986Y96386D02*
X126614D01*
X123900Y96472D02*
X123986Y96386D01*
X198400Y67437D02*
Y70205D01*
Y64669D02*
Y67437D01*
X169769Y56205D02*
Y65683D01*
X168467Y56205D02*
X169769D01*
X168298Y56037D02*
X168467Y56205D01*
X167800Y56037D02*
X168298D01*
X164361Y52100D02*
X168298Y56037D01*
X177446D01*
X169769Y55835D02*
X171097D01*
X167800Y52539D02*
X168099Y52838D01*
X171300Y35737D02*
Y38565D01*
X157700Y75709D02*
X159060Y77069D01*
X162300D01*
X157700Y73409D02*
Y75709D01*
X157439Y75448D02*
X157700Y75709D01*
X155451Y75448D02*
X157439D01*
X153000Y73193D02*
X153196D01*
X155451Y75448D01*
X167800Y51287D02*
Y52539D01*
Y46391D02*
Y51287D01*
X158154Y52100D02*
X164361D01*
X151568Y40937D02*
X154569D01*
X119343Y60800D02*
X119352Y60791D01*
X121861D02*
X121870Y60783D01*
X119352Y60791D02*
X121861D01*
X110461Y53117D02*
Y56665D01*
X103983Y139356D02*
X104583D01*
X103983D02*
X104467Y138872D01*
X101173Y138927D02*
X101704D01*
X100006Y140094D02*
X101173Y138927D01*
X101759Y138872D02*
X104467D01*
X101704Y138927D02*
X101759Y138872D01*
X104467D02*
X104565D01*
X100880Y125217D02*
X101597Y124500D01*
X100093Y125217D02*
X100880D01*
X99609Y125702D02*
Y125800D01*
Y125702D02*
X100093Y125217D01*
X90000Y175100D02*
X90004Y175096D01*
Y171810D02*
Y175096D01*
X90000Y126588D02*
Y130088D01*
X101597Y120861D02*
X102258Y120200D01*
X101597Y120861D02*
Y124500D01*
X101317Y104987D02*
X101802Y105472D01*
X101900D01*
X101317Y104889D02*
Y104987D01*
X100132Y103704D02*
X101317Y104889D01*
X96700Y103704D02*
Y107247D01*
Y103704D02*
X100132D01*
X87878Y99550D02*
X87928Y99600D01*
X84550Y99550D02*
X87878D01*
X85100Y80472D02*
Y80972D01*
X70000Y171810D02*
Y175100D01*
X59965Y175065D02*
X60000Y175100D01*
X59965Y171810D02*
Y175065D01*
X50580Y153995D02*
X50590Y154005D01*
Y156418D01*
X50600Y156428D01*
X84500Y99500D02*
X84550Y99550D01*
X84450Y99450D02*
X84500Y99500D01*
X65000Y126588D02*
Y130088D01*
X84450Y96150D02*
Y99450D01*
X84400Y96100D02*
X84450Y96150D01*
X80400Y81600D02*
Y85100D01*
X56222Y125702D02*
Y125800D01*
X55738Y125217D02*
X56222Y125702D01*
X54451Y125217D02*
X55738D01*
X53834Y124600D02*
X54451Y125217D01*
X53834Y121361D02*
Y124600D01*
X52672Y120200D02*
X53834Y121361D01*
X10157Y85000D02*
X13700D01*
X85100Y77972D02*
Y80472D01*
X84128Y62200D02*
X86128D01*
X15300Y25031D02*
Y25400D01*
X13839Y23571D02*
X15300Y25031D01*
X13839Y19200D02*
Y23571D01*
X75681Y68286D02*
Y74527D01*
Y68286D02*
X76385Y67583D01*
X75681Y74527D02*
X79235D01*
X81666Y74428D02*
X85033D01*
X80400Y75695D02*
X81666Y74428D01*
X79235Y74527D02*
X80400Y75693D01*
X75681Y77902D02*
X75691Y77911D01*
Y81314D01*
X75700Y81324D01*
X160132Y40937D02*
Y41016D01*
X161895Y42779D01*
Y104306D02*
Y113054D01*
X160300Y107600D02*
X161552Y106348D01*
X27200Y45000D02*
Y48504D01*
X27400Y50100D02*
Y54428D01*
X194900Y102269D02*
X198400D01*
X82150Y109650D02*
X85313D01*
X161895Y42779D02*
Y46391D01*
X144928Y135400D02*
X144928Y135400D01*
X33901Y70166D02*
X33901Y70166D01*
X33901Y74234D02*
X33901Y74234D01*
Y70166D02*
Y74234D01*
X100240Y135328D02*
X104565D01*
X100006Y135094D02*
X100240Y135328D01*
X162300Y137669D02*
X162379D01*
X163863Y136184D01*
Y132346D02*
Y136184D01*
X27302Y57972D02*
X27400D01*
X25689Y56359D02*
X27302Y57972D01*
X22403Y56359D02*
X25689D01*
X6755Y36217D02*
X6755Y36217D01*
X6755Y36217D02*
Y39445D01*
X6755Y42473D02*
X6755Y42473D01*
Y39445D02*
Y42473D01*
X171737Y109209D02*
Y113054D01*
X158123Y124637D02*
X158154Y124669D01*
X155595Y128605D02*
X158154D01*
X153000Y131200D02*
X155595Y128605D01*
X158954Y132346D02*
X161895D01*
X157700Y133600D02*
Y136528D01*
Y133600D02*
X158954Y132346D01*
X153000Y131200D02*
Y134344D01*
X171300Y108772D02*
X171737Y109209D01*
X30963Y51272D02*
Y54457D01*
X30949Y54443D02*
X30963Y54457D01*
X27414Y54443D02*
X30949D01*
X27400Y54428D02*
X27414Y54443D01*
X14961Y60461D02*
X15000Y60500D01*
X14961Y56398D02*
Y60461D01*
X14923Y56359D02*
X14961Y56398D01*
X25363Y69228D02*
Y71728D01*
X148844Y124567D02*
X148865Y124545D01*
X148957Y124637D01*
X148672Y128214D02*
X148844Y128042D01*
X148672Y65150D02*
X148768Y65247D01*
X171737Y42546D02*
Y46391D01*
X171300Y42109D02*
X171737Y42546D01*
X148672Y61550D02*
X148844Y61379D01*
Y57904D02*
X148865Y57882D01*
X162300Y71005D02*
X162379D01*
X158354Y65683D02*
X161895D01*
X163863D02*
Y69521D01*
X162379Y71005D02*
X163863Y69521D01*
X157700Y66337D02*
X158354Y65683D01*
X153000Y64637D02*
Y67681D01*
X157700Y66337D02*
Y69865D01*
X155700Y61937D02*
X158149D01*
X153000Y64637D02*
X155700Y61937D01*
X158149D02*
X158154Y61942D01*
X30763Y61400D02*
X30863Y61300D01*
Y58100D02*
Y61300D01*
Y58100D02*
X30963Y58000D01*
X148672Y131814D02*
X148844Y131986D01*
Y135378D02*
X148865Y135400D01*
D78*
X189000Y114700D02*
X191736D01*
X191959Y114478D02*
X192952D01*
X194000Y113046D02*
Y113430D01*
X192952Y114478D02*
X194000Y113430D01*
X191736Y114700D02*
X191959Y114478D01*
X21443Y72317D02*
X21827Y71933D01*
Y69473D02*
Y71933D01*
Y69473D02*
X22050Y69250D01*
X198400Y134300D02*
Y136669D01*
Y131532D02*
Y134300D01*
Y131263D02*
Y131532D01*
Y107931D02*
Y108332D01*
Y111100D02*
Y113568D01*
Y108332D02*
Y111100D01*
Y41269D02*
Y41469D01*
Y44287D02*
Y46905D01*
Y41469D02*
Y44287D01*
X195400Y143131D02*
X198400D01*
D79*
X214691Y117780D02*
X215100D01*
X212539Y119931D02*
X214691Y117780D01*
X212537Y125469D02*
X214691Y127622D01*
X198400Y125469D02*
X212537D01*
X214691Y127622D02*
X215100D01*
X198400Y119931D02*
X212539D01*
X198400Y53069D02*
X212538D01*
X214689Y50917D01*
X215098D01*
X198400Y58605D02*
X212535D01*
X214689Y60760D01*
X215098D01*
D80*
X131500Y88145D02*
X133800Y85844D01*
Y52156D02*
Y85844D01*
X129128Y47484D02*
X133800Y52156D01*
X132284Y52784D02*
Y85216D01*
X130872Y86628D02*
X132284Y85216D01*
X128500Y49000D02*
X132284Y52784D01*
X120051Y88174D02*
X120080Y88145D01*
X131500D01*
X120051Y86599D02*
X120080Y86628D01*
X130872D01*
X107745Y44101D02*
X111128Y47484D01*
X105803Y44101D02*
X107745D01*
X111128Y47484D02*
X129128D01*
X105803Y45617D02*
X107117D01*
X110500Y49000D01*
X128500D01*
X105500Y43798D02*
X105803Y44101D01*
X105500Y45920D02*
X105803Y45617D01*
X83651D02*
X105198D01*
X81232Y37626D02*
Y43198D01*
X83651Y45617D01*
X105500Y45920D02*
Y47418D01*
X105198Y45617D02*
X105500Y45920D01*
X81006Y37400D02*
X81232Y37626D01*
X105500Y42300D02*
Y43798D01*
X105198Y44101D02*
X105500Y43798D01*
X82748Y42570D02*
X84279Y44101D01*
X82748Y37626D02*
Y42570D01*
X84279Y44101D02*
X105198D01*
X82748Y37626D02*
X82974Y37400D01*
X79369Y34503D02*
Y37068D01*
X79672Y34200D02*
X82339D01*
X82642Y34503D02*
Y37068D01*
X82339Y34200D02*
X82642Y34503D01*
X79369D02*
X79672Y34200D01*
X80371Y40600D02*
X80673Y40297D01*
X77401D02*
X77703Y40600D01*
X77401Y37732D02*
Y40297D01*
X77703Y40600D02*
X80371D01*
X80673Y37732D02*
Y40297D01*
Y37732D02*
X81006Y37400D01*
X77069D02*
X77401Y37732D01*
D81*
X42331Y55875D02*
X42363Y55843D01*
X42331Y55875D02*
Y58669D01*
X42300Y58700D02*
X42331Y58669D01*
X20500Y61400D02*
X27220D01*
X18921Y62980D02*
X20500Y61400D01*
X18921Y62980D02*
Y65983D01*
X18663Y66241D02*
X18921Y65983D01*
X184789Y136602D02*
X186500D01*
X183500Y137892D02*
Y140402D01*
X189500Y137892D02*
Y140402D01*
X186500Y136602D02*
X188211D01*
X183500Y137892D02*
X184789Y136602D01*
X188211D02*
X189500Y137892D01*
D82*
X165300Y37400D02*
Y42900D01*
X163863Y44337D02*
Y46391D01*
Y44337D02*
X165300Y42900D01*
X168500D02*
X169529Y43929D01*
X168500Y37200D02*
Y42900D01*
X169529Y43929D02*
Y46152D01*
X165000Y37100D02*
X165300Y37400D01*
X169529Y46152D02*
X169769Y46391D01*
X164600Y104631D02*
X164810Y104421D01*
X164600Y104631D02*
Y109822D01*
X163863Y110559D02*
X164600Y109822D01*
X163863Y110559D02*
Y113054D01*
D83*
X151500Y55100D02*
D03*
X149100Y52600D02*
D03*
X151200Y118600D02*
D03*
Y121700D02*
D03*
X130200Y75500D02*
D03*
X138900Y63400D02*
D03*
X128060Y83644D02*
D03*
X115800Y58300D02*
D03*
X78500Y56800D02*
D03*
X85600Y56900D02*
D03*
X103800Y61000D02*
D03*
X100996Y24244D02*
D03*
X108585Y20741D02*
D03*
X108601Y27613D02*
D03*
X191736Y64037D02*
D03*
Y130900D02*
D03*
Y114700D02*
D03*
Y47837D02*
D03*
X50900Y52200D02*
D03*
X51200Y56300D02*
D03*
X38780Y58571D02*
D03*
X35000Y58500D02*
D03*
X22050Y69250D02*
D03*
X22700Y16800D02*
D03*
X24800Y19000D02*
D03*
X47508Y15800D02*
D03*
X48600Y25400D02*
D03*
X46000Y20900D02*
D03*
X48700Y28800D02*
D03*
X36800Y30700D02*
D03*
X36122Y33820D02*
D03*
X55500Y33200D02*
D03*
X53500Y15435D02*
D03*
X27100Y16800D02*
D03*
X25000Y14600D02*
D03*
X69072Y32900D02*
D03*
X72072D02*
D03*
X87970D02*
D03*
X90970D02*
D03*
X33100Y44400D02*
D03*
X142000Y119800D02*
D03*
X93500Y59500D02*
D03*
X95300Y57200D02*
D03*
X97400Y55100D02*
D03*
Y51500D02*
D03*
X96100Y169900D02*
D03*
X82765Y168700D02*
D03*
X85004Y171810D02*
D03*
X75000D02*
D03*
X148237Y77000D02*
D03*
X125300Y79500D02*
D03*
X127800Y77401D02*
D03*
X126200Y74600D02*
D03*
X127793Y71385D02*
D03*
X128932Y68346D02*
D03*
X125300Y67600D02*
D03*
X126050Y63350D02*
D03*
X141928Y68737D02*
D03*
X141900Y112900D02*
D03*
X105900Y58500D02*
D03*
X116200Y53800D02*
D03*
X116100Y44900D02*
D03*
X64442Y41200D02*
D03*
X67443D02*
D03*
X60500Y47300D02*
D03*
X92600Y41200D02*
D03*
X95600D02*
D03*
X198400Y134300D02*
D03*
X189500Y152898D02*
D03*
X186500D02*
D03*
X183500D02*
D03*
X172549Y127448D02*
D03*
X172548Y122699D02*
D03*
X167799Y127448D02*
D03*
Y122698D02*
D03*
X198400Y111100D02*
D03*
X172548Y117949D02*
D03*
X167800Y117950D02*
D03*
X183500Y92802D02*
D03*
X189500D02*
D03*
X186500D02*
D03*
X171300Y102900D02*
D03*
X157700Y142572D02*
D03*
X143000Y130000D02*
D03*
X105765Y168500D02*
D03*
X163051Y122698D02*
D03*
Y127448D02*
D03*
X163050Y117950D02*
D03*
X151206Y107543D02*
D03*
X126700Y96300D02*
D03*
X126000Y103500D02*
D03*
X198400Y67437D02*
D03*
X189500Y86135D02*
D03*
X186500D02*
D03*
X183500D02*
D03*
X172549Y60785D02*
D03*
X167799D02*
D03*
X172548Y56036D02*
D03*
X167799Y56035D02*
D03*
X198400Y44287D02*
D03*
X172548Y51286D02*
D03*
X167800Y51287D02*
D03*
X183500Y26037D02*
D03*
X189500D02*
D03*
X186500D02*
D03*
X171300Y35737D02*
D03*
X157700Y75709D02*
D03*
X163051Y60785D02*
D03*
X114800Y90600D02*
D03*
Y80300D02*
D03*
X141928Y61550D02*
D03*
X121870Y60783D02*
D03*
X114800Y70000D02*
D03*
X163051Y56035D02*
D03*
X163050Y51287D02*
D03*
X151568Y40937D02*
D03*
X110461Y56665D02*
D03*
X104600Y141400D02*
D03*
X90004Y171810D02*
D03*
X87600Y162900D02*
D03*
Y155700D02*
D03*
X90000Y126588D02*
D03*
X87600Y149908D02*
D03*
Y142708D02*
D03*
X101597Y124500D02*
D03*
X104500Y80300D02*
D03*
Y90600D02*
D03*
X96700Y103704D02*
D03*
X84500Y99500D02*
D03*
X94200Y90600D02*
D03*
Y80300D02*
D03*
X85100Y80472D02*
D03*
X80400Y162900D02*
D03*
X74608D02*
D03*
X84000Y159300D02*
D03*
X74608Y155700D02*
D03*
X71004Y159090D02*
D03*
X70000Y171810D02*
D03*
X80400Y155700D02*
D03*
X74608Y149908D02*
D03*
X84000Y146308D02*
D03*
X80400Y149908D02*
D03*
X71008Y146308D02*
D03*
X67408Y149908D02*
D03*
Y142708D02*
D03*
Y162900D02*
D03*
X59965Y171810D02*
D03*
X67408Y155700D02*
D03*
X50580Y153995D02*
D03*
X80400Y142708D02*
D03*
X74608D02*
D03*
X65000Y126588D02*
D03*
X80400Y85100D02*
D03*
X62100Y94100D02*
D03*
Y97400D02*
D03*
X53834Y124600D02*
D03*
X58800Y97395D02*
D03*
X13700Y85000D02*
D03*
X104500Y70000D02*
D03*
X94200D02*
D03*
X84128Y62200D02*
D03*
X46995Y41547D02*
D03*
Y44697D02*
D03*
X46969Y38427D02*
D03*
X44573Y73000D02*
D03*
X37620Y74365D02*
D03*
X43845Y44697D02*
D03*
X43843Y41547D02*
D03*
X43863Y38400D02*
D03*
X40695Y38402D02*
D03*
Y41547D02*
D03*
Y44697D02*
D03*
X15300Y25400D02*
D03*
X42300Y58700D02*
D03*
X54550Y72500D02*
D03*
Y75500D02*
D03*
X60550D02*
D03*
Y72500D02*
D03*
X84800Y68900D02*
D03*
X82800Y71200D02*
D03*
X86911Y40900D02*
D03*
X57824Y42531D02*
D03*
X126376Y92905D02*
D03*
X84400Y90057D02*
D03*
X91472Y102100D02*
D03*
X75700Y86776D02*
D03*
X112000Y110000D02*
D03*
X107800Y103700D02*
D03*
X105000Y102000D02*
D03*
X58500Y50000D02*
D03*
X109500Y101000D02*
D03*
X36404Y49396D02*
D03*
X95004Y116200D02*
D03*
X74890Y116000D02*
D03*
X27200Y45000D02*
D03*
X13800Y67200D02*
D03*
X177499Y37735D02*
D03*
X174699Y37835D02*
D03*
X177499Y35035D02*
D03*
X177500Y74337D02*
D03*
X174700Y74237D02*
D03*
X177500Y77037D02*
D03*
X137000Y120500D02*
D03*
X142500Y124500D02*
D03*
X148300Y85800D02*
D03*
X168500Y37200D02*
D03*
X165000Y37100D02*
D03*
X161900Y37137D02*
D03*
X189500Y140202D02*
D03*
X186500D02*
D03*
X183500D02*
D03*
Y105598D02*
D03*
X186500Y105598D02*
D03*
X189500Y105598D02*
D03*
X177500Y143700D02*
D03*
X174700Y140900D02*
D03*
X177500Y141000D02*
D03*
X195400Y143131D02*
D03*
X177500Y104400D02*
D03*
X174700Y104500D02*
D03*
X167721Y104501D02*
D03*
X164810Y104421D02*
D03*
X194900Y102269D02*
D03*
X177500Y101700D02*
D03*
X126000Y137000D02*
D03*
X137000Y130500D02*
D03*
X141928Y57882D02*
D03*
Y65150D02*
D03*
X60004Y116200D02*
D03*
X82150Y109650D02*
D03*
X161900Y104300D02*
D03*
X114365Y173400D02*
D03*
X142500Y135500D02*
D03*
X84700Y85400D02*
D03*
X6700Y29200D02*
D03*
X33901Y74234D02*
D03*
X6700Y49400D02*
D03*
X18793Y81987D02*
D03*
X189500Y38837D02*
D03*
X183500D02*
D03*
X186500D02*
D03*
X183500Y73337D02*
D03*
X186500D02*
D03*
X189500D02*
D03*
X15693Y81987D02*
D03*
X20193Y79187D02*
D03*
X16993D02*
D03*
X103500Y160000D02*
D03*
X103510Y165304D02*
D03*
X123918Y82400D02*
D03*
X16356Y38950D02*
D03*
X6755Y39445D02*
D03*
X15000Y60500D02*
D03*
X25363Y69228D02*
D03*
X195400Y35206D02*
D03*
Y76069D02*
D03*
M02*
