G04*
G04 #@! TF.GenerationSoftware,Altium Limited,Altium Designer,26.8.1 (31)*
G04*
G04 Layer_Color=128*
G04 Board_Origin=0|0*
%FSLAX25Y25*%
%MOIN*%
G70*
G04*
G04 #@! TF.SameCoordinates,D1305378-CED7-41CA-A8E7-99A2C117E124*
G04*
G04*
G04 #@! TF.FilePolarity,Positive*
G04*
G01*
G75*
%ADD89C,0.00500*%
D89*
X205061Y143764D02*
X209391D01*
X207226Y141598D02*
Y145929D01*
X213328Y117780D02*
X216872D01*
X215100Y116008D02*
Y119551D01*
X213328Y137465D02*
X216872D01*
X215100Y135693D02*
Y139236D01*
X213328Y127622D02*
X216872D01*
X215100Y125850D02*
Y129394D01*
X213328Y107937D02*
X216872D01*
X215100Y106165D02*
Y109709D01*
X213131Y168305D02*
X221990D01*
X217560Y163876D02*
Y172734D01*
X213131Y18699D02*
X221990D01*
X217560Y14270D02*
Y23128D01*
X4470Y168305D02*
X13328D01*
X8899Y163876D02*
Y172734D01*
X95840Y35136D02*
X98202D01*
X97021Y33955D02*
Y36317D01*
X95840Y19388D02*
X98202D01*
X97021Y18207D02*
Y20569D01*
X61840Y19388D02*
X64202D01*
X63021Y18207D02*
Y20569D01*
X61840Y35136D02*
X64202D01*
X63021Y33955D02*
Y36317D01*
X205059Y76902D02*
X209390D01*
X207224Y74736D02*
Y79067D01*
X213327Y41075D02*
X216870D01*
X215098Y39303D02*
Y42846D01*
X213327Y70602D02*
X216870D01*
X215098Y68831D02*
Y72374D01*
X213327Y50917D02*
X216870D01*
X215098Y49146D02*
Y52689D01*
X213327Y60760D02*
X216870D01*
X215098Y58988D02*
Y62532D01*
X150909Y55100D02*
X152091D01*
X151500Y54510D02*
Y55690D01*
X148509Y52600D02*
X149691D01*
X149100Y52009D02*
Y53190D01*
X150609Y118600D02*
X151791D01*
X151200Y118009D02*
Y119191D01*
X150609Y121700D02*
X151791D01*
X151200Y121109D02*
Y122291D01*
X129609Y75500D02*
X130791D01*
X130200Y74910D02*
Y76091D01*
X138309Y63400D02*
X139491D01*
X138900Y62809D02*
Y63990D01*
X127470Y83644D02*
X128651D01*
X128060Y83054D02*
Y84235D01*
X115209Y58300D02*
X116391D01*
X115800Y57709D02*
Y58890D01*
X77909Y56800D02*
X79090D01*
X78500Y56209D02*
Y57390D01*
X85009Y56900D02*
X86191D01*
X85600Y56309D02*
Y57490D01*
X103209Y61000D02*
X104391D01*
X103800Y60409D02*
Y61590D01*
X100405Y24244D02*
X101586D01*
X100996Y23653D02*
Y24834D01*
X107994Y20741D02*
X109175D01*
X108585Y20151D02*
Y21332D01*
X108011Y27613D02*
X109192D01*
X108601Y27022D02*
Y28204D01*
X191146Y64037D02*
X192327D01*
X191736Y63446D02*
Y64628D01*
X191146Y130900D02*
X192327D01*
X191736Y130309D02*
Y131491D01*
X191146Y114700D02*
X192327D01*
X191736Y114109D02*
Y115291D01*
X191146Y47837D02*
X192327D01*
X191736Y47247D02*
Y48428D01*
X50309Y52200D02*
X51490D01*
X50900Y51609D02*
Y52790D01*
X50609Y56300D02*
X51790D01*
X51200Y55709D02*
Y56890D01*
X38190Y58571D02*
X39371D01*
X38780Y57981D02*
Y59162D01*
X34409Y58500D02*
X35591D01*
X35000Y57910D02*
Y59091D01*
X21459Y69250D02*
X22640D01*
X22050Y68660D02*
Y69841D01*
X22109Y16800D02*
X23291D01*
X22700Y16209D02*
Y17391D01*
X24209Y19000D02*
X25390D01*
X24800Y18409D02*
Y19590D01*
X46917Y15800D02*
X48098D01*
X47508Y15210D02*
Y16390D01*
X48009Y25400D02*
X49191D01*
X48600Y24810D02*
Y25991D01*
X45409Y20900D02*
X46591D01*
X46000Y20310D02*
Y21490D01*
X48109Y28800D02*
X49291D01*
X48700Y28209D02*
Y29391D01*
X36209Y30700D02*
X37391D01*
X36800Y30109D02*
Y31291D01*
X35531Y33820D02*
X36712D01*
X36122Y33229D02*
Y34410D01*
X54909Y33200D02*
X56090D01*
X55500Y32609D02*
Y33791D01*
X52909Y15435D02*
X54090D01*
X53500Y14845D02*
Y16026D01*
X26509Y16800D02*
X27691D01*
X27100Y16209D02*
Y17391D01*
X24409Y14600D02*
X25591D01*
X25000Y14009D02*
Y15191D01*
X68482Y32900D02*
X69663D01*
X69072Y32309D02*
Y33491D01*
X71482Y32900D02*
X72663D01*
X72072Y32309D02*
Y33491D01*
X87379Y32900D02*
X88561D01*
X87970Y32309D02*
Y33491D01*
X90380Y32900D02*
X91561D01*
X90970Y32309D02*
Y33491D01*
X32509Y44400D02*
X33691D01*
X33100Y43809D02*
Y44991D01*
X141409Y119800D02*
X142591D01*
X142000Y119209D02*
Y120391D01*
X92909Y59500D02*
X94090D01*
X93500Y58909D02*
Y60091D01*
X94709Y57200D02*
X95890D01*
X95300Y56609D02*
Y57790D01*
X96810Y55100D02*
X97991D01*
X97400Y54510D02*
Y55690D01*
X96810Y51500D02*
X97991D01*
X97400Y50909D02*
Y52091D01*
X95509Y169900D02*
X96690D01*
X96100Y169309D02*
Y170491D01*
X82175Y168700D02*
X83356D01*
X82765Y168109D02*
Y169291D01*
X84413Y171810D02*
X85594D01*
X85004Y171219D02*
Y172400D01*
X74410Y171810D02*
X75590D01*
X75000Y171219D02*
Y172400D01*
X147646Y77000D02*
X148828D01*
X148237Y76410D02*
Y77591D01*
X124709Y79500D02*
X125891D01*
X125300Y78909D02*
Y80090D01*
X127209Y77401D02*
X128391D01*
X127800Y76811D02*
Y77992D01*
X125609Y74600D02*
X126791D01*
X126200Y74010D02*
Y75191D01*
X127202Y71385D02*
X128383D01*
X127793Y70795D02*
Y71976D01*
X128342Y68346D02*
X129523D01*
X128932Y67756D02*
Y68937D01*
X124709Y67600D02*
X125891D01*
X125300Y67010D02*
Y68190D01*
X125459Y63350D02*
X126641D01*
X126050Y62760D02*
Y63941D01*
X141338Y68737D02*
X142519D01*
X141928Y68147D02*
Y69328D01*
X141309Y112900D02*
X142491D01*
X141900Y112309D02*
Y113491D01*
X105309Y58500D02*
X106491D01*
X105900Y57910D02*
Y59091D01*
X115609Y53800D02*
X116791D01*
X116200Y53210D02*
Y54391D01*
X115509Y44900D02*
X116691D01*
X116100Y44309D02*
Y45491D01*
X63852Y41200D02*
X65033D01*
X64442Y40609D02*
Y41791D01*
X66852Y41200D02*
X68033D01*
X67443Y40609D02*
Y41791D01*
X59909Y47300D02*
X61090D01*
X60500Y46709D02*
Y47891D01*
X92010Y41200D02*
X93190D01*
X92600Y40609D02*
Y41791D01*
X95009Y41200D02*
X96191D01*
X95600Y40609D02*
Y41791D01*
X197809Y134300D02*
X198991D01*
X198400Y133709D02*
Y134891D01*
X188909Y152898D02*
X190091D01*
X189500Y152307D02*
Y153488D01*
X185909Y152898D02*
X187091D01*
X186500Y152307D02*
Y153488D01*
X182909Y152898D02*
X184091D01*
X183500Y152307D02*
Y153488D01*
X171959Y127448D02*
X173140D01*
X172549Y126858D02*
Y128039D01*
X171957Y122699D02*
X173138D01*
X172548Y122109D02*
Y123290D01*
X167209Y127448D02*
X168390D01*
X167799Y126858D02*
Y128039D01*
X167209Y122698D02*
X168390D01*
X167799Y122108D02*
Y123289D01*
X197809Y111100D02*
X198991D01*
X198400Y110509D02*
Y111691D01*
X171957Y117949D02*
X173138D01*
X172548Y117359D02*
Y118540D01*
X167209Y117950D02*
X168391D01*
X167800Y117359D02*
Y118541D01*
X182909Y92802D02*
X184091D01*
X183500Y92212D02*
Y93393D01*
X188909Y92802D02*
X190091D01*
X189500Y92212D02*
Y93393D01*
X185909Y92802D02*
X187091D01*
X186500Y92212D02*
Y93393D01*
X170709Y102900D02*
X171891D01*
X171300Y102310D02*
Y103491D01*
X157109Y142572D02*
X158291D01*
X157700Y141981D02*
Y143162D01*
X142409Y130000D02*
X143591D01*
X143000Y129409D02*
Y130591D01*
X105175Y168500D02*
X106356D01*
X105765Y167909D02*
Y169091D01*
X162460Y122698D02*
X163641D01*
X163051Y122107D02*
Y123288D01*
X162460Y127448D02*
X163641D01*
X163051Y126857D02*
Y128038D01*
X162459Y117950D02*
X163641D01*
X163050Y117359D02*
Y118541D01*
X150616Y107543D02*
X151797D01*
X151206Y106952D02*
Y108133D01*
X126109Y96300D02*
X127291D01*
X126700Y95710D02*
Y96890D01*
X125409Y103500D02*
X126591D01*
X126000Y102909D02*
Y104091D01*
X197809Y67437D02*
X198991D01*
X198400Y66847D02*
Y68028D01*
X188909Y86135D02*
X190091D01*
X189500Y85544D02*
Y86725D01*
X185909Y86135D02*
X187091D01*
X186500Y85544D02*
Y86725D01*
X182909Y86135D02*
X184091D01*
X183500Y85544D02*
Y86725D01*
X171959Y60785D02*
X173140D01*
X172549Y60195D02*
Y61376D01*
X167209Y60785D02*
X168390D01*
X167799Y60195D02*
Y61376D01*
X171957Y56036D02*
X173138D01*
X172548Y55446D02*
Y56627D01*
X167209Y56035D02*
X168390D01*
X167799Y55445D02*
Y56626D01*
X197809Y44287D02*
X198991D01*
X198400Y43696D02*
Y44878D01*
X171957Y51286D02*
X173138D01*
X172548Y50696D02*
Y51877D01*
X167209Y51287D02*
X168391D01*
X167800Y50696D02*
Y51878D01*
X182909Y26037D02*
X184091D01*
X183500Y25447D02*
Y26628D01*
X188909Y26037D02*
X190091D01*
X189500Y25447D02*
Y26628D01*
X185909Y26037D02*
X187091D01*
X186500Y25447D02*
Y26628D01*
X170709Y35737D02*
X171891D01*
X171300Y35146D02*
Y36328D01*
X157109Y75709D02*
X158291D01*
X157700Y75118D02*
Y76299D01*
X162460Y60785D02*
X163641D01*
X163051Y60194D02*
Y61375D01*
X114209Y90600D02*
X115391D01*
X114800Y90009D02*
Y91190D01*
X114209Y80300D02*
X115391D01*
X114800Y79710D02*
Y80891D01*
X141338Y61550D02*
X142519D01*
X141928Y60960D02*
Y62141D01*
X121279Y60783D02*
X122460D01*
X121870Y60192D02*
Y61373D01*
X114209Y70000D02*
X115391D01*
X114800Y69410D02*
Y70591D01*
X162460Y56035D02*
X163641D01*
X163051Y55444D02*
Y56625D01*
X162459Y51287D02*
X163641D01*
X163050Y50696D02*
Y51878D01*
X150978Y40937D02*
X152159D01*
X151568Y40347D02*
Y41528D01*
X109871Y56665D02*
X111052D01*
X110461Y56074D02*
Y57255D01*
X104009Y141400D02*
X105191D01*
X104600Y140809D02*
Y141991D01*
X89413Y171810D02*
X90595D01*
X90004Y171219D02*
Y172400D01*
X87010Y162900D02*
X88191D01*
X87600Y162309D02*
Y163491D01*
X87010Y155700D02*
X88191D01*
X87600Y155109D02*
Y156291D01*
X89410Y126588D02*
X90591D01*
X90000Y125998D02*
Y127179D01*
X87010Y149908D02*
X88191D01*
X87600Y149317D02*
Y150498D01*
X87010Y142708D02*
X88191D01*
X87600Y142117D02*
Y143298D01*
X101006Y124500D02*
X102187D01*
X101597Y123909D02*
Y125091D01*
X103909Y80300D02*
X105091D01*
X104500Y79710D02*
Y80891D01*
X103909Y90600D02*
X105091D01*
X104500Y90009D02*
Y91190D01*
X96109Y103704D02*
X97290D01*
X96700Y103113D02*
Y104295D01*
X83909Y99500D02*
X85091D01*
X84500Y98909D02*
Y100091D01*
X93609Y90600D02*
X94791D01*
X94200Y90009D02*
Y91190D01*
X93609Y80300D02*
X94791D01*
X94200Y79710D02*
Y80891D01*
X84509Y80472D02*
X85690D01*
X85100Y79881D02*
Y81062D01*
X79809Y162900D02*
X80990D01*
X80400Y162309D02*
Y163491D01*
X74017Y162900D02*
X75198D01*
X74608Y162309D02*
Y163491D01*
X83410Y159300D02*
X84591D01*
X84000Y158709D02*
Y159891D01*
X74017Y155700D02*
X75198D01*
X74608Y155109D02*
Y156291D01*
X70413Y159090D02*
X71595D01*
X71004Y158500D02*
Y159681D01*
X69410Y171810D02*
X70591D01*
X70000Y171219D02*
Y172400D01*
X79809Y155700D02*
X80990D01*
X80400Y155109D02*
Y156291D01*
X74017Y149908D02*
X75198D01*
X74608Y149317D02*
Y150498D01*
X83410Y146308D02*
X84591D01*
X84000Y145717D02*
Y146898D01*
X79809Y149908D02*
X80990D01*
X80400Y149317D02*
Y150498D01*
X70417Y146308D02*
X71599D01*
X71008Y145717D02*
Y146898D01*
X66817Y149908D02*
X67998D01*
X67408Y149317D02*
Y150498D01*
X66817Y142708D02*
X67998D01*
X67408Y142117D02*
Y143298D01*
X66817Y162900D02*
X67998D01*
X67408Y162309D02*
Y163491D01*
X59375Y171810D02*
X60556D01*
X59965Y171219D02*
Y172400D01*
X66817Y155700D02*
X67998D01*
X67408Y155109D02*
Y156291D01*
X49989Y153995D02*
X51170D01*
X50580Y153404D02*
Y154585D01*
X79809Y142708D02*
X80990D01*
X80400Y142117D02*
Y143298D01*
X74017Y142708D02*
X75198D01*
X74608Y142117D02*
Y143298D01*
X64410Y126588D02*
X65591D01*
X65000Y125998D02*
Y127179D01*
X79809Y85100D02*
X80990D01*
X80400Y84509D02*
Y85690D01*
X61510Y94100D02*
X62691D01*
X62100Y93510D02*
Y94691D01*
X61510Y97400D02*
X62691D01*
X62100Y96810D02*
Y97991D01*
X53243Y124600D02*
X54425D01*
X53834Y124009D02*
Y125191D01*
X58210Y97395D02*
X59390D01*
X58800Y96805D02*
Y97986D01*
X13110Y85000D02*
X14291D01*
X13700Y84409D02*
Y85590D01*
X103909Y70000D02*
X105091D01*
X104500Y69410D02*
Y70591D01*
X93609Y70000D02*
X94791D01*
X94200Y69410D02*
Y70591D01*
X83538Y62200D02*
X84719D01*
X84128Y61610D02*
Y62791D01*
X46404Y41547D02*
X47585D01*
X46995Y40957D02*
Y42138D01*
X46404Y44697D02*
X47585D01*
X46995Y44106D02*
Y45287D01*
X46379Y38427D02*
X47560D01*
X46969Y37836D02*
Y39017D01*
X43983Y73000D02*
X45164D01*
X44573Y72409D02*
Y73590D01*
X37029Y74365D02*
X38211D01*
X37620Y73774D02*
Y74955D01*
X43254Y44697D02*
X44435D01*
X43845Y44106D02*
Y45287D01*
X43253Y41547D02*
X44434D01*
X43843Y40957D02*
Y42138D01*
X43272Y38400D02*
X44453D01*
X43863Y37809D02*
Y38991D01*
X40105Y38402D02*
X41286D01*
X40695Y37811D02*
Y38992D01*
X40105Y41547D02*
X41286D01*
X40695Y40957D02*
Y42138D01*
X40105Y44697D02*
X41286D01*
X40695Y44106D02*
Y45287D01*
X14709Y25400D02*
X15890D01*
X15300Y24810D02*
Y25991D01*
X41709Y58700D02*
X42891D01*
X42300Y58109D02*
Y59290D01*
X53960Y72500D02*
X55141D01*
X54550Y71909D02*
Y73091D01*
X53960Y75500D02*
X55141D01*
X54550Y74910D02*
Y76091D01*
X59960Y75500D02*
X61141D01*
X60550Y74910D02*
Y76091D01*
X59960Y72500D02*
X61141D01*
X60550Y71909D02*
Y73091D01*
X84210Y68900D02*
X85391D01*
X84800Y68309D02*
Y69490D01*
X82209Y71200D02*
X83390D01*
X82800Y70609D02*
Y71790D01*
X86321Y40900D02*
X87502D01*
X86911Y40309D02*
Y41491D01*
X57233Y42531D02*
X58414D01*
X57824Y41941D02*
Y43122D01*
X125786Y92905D02*
X126967D01*
X126376Y92314D02*
Y93495D01*
X83810Y90057D02*
X84991D01*
X84400Y89466D02*
Y90647D01*
X90881Y102100D02*
X92062D01*
X91472Y101509D02*
Y102691D01*
X75109Y86776D02*
X76291D01*
X75700Y86186D02*
Y87367D01*
X111409Y110000D02*
X112591D01*
X112000Y109409D02*
Y110591D01*
X107209Y103700D02*
X108391D01*
X107800Y103109D02*
Y104291D01*
X104409Y102000D02*
X105591D01*
X105000Y101409D02*
Y102591D01*
X57910Y50000D02*
X59091D01*
X58500Y49409D02*
Y50591D01*
X108909Y101000D02*
X110091D01*
X109500Y100409D02*
Y101591D01*
X35814Y49396D02*
X36995D01*
X36404Y48805D02*
Y49986D01*
X94414Y116200D02*
X95595D01*
X95004Y115609D02*
Y116791D01*
X74300Y116000D02*
X75481D01*
X74890Y115409D02*
Y116591D01*
X26609Y45000D02*
X27791D01*
X27200Y44409D02*
Y45591D01*
X13209Y67200D02*
X14390D01*
X13800Y66610D02*
Y67791D01*
X176909Y37735D02*
X178090D01*
X177499Y37145D02*
Y38326D01*
X174109Y37835D02*
X175290D01*
X174699Y37245D02*
Y38426D01*
X176909Y35035D02*
X178090D01*
X177499Y34445D02*
Y35626D01*
X176909Y74337D02*
X178091D01*
X177500Y73747D02*
Y74928D01*
X174109Y74237D02*
X175291D01*
X174700Y73646D02*
Y74828D01*
X176909Y77037D02*
X178091D01*
X177500Y76446D02*
Y77628D01*
X136409Y120500D02*
X137591D01*
X137000Y119909D02*
Y121091D01*
X141909Y124500D02*
X143091D01*
X142500Y123909D02*
Y125091D01*
X147709Y85800D02*
X148891D01*
X148300Y85210D02*
Y86391D01*
X167909Y37200D02*
X169091D01*
X168500Y36609D02*
Y37791D01*
X164409Y37100D02*
X165591D01*
X165000Y36509D02*
Y37691D01*
X161309Y37137D02*
X162491D01*
X161900Y36546D02*
Y37728D01*
X188909Y140202D02*
X190091D01*
X189500Y139612D02*
Y140793D01*
X185909Y140202D02*
X187091D01*
X186500Y139612D02*
Y140793D01*
X182909Y140202D02*
X184091D01*
X183500Y139612D02*
Y140793D01*
X182909Y105598D02*
X184091D01*
X183500Y105007D02*
Y106188D01*
X185909Y105598D02*
X187091D01*
X186500Y105007D02*
Y106188D01*
X188909Y105598D02*
X190091D01*
X189500Y105007D02*
Y106188D01*
X176909Y143700D02*
X178091D01*
X177500Y143109D02*
Y144291D01*
X174109Y140900D02*
X175291D01*
X174700Y140309D02*
Y141491D01*
X176909Y141000D02*
X178091D01*
X177500Y140409D02*
Y141591D01*
X194809Y143131D02*
X195991D01*
X195400Y142541D02*
Y143722D01*
X176909Y104400D02*
X178091D01*
X177500Y103809D02*
Y104991D01*
X174109Y104500D02*
X175291D01*
X174700Y103909D02*
Y105091D01*
X167130Y104501D02*
X168311D01*
X167721Y103910D02*
Y105091D01*
X164219Y104421D02*
X165400D01*
X164810Y103831D02*
Y105012D01*
X194309Y102269D02*
X195491D01*
X194900Y101678D02*
Y102859D01*
X176909Y101700D02*
X178091D01*
X177500Y101110D02*
Y102290D01*
X125409Y137000D02*
X126591D01*
X126000Y136409D02*
Y137591D01*
X136409Y130500D02*
X137591D01*
X137000Y129909D02*
Y131091D01*
X141338Y57882D02*
X142519D01*
X141928Y57292D02*
Y58473D01*
X141338Y65150D02*
X142519D01*
X141928Y64560D02*
Y65741D01*
X59413Y116200D02*
X60595D01*
X60004Y115609D02*
Y116791D01*
X81559Y109650D02*
X82740D01*
X82150Y109059D02*
Y110241D01*
X161309Y104300D02*
X162491D01*
X161900Y103709D02*
Y104891D01*
X113775Y173400D02*
X114956D01*
X114365Y172809D02*
Y173991D01*
X141909Y135500D02*
X143091D01*
X142500Y134909D02*
Y136091D01*
X84109Y85400D02*
X85290D01*
X84700Y84809D02*
Y85991D01*
X6109Y29200D02*
X7291D01*
X6700Y28609D02*
Y29791D01*
X33310Y74234D02*
X34491D01*
X33901Y73643D02*
Y74824D01*
X6109Y49400D02*
X7291D01*
X6700Y48809D02*
Y49991D01*
X18203Y81987D02*
X19384D01*
X18793Y81397D02*
Y82578D01*
X188909Y38837D02*
X190091D01*
X189500Y38247D02*
Y39428D01*
X182909Y38837D02*
X184091D01*
X183500Y38247D02*
Y39428D01*
X185909Y38837D02*
X187091D01*
X186500Y38247D02*
Y39428D01*
X182909Y73337D02*
X184091D01*
X183500Y72746D02*
Y73928D01*
X185909Y73337D02*
X187091D01*
X186500Y72746D02*
Y73928D01*
X188909Y73337D02*
X190091D01*
X189500Y72746D02*
Y73928D01*
X15103Y81987D02*
X16284D01*
X15693Y81397D02*
Y82578D01*
X19603Y79187D02*
X20784D01*
X20193Y78597D02*
Y79778D01*
X16403Y79187D02*
X17584D01*
X16993Y78597D02*
Y79778D01*
X102909Y160000D02*
X104091D01*
X103500Y159409D02*
Y160591D01*
X102919Y165304D02*
X104101D01*
X103510Y164713D02*
Y165894D01*
X123327Y82400D02*
X124509D01*
X123918Y81810D02*
Y82990D01*
X15766Y38950D02*
X16947D01*
X16356Y38359D02*
Y39540D01*
X6165Y39445D02*
X7346D01*
X6755Y38855D02*
Y40036D01*
X14410Y60500D02*
X15590D01*
X15000Y59909D02*
Y61090D01*
X24772Y69228D02*
X25954D01*
X25363Y68638D02*
Y69819D01*
X194809Y35206D02*
X195991D01*
X195400Y34615D02*
Y35796D01*
X194809Y76069D02*
X195991D01*
X195400Y75478D02*
Y76659D01*
M02*
