G04*
G04 #@! TF.GenerationSoftware,Altium Limited,Altium Designer,26.8.1 (31)*
G04*
G04 Layer_Color=16711935*
G04 Board_Origin=0|0*
%FSLAX25Y25*%
%MOIN*%
G70*
G04*
G04 #@! TF.SameCoordinates,D1305378-CED7-41CA-A8E7-99A2C117E124*
G04*
G04*
G04 #@! TF.FilePolarity,Negative*
G04*
G01*
G75*
%ADD65C,0.04331*%
%ADD66C,0.05512*%
%ADD67R,0.05512X0.05512*%
%ADD68C,0.12795*%
%ADD69O,0.03937X0.07087*%
%ADD70O,0.03937X0.08661*%
%ADD83C,0.02362*%
%ADD84C,0.08189*%
G36*
X199713Y43135D02*
X155575D01*
Y69116D01*
X199713D01*
Y43135D01*
D02*
G37*
G36*
X199714Y109800D02*
X155576D01*
Y135780D01*
X199714D01*
Y109800D01*
D02*
G37*
D65*
X207226Y143764D02*
D03*
X207224Y76902D02*
D03*
D66*
X215100Y117780D02*
D03*
Y127622D02*
D03*
Y107937D02*
D03*
X215098Y41075D02*
D03*
Y50917D02*
D03*
Y60760D02*
D03*
D67*
X215100Y137465D02*
D03*
X215098Y70602D02*
D03*
D68*
X217560Y168305D02*
D03*
Y18699D02*
D03*
X8899Y168305D02*
D03*
D69*
X97021Y35136D02*
D03*
X63021D02*
D03*
D70*
X97021Y19388D02*
D03*
X63021D02*
D03*
D83*
X172549Y127448D02*
D03*
X172548Y122699D02*
D03*
X167799Y127448D02*
D03*
Y122698D02*
D03*
X172548Y117949D02*
D03*
X167800Y117950D02*
D03*
X163051Y122698D02*
D03*
Y127448D02*
D03*
X163050Y117950D02*
D03*
X172549Y60785D02*
D03*
X167799D02*
D03*
X172548Y56036D02*
D03*
X167799Y56035D02*
D03*
X172548Y51286D02*
D03*
X167800Y51287D02*
D03*
X163051Y60785D02*
D03*
X114800Y90600D02*
D03*
Y80300D02*
D03*
Y70000D02*
D03*
X163051Y56035D02*
D03*
X163050Y51287D02*
D03*
X87600Y162900D02*
D03*
Y155700D02*
D03*
Y149908D02*
D03*
Y142708D02*
D03*
X104500Y80300D02*
D03*
Y90600D02*
D03*
X94200D02*
D03*
Y80300D02*
D03*
X80400Y162900D02*
D03*
X74608D02*
D03*
X84000Y159300D02*
D03*
X74608Y155700D02*
D03*
X71004Y159090D02*
D03*
X80400Y155700D02*
D03*
X74608Y149908D02*
D03*
X84000Y146308D02*
D03*
X80400Y149908D02*
D03*
X71008Y146308D02*
D03*
X67408Y149908D02*
D03*
Y142708D02*
D03*
Y162900D02*
D03*
Y155700D02*
D03*
X80400Y142708D02*
D03*
X74608D02*
D03*
X104500Y70000D02*
D03*
X94200D02*
D03*
X46995Y41547D02*
D03*
Y44697D02*
D03*
X46969Y38427D02*
D03*
X43845Y44697D02*
D03*
X43843Y41547D02*
D03*
X43863Y38400D02*
D03*
X40695Y38402D02*
D03*
Y41547D02*
D03*
Y44697D02*
D03*
D84*
X131000Y110500D02*
D03*
X121000Y130500D02*
D03*
X131000D02*
D03*
X121000Y120500D02*
D03*
X131000D02*
D03*
X121000Y110500D02*
D03*
M02*
