G04*
G04 #@! TF.GenerationSoftware,Altium Limited,Altium Designer,26.8.1 (31)*
G04*
G04 Layer_Color=2752767*
G04 Board_Origin=0|0*
%FSLAX25Y25*%
%MOIN*%
G70*
G04*
G04 #@! TF.SameCoordinates,D1305378-CED7-41CA-A8E7-99A2C117E124*
G04*
G04*
G04 #@! TF.FilePolarity,Positive*
G04*
G01*
G75*
%ADD89C,0.00500*%
%ADD90C,0.00667*%
D89*
X205226Y141764D02*
Y145764D01*
X209226D01*
Y141764D01*
X205226D01*
X215560Y166305D02*
X216560Y168305D01*
X215560Y170305D01*
X217560Y169305D01*
X219560Y170305D01*
X218560Y168305D01*
X219560Y166305D01*
X217560Y167305D01*
X215560Y166305D01*
Y16699D02*
X216560Y18699D01*
X215560Y20699D01*
X217560Y19699D01*
X219560Y20699D01*
X218560Y18699D01*
X219560Y16699D01*
X217560Y17699D01*
X215560Y16699D01*
X6899Y166305D02*
X7899Y168305D01*
X6899Y170305D01*
X8899Y169305D01*
X10899Y170305D01*
X9899Y168305D01*
X10899Y166305D01*
X8899Y167305D01*
X6899Y166305D01*
X97021Y33136D02*
X98021Y34136D01*
X99021D01*
X98021Y35136D01*
X99021Y36136D01*
X98021D01*
X97021Y37136D01*
X96021Y36136D01*
X95021D01*
X96021Y35136D01*
X95021Y34136D01*
X96021D01*
X97021Y33136D01*
X95021Y17388D02*
X96021D01*
X97021Y18388D01*
X98021Y17388D01*
X99021D01*
Y18388D01*
X98021Y19388D01*
X99021Y20388D01*
Y21388D01*
X98021D01*
X97021Y20388D01*
X96021Y21388D01*
X95021D01*
Y20388D01*
X96021Y19388D01*
X95021Y18388D01*
Y17388D01*
X61021D02*
X62021D01*
X63021Y18388D01*
X64021Y17388D01*
X65021D01*
Y18388D01*
X64021Y19388D01*
X65021Y20388D01*
Y21388D01*
X64021D01*
X63021Y20388D01*
X62021Y21388D01*
X61021D01*
Y20388D01*
X62021Y19388D01*
X61021Y18388D01*
Y17388D01*
X63021Y33136D02*
X64021Y34136D01*
X65021D01*
X64021Y35136D01*
X65021Y36136D01*
X64021D01*
X63021Y37136D01*
X62021Y36136D01*
X61021D01*
X62021Y35136D01*
X61021Y34136D01*
X62021D01*
X63021Y33136D01*
X205224Y74902D02*
Y78902D01*
X209224D01*
Y74902D01*
X205224D01*
X149500Y53100D02*
Y57100D01*
X153500D01*
Y53100D01*
X149500D01*
X150300Y53900D02*
Y56300D01*
X152700D01*
Y53900D01*
X150300D01*
X147100Y50600D02*
Y54600D01*
X151100D01*
Y50600D01*
X147100D01*
X147900Y51400D02*
Y53800D01*
X150300D01*
Y51400D01*
X147900D01*
X149200Y116600D02*
Y120600D01*
X153200D01*
Y116600D01*
X149200D01*
X150000Y117400D02*
Y119800D01*
X152400D01*
Y117400D01*
X150000D01*
X149200Y119700D02*
Y123700D01*
X153200D01*
Y119700D01*
X149200D01*
X150000Y120500D02*
Y122900D01*
X152400D01*
Y120500D01*
X150000D01*
X128200Y73500D02*
Y77500D01*
X132200D01*
Y73500D01*
X128200D01*
X129000Y74300D02*
Y76700D01*
X131400D01*
Y74300D01*
X129000D01*
X136900Y61400D02*
Y65400D01*
X140900D01*
Y61400D01*
X136900D01*
X137700Y62200D02*
Y64600D01*
X140100D01*
Y62200D01*
X137700D01*
X126060Y81644D02*
Y85644D01*
X130060D01*
Y81644D01*
X126060D01*
X126860Y82444D02*
Y84844D01*
X129260D01*
Y82444D01*
X126860D01*
X115800Y56300D02*
X113800Y60300D01*
X117800D01*
X115800Y56300D01*
X78500Y54800D02*
X76500Y58800D01*
X80500D01*
X78500Y54800D01*
X85600Y54900D02*
X83600Y58900D01*
X87600D01*
X85600Y54900D01*
X103800Y59000D02*
X101800Y63000D01*
X105800D01*
X103800Y59000D01*
X100996Y22244D02*
X98996Y26244D01*
X102996D01*
X100996Y22244D01*
X108585Y18741D02*
X106585Y22741D01*
X110585D01*
X108585Y18741D01*
X108601Y25613D02*
X106601Y29613D01*
X110601D01*
X108601Y25613D01*
X189736Y62037D02*
Y66037D01*
X193736D01*
Y62037D01*
X189736D01*
X190536Y62837D02*
Y65237D01*
X192936D01*
Y62837D01*
X190536D01*
X189736Y128900D02*
Y132900D01*
X193736D01*
Y128900D01*
X189736D01*
X190536Y129700D02*
Y132100D01*
X192936D01*
Y129700D01*
X190536D01*
X189736Y112700D02*
Y116700D01*
X193736D01*
Y112700D01*
X189736D01*
X190536Y113500D02*
Y115900D01*
X192936D01*
Y113500D01*
X190536D01*
X189736Y45837D02*
Y49837D01*
X193736D01*
Y45837D01*
X189736D01*
X190536Y46637D02*
Y49037D01*
X192936D01*
Y46637D01*
X190536D01*
X48900Y50200D02*
Y54200D01*
X52900D01*
Y50200D01*
X48900D01*
X49700Y51000D02*
Y53400D01*
X52100D01*
Y51000D01*
X49700D01*
X49200Y54300D02*
Y58300D01*
X53200D01*
Y54300D01*
X49200D01*
X50000Y55100D02*
Y57500D01*
X52400D01*
Y55100D01*
X50000D01*
X38780Y56571D02*
X36780Y60571D01*
X40780D01*
X38780Y56571D01*
X33000Y56500D02*
Y60500D01*
X37000D01*
Y56500D01*
X33000D01*
X33800Y57300D02*
Y59700D01*
X36200D01*
Y57300D01*
X33800D01*
X20050Y67250D02*
Y71250D01*
X24050D01*
Y67250D01*
X20050D01*
X20850Y68050D02*
Y70450D01*
X23250D01*
Y68050D01*
X20850D01*
X20700Y14800D02*
Y18800D01*
X24700D01*
Y14800D01*
X20700D01*
X21500Y15600D02*
Y18000D01*
X23900D01*
Y15600D01*
X21500D01*
X22800Y17000D02*
Y21000D01*
X26800D01*
Y17000D01*
X22800D01*
X23600Y17800D02*
Y20200D01*
X26000D01*
Y17800D01*
X23600D01*
X47508Y13800D02*
X45508Y17800D01*
X49508D01*
X47508Y13800D01*
X48600Y23400D02*
X46600Y27400D01*
X50600D01*
X48600Y23400D01*
X46000Y18900D02*
X44000Y22900D01*
X48000D01*
X46000Y18900D01*
X46700Y26800D02*
Y30800D01*
X50700D01*
Y26800D01*
X46700D01*
X47500Y27600D02*
Y30000D01*
X49900D01*
Y27600D01*
X47500D01*
X34800Y28700D02*
Y32700D01*
X38800D01*
Y28700D01*
X34800D01*
X35600Y29500D02*
Y31900D01*
X38000D01*
Y29500D01*
X35600D01*
X34122Y31820D02*
Y35820D01*
X38122D01*
Y31820D01*
X34122D01*
X34922Y32620D02*
Y35020D01*
X37322D01*
Y32620D01*
X34922D01*
X53500Y31200D02*
Y35200D01*
X57500D01*
Y31200D01*
X53500D01*
X54300Y32000D02*
Y34400D01*
X56700D01*
Y32000D01*
X54300D01*
X51500Y13435D02*
Y17435D01*
X55500D01*
Y13435D01*
X51500D01*
X52300Y14235D02*
Y16635D01*
X54700D01*
Y14235D01*
X52300D01*
X25100Y14800D02*
Y18800D01*
X29100D01*
Y14800D01*
X25100D01*
X25900Y15600D02*
Y18000D01*
X28300D01*
Y15600D01*
X25900D01*
X23000Y12600D02*
Y16600D01*
X27000D01*
Y12600D01*
X23000D01*
X23800Y13400D02*
Y15800D01*
X26200D01*
Y13400D01*
X23800D01*
X69072Y30900D02*
X67072Y34900D01*
X71072D01*
X69072Y30900D01*
X72072D02*
X70072Y34900D01*
X74072D01*
X72072Y30900D01*
X87970D02*
X85970Y34900D01*
X89970D01*
X87970Y30900D01*
X90970D02*
X88970Y34900D01*
X92970D01*
X90970Y30900D01*
X31100Y42400D02*
Y46400D01*
X35100D01*
Y42400D01*
X31100D01*
X31900Y43200D02*
Y45600D01*
X34300D01*
Y43200D01*
X31900D01*
X140000Y117800D02*
Y121800D01*
X144000D01*
Y117800D01*
X140000D01*
X140800Y118600D02*
Y121000D01*
X143200D01*
Y118600D01*
X140800D01*
X91500Y57500D02*
Y61500D01*
X95500D01*
Y57500D01*
X91500D01*
X92300Y58300D02*
Y60700D01*
X94700D01*
Y58300D01*
X92300D01*
X93300Y55200D02*
Y59200D01*
X97300D01*
Y55200D01*
X93300D01*
X94100Y56000D02*
Y58400D01*
X96500D01*
Y56000D01*
X94100D01*
X95400Y53100D02*
Y57100D01*
X99400D01*
Y53100D01*
X95400D01*
X96200Y53900D02*
Y56300D01*
X98600D01*
Y53900D01*
X96200D01*
X95400Y49500D02*
Y53500D01*
X99400D01*
Y49500D01*
X95400D01*
X96200Y50300D02*
Y52700D01*
X98600D01*
Y50300D01*
X96200D01*
X94100Y167900D02*
Y171900D01*
X98100D01*
Y167900D01*
X94100D01*
X94900Y168700D02*
Y171100D01*
X97300D01*
Y168700D01*
X94900D01*
X80765Y166700D02*
Y170700D01*
X84765D01*
Y166700D01*
X80765D01*
X81565Y167500D02*
Y169900D01*
X83965D01*
Y167500D01*
X81565D01*
X83004Y169810D02*
Y173810D01*
X87004D01*
Y169810D01*
X83004D01*
X83804Y170610D02*
Y173010D01*
X86204D01*
Y170610D01*
X83804D01*
X73000Y169810D02*
Y173810D01*
X77000D01*
Y169810D01*
X73000D01*
X73800Y170610D02*
Y173010D01*
X76200D01*
Y170610D01*
X73800D01*
X146237Y75000D02*
Y79000D01*
X150237D01*
Y75000D01*
X146237D01*
X147037Y75800D02*
Y78200D01*
X149437D01*
Y75800D01*
X147037D01*
X123300Y77500D02*
Y81500D01*
X127300D01*
Y77500D01*
X123300D01*
X124100Y78300D02*
Y80700D01*
X126500D01*
Y78300D01*
X124100D01*
X125800Y75401D02*
Y79401D01*
X129800D01*
Y75401D01*
X125800D01*
X126600Y76201D02*
Y78601D01*
X129000D01*
Y76201D01*
X126600D01*
X124200Y72600D02*
Y76600D01*
X128200D01*
Y72600D01*
X124200D01*
X125000Y73400D02*
Y75800D01*
X127400D01*
Y73400D01*
X125000D01*
X125793Y69385D02*
Y73385D01*
X129793D01*
Y69385D01*
X125793D01*
X126593Y70185D02*
Y72585D01*
X128993D01*
Y70185D01*
X126593D01*
X126932Y66346D02*
Y70346D01*
X130932D01*
Y66346D01*
X126932D01*
X127732Y67146D02*
Y69546D01*
X130132D01*
Y67146D01*
X127732D01*
X123300Y65600D02*
Y69600D01*
X127300D01*
Y65600D01*
X123300D01*
X124100Y66400D02*
Y68800D01*
X126500D01*
Y66400D01*
X124100D01*
X124050Y61350D02*
Y65350D01*
X128050D01*
Y61350D01*
X124050D01*
X124850Y62150D02*
Y64550D01*
X127250D01*
Y62150D01*
X124850D01*
X139928Y66737D02*
Y70737D01*
X143928D01*
Y66737D01*
X139928D01*
X140728Y67537D02*
Y69937D01*
X143128D01*
Y67537D01*
X140728D01*
X139900Y110900D02*
Y114900D01*
X143900D01*
Y110900D01*
X139900D01*
X140700Y111700D02*
Y114100D01*
X143100D01*
Y111700D01*
X140700D01*
X105900Y56500D02*
X103900Y60500D01*
X107900D01*
X105900Y56500D01*
X114200Y51800D02*
Y55800D01*
X118200D01*
Y51800D01*
X114200D01*
X115000Y52600D02*
Y55000D01*
X117400D01*
Y52600D01*
X115000D01*
X114100Y42900D02*
Y46900D01*
X118100D01*
Y42900D01*
X114100D01*
X114900Y43700D02*
Y46100D01*
X117300D01*
Y43700D01*
X114900D01*
X64442Y39200D02*
X62442Y43200D01*
X66443D01*
X64442Y39200D01*
X67443D02*
X65443Y43200D01*
X69442D01*
X67443Y39200D01*
X58500Y45300D02*
Y49300D01*
X62500D01*
Y45300D01*
X58500D01*
X59300Y46100D02*
Y48500D01*
X61700D01*
Y46100D01*
X59300D01*
X92600Y39200D02*
X90600Y43200D01*
X94600D01*
X92600Y39200D01*
X95600D02*
X93600Y43200D01*
X97600D01*
X95600Y39200D01*
X196400Y132300D02*
Y136300D01*
X200400D01*
Y132300D01*
X196400D01*
X197200Y133100D02*
Y135500D01*
X199600D01*
Y133100D01*
X197200D01*
X187500Y150898D02*
Y154898D01*
X191500D01*
Y150898D01*
X187500D01*
X188300Y151698D02*
Y154098D01*
X190700D01*
Y151698D01*
X188300D01*
X184500Y150898D02*
Y154898D01*
X188500D01*
Y150898D01*
X184500D01*
X185300Y151698D02*
Y154098D01*
X187700D01*
Y151698D01*
X185300D01*
X181500Y150898D02*
Y154898D01*
X185500D01*
Y150898D01*
X181500D01*
X182300Y151698D02*
Y154098D01*
X184700D01*
Y151698D01*
X182300D01*
X172549Y125448D02*
X170549Y129448D01*
X174549D01*
X172549Y125448D01*
X172548Y120699D02*
X170548Y124699D01*
X174548D01*
X172548Y120699D01*
X167799Y125448D02*
X165799Y129448D01*
X169799D01*
X167799Y125448D01*
Y120698D02*
X165799Y124698D01*
X169799D01*
X167799Y120698D01*
X196400Y109100D02*
Y113100D01*
X200400D01*
Y109100D01*
X196400D01*
X197200Y109900D02*
Y112300D01*
X199600D01*
Y109900D01*
X197200D01*
X172548Y115949D02*
X170548Y119949D01*
X174548D01*
X172548Y115949D01*
X167800Y115950D02*
X165800Y119950D01*
X169800D01*
X167800Y115950D01*
X181500Y90802D02*
Y94802D01*
X185500D01*
Y90802D01*
X181500D01*
X182300Y91602D02*
Y94002D01*
X184700D01*
Y91602D01*
X182300D01*
X187500Y90802D02*
Y94802D01*
X191500D01*
Y90802D01*
X187500D01*
X188300Y91602D02*
Y94002D01*
X190700D01*
Y91602D01*
X188300D01*
X184500Y90802D02*
Y94802D01*
X188500D01*
Y90802D01*
X184500D01*
X185300Y91602D02*
Y94002D01*
X187700D01*
Y91602D01*
X185300D01*
X169300Y100900D02*
Y104900D01*
X173300D01*
Y100900D01*
X169300D01*
X170100Y101700D02*
Y104100D01*
X172500D01*
Y101700D01*
X170100D01*
X155700Y140572D02*
Y144572D01*
X159700D01*
Y140572D01*
X155700D01*
X156500Y141372D02*
Y143772D01*
X158900D01*
Y141372D01*
X156500D01*
X141000Y128000D02*
Y132000D01*
X145000D01*
Y128000D01*
X141000D01*
X141800Y128800D02*
Y131200D01*
X144200D01*
Y128800D01*
X141800D01*
X103765Y166500D02*
Y170500D01*
X107765D01*
Y166500D01*
X103765D01*
X104565Y167300D02*
Y169700D01*
X106965D01*
Y167300D01*
X104565D01*
X163051Y120698D02*
X161051Y124698D01*
X165051D01*
X163051Y120698D01*
Y125448D02*
X161051Y129448D01*
X165051D01*
X163051Y125448D01*
X163050Y115950D02*
X161050Y119950D01*
X165050D01*
X163050Y115950D01*
X149206Y105543D02*
Y109543D01*
X153206D01*
Y105543D01*
X149206D01*
X150006Y106343D02*
Y108743D01*
X152406D01*
Y106343D01*
X150006D01*
X124700Y94300D02*
Y98300D01*
X128700D01*
Y94300D01*
X124700D01*
X125500Y95100D02*
Y97500D01*
X127900D01*
Y95100D01*
X125500D01*
X124000Y101500D02*
Y105500D01*
X128000D01*
Y101500D01*
X124000D01*
X124800Y102300D02*
Y104700D01*
X127200D01*
Y102300D01*
X124800D01*
X196400Y65437D02*
Y69437D01*
X200400D01*
Y65437D01*
X196400D01*
X197200Y66237D02*
Y68637D01*
X199600D01*
Y66237D01*
X197200D01*
X187500Y84135D02*
Y88135D01*
X191500D01*
Y84135D01*
X187500D01*
X188300Y84935D02*
Y87335D01*
X190700D01*
Y84935D01*
X188300D01*
X184500Y84135D02*
Y88135D01*
X188500D01*
Y84135D01*
X184500D01*
X185300Y84935D02*
Y87335D01*
X187700D01*
Y84935D01*
X185300D01*
X181500Y84135D02*
Y88135D01*
X185500D01*
Y84135D01*
X181500D01*
X182300Y84935D02*
Y87335D01*
X184700D01*
Y84935D01*
X182300D01*
X172549Y58785D02*
X170549Y62785D01*
X174549D01*
X172549Y58785D01*
X167799D02*
X165799Y62785D01*
X169799D01*
X167799Y58785D01*
X172548Y54036D02*
X170548Y58036D01*
X174548D01*
X172548Y54036D01*
X167799Y54035D02*
X165799Y58035D01*
X169799D01*
X167799Y54035D01*
X196400Y42287D02*
Y46287D01*
X200400D01*
Y42287D01*
X196400D01*
X197200Y43087D02*
Y45487D01*
X199600D01*
Y43087D01*
X197200D01*
X172548Y49286D02*
X170548Y53286D01*
X174548D01*
X172548Y49286D01*
X167800Y49287D02*
X165800Y53287D01*
X169800D01*
X167800Y49287D01*
X181500Y24037D02*
Y28037D01*
X185500D01*
Y24037D01*
X181500D01*
X182300Y24837D02*
Y27237D01*
X184700D01*
Y24837D01*
X182300D01*
X187500Y24037D02*
Y28037D01*
X191500D01*
Y24037D01*
X187500D01*
X188300Y24837D02*
Y27237D01*
X190700D01*
Y24837D01*
X188300D01*
X184500Y24037D02*
Y28037D01*
X188500D01*
Y24037D01*
X184500D01*
X185300Y24837D02*
Y27237D01*
X187700D01*
Y24837D01*
X185300D01*
X169300Y33737D02*
Y37737D01*
X173300D01*
Y33737D01*
X169300D01*
X170100Y34537D02*
Y36937D01*
X172500D01*
Y34537D01*
X170100D01*
X155700Y73709D02*
Y77709D01*
X159700D01*
Y73709D01*
X155700D01*
X156500Y74509D02*
Y76909D01*
X158900D01*
Y74509D01*
X156500D01*
X163051Y58785D02*
X161051Y62785D01*
X165051D01*
X163051Y58785D01*
X114800Y88600D02*
X112800Y92600D01*
X116800D01*
X114800Y88600D01*
Y78300D02*
X112800Y82300D01*
X116800D01*
X114800Y78300D01*
X139928Y59550D02*
Y63551D01*
X143928D01*
Y59550D01*
X139928D01*
X140728Y60351D02*
Y62751D01*
X143128D01*
Y60351D01*
X140728D01*
X119870Y58783D02*
Y62783D01*
X123870D01*
Y58783D01*
X119870D01*
X120670Y59583D02*
Y61983D01*
X123070D01*
Y59583D01*
X120670D01*
X114800Y68000D02*
X112800Y72000D01*
X116800D01*
X114800Y68000D01*
X163051Y54035D02*
X161051Y58035D01*
X165051D01*
X163051Y54035D01*
X163050Y49287D02*
X161050Y53287D01*
X165050D01*
X163050Y49287D01*
X149568Y38937D02*
Y42937D01*
X153568D01*
Y38937D01*
X149568D01*
X150368Y39737D02*
Y42137D01*
X152769D01*
Y39737D01*
X150368D01*
X108461Y54665D02*
Y58665D01*
X112461D01*
Y54665D01*
X108461D01*
X109261Y55465D02*
Y57865D01*
X111661D01*
Y55465D01*
X109261D01*
X102600Y139400D02*
Y143400D01*
X106600D01*
Y139400D01*
X102600D01*
X103400Y140200D02*
Y142600D01*
X105800D01*
Y140200D01*
X103400D01*
X88004Y169810D02*
Y173810D01*
X92004D01*
Y169810D01*
X88004D01*
X88804Y170610D02*
Y173010D01*
X91204D01*
Y170610D01*
X88804D01*
X87600Y160900D02*
X85600Y164900D01*
X89600D01*
X87600Y160900D01*
Y153700D02*
X85600Y157700D01*
X89600D01*
X87600Y153700D01*
X88000Y124588D02*
Y128588D01*
X92000D01*
Y124588D01*
X88000D01*
X88800Y125388D02*
Y127788D01*
X91200D01*
Y125388D01*
X88800D01*
X87600Y147908D02*
X85600Y151908D01*
X89600D01*
X87600Y147908D01*
Y140708D02*
X85600Y144708D01*
X89600D01*
X87600Y140708D01*
X99597Y122500D02*
Y126500D01*
X103597D01*
Y122500D01*
X99597D01*
X100397Y123300D02*
Y125700D01*
X102797D01*
Y123300D01*
X100397D01*
X104500Y78300D02*
X102500Y82300D01*
X106500D01*
X104500Y78300D01*
Y88600D02*
X102500Y92600D01*
X106500D01*
X104500Y88600D01*
X94700Y101704D02*
Y105704D01*
X98700D01*
Y101704D01*
X94700D01*
X95500Y102504D02*
Y104904D01*
X97900D01*
Y102504D01*
X95500D01*
X82500Y97500D02*
Y101500D01*
X86500D01*
Y97500D01*
X82500D01*
X83300Y98300D02*
Y100700D01*
X85700D01*
Y98300D01*
X83300D01*
X94200Y88600D02*
X92200Y92600D01*
X96200D01*
X94200Y88600D01*
Y78300D02*
X92200Y82300D01*
X96200D01*
X94200Y78300D01*
X85100Y78472D02*
X83100Y82472D01*
X87100D01*
X85100Y78472D01*
X80400Y160900D02*
X78400Y164900D01*
X82400D01*
X80400Y160900D01*
X74608D02*
X72608Y164900D01*
X76608D01*
X74608Y160900D01*
X84000Y157300D02*
X82000Y161300D01*
X86000D01*
X84000Y157300D01*
X74608Y153700D02*
X72608Y157700D01*
X76608D01*
X74608Y153700D01*
X71004Y157090D02*
X69004Y161090D01*
X73004D01*
X71004Y157090D01*
X68000Y169810D02*
Y173810D01*
X72000D01*
Y169810D01*
X68000D01*
X68800Y170610D02*
Y173010D01*
X71200D01*
Y170610D01*
X68800D01*
X80400Y153700D02*
X78400Y157700D01*
X82400D01*
X80400Y153700D01*
X74608Y147908D02*
X72608Y151908D01*
X76608D01*
X74608Y147908D01*
X84000Y144308D02*
X82000Y148308D01*
X86000D01*
X84000Y144308D01*
X80400Y147908D02*
X78400Y151908D01*
X82400D01*
X80400Y147908D01*
X71008Y144308D02*
X69008Y148308D01*
X73008D01*
X71008Y144308D01*
X67408Y147908D02*
X65408Y151908D01*
X69408D01*
X67408Y147908D01*
Y140708D02*
X65408Y144708D01*
X69408D01*
X67408Y140708D01*
Y160900D02*
X65408Y164900D01*
X69408D01*
X67408Y160900D01*
X57965Y169810D02*
Y173810D01*
X61965D01*
Y169810D01*
X57965D01*
X58765Y170610D02*
Y173010D01*
X61165D01*
Y170610D01*
X58765D01*
X67408Y153700D02*
X65408Y157700D01*
X69408D01*
X67408Y153700D01*
X48579Y151995D02*
Y155995D01*
X52579D01*
Y151995D01*
X48579D01*
X49380Y152795D02*
Y155195D01*
X51780D01*
Y152795D01*
X49380D01*
X80400Y140708D02*
X78400Y144708D01*
X82400D01*
X80400Y140708D01*
X74608D02*
X72608Y144708D01*
X76608D01*
X74608Y140708D01*
X63000Y124588D02*
Y128588D01*
X67000D01*
Y124588D01*
X63000D01*
X63800Y125388D02*
Y127788D01*
X66200D01*
Y125388D01*
X63800D01*
X80400Y83100D02*
X78400Y87100D01*
X82400D01*
X80400Y83100D01*
X60100Y92100D02*
Y96100D01*
X64100D01*
Y92100D01*
X60100D01*
X60900Y92900D02*
Y95300D01*
X63300D01*
Y92900D01*
X60900D01*
X60100Y95400D02*
Y99400D01*
X64100D01*
Y95400D01*
X60100D01*
X60900Y96200D02*
Y98600D01*
X63300D01*
Y96200D01*
X60900D01*
X51834Y122600D02*
Y126600D01*
X55834D01*
Y122600D01*
X51834D01*
X52634Y123400D02*
Y125800D01*
X55034D01*
Y123400D01*
X52634D01*
X56800Y95395D02*
Y99395D01*
X60800D01*
Y95395D01*
X56800D01*
X57600Y96195D02*
Y98595D01*
X60000D01*
Y96195D01*
X57600D01*
X11700Y83000D02*
Y87000D01*
X15700D01*
Y83000D01*
X11700D01*
X12500Y83800D02*
Y86200D01*
X14900D01*
Y83800D01*
X12500D01*
X104500Y68000D02*
X102500Y72000D01*
X106500D01*
X104500Y68000D01*
X94200D02*
X92200Y72000D01*
X96200D01*
X94200Y68000D01*
X82128Y60200D02*
Y64200D01*
X86128D01*
Y60200D01*
X82128D01*
X82928Y61000D02*
Y63400D01*
X85328D01*
Y61000D01*
X82928D01*
X46995Y39547D02*
X44995Y43547D01*
X48994D01*
X46995Y39547D01*
Y42697D02*
X44995Y46697D01*
X48994D01*
X46995Y42697D01*
X46969Y36427D02*
X44969Y40427D01*
X48969D01*
X46969Y36427D01*
X42573Y71000D02*
Y75000D01*
X46573D01*
Y71000D01*
X42573D01*
X43373Y71800D02*
Y74200D01*
X45773D01*
Y71800D01*
X43373D01*
X35620Y72364D02*
Y76364D01*
X39620D01*
Y72364D01*
X35620D01*
X36420Y73164D02*
Y75564D01*
X38820D01*
Y73164D01*
X36420D01*
X43845Y42697D02*
X41845Y46697D01*
X45845D01*
X43845Y42697D01*
X43843Y39547D02*
X41843Y43547D01*
X45843D01*
X43843Y39547D01*
X43863Y36400D02*
X41863Y40400D01*
X45863D01*
X43863Y36400D01*
X40695Y36402D02*
X38695Y40402D01*
X42695D01*
X40695Y36402D01*
Y39547D02*
X38695Y43547D01*
X42695D01*
X40695Y39547D01*
Y42697D02*
X38695Y46697D01*
X42695D01*
X40695Y42697D01*
X13300Y23400D02*
Y27400D01*
X17300D01*
Y23400D01*
X13300D01*
X14100Y24200D02*
Y26600D01*
X16500D01*
Y24200D01*
X14100D01*
X40300Y56700D02*
Y60700D01*
X44300D01*
Y56700D01*
X40300D01*
X41100Y57500D02*
Y59900D01*
X43500D01*
Y57500D01*
X41100D01*
X52550Y70500D02*
Y74500D01*
X56550D01*
Y70500D01*
X52550D01*
X53350Y71300D02*
Y73700D01*
X55750D01*
Y71300D01*
X53350D01*
X52550Y73500D02*
Y77500D01*
X56550D01*
Y73500D01*
X52550D01*
X53350Y74300D02*
Y76700D01*
X55750D01*
Y74300D01*
X53350D01*
X58550Y73500D02*
Y77500D01*
X62550D01*
Y73500D01*
X58550D01*
X59350Y74300D02*
Y76700D01*
X61750D01*
Y74300D01*
X59350D01*
X58550Y70500D02*
Y74500D01*
X62550D01*
Y70500D01*
X58550D01*
X59350Y71300D02*
Y73700D01*
X61750D01*
Y71300D01*
X59350D01*
X82800Y66900D02*
Y70900D01*
X86800D01*
Y66900D01*
X82800D01*
X83600Y67700D02*
Y70100D01*
X86000D01*
Y67700D01*
X83600D01*
X80800Y69200D02*
Y73200D01*
X84800D01*
Y69200D01*
X80800D01*
X81600Y70000D02*
Y72400D01*
X84000D01*
Y70000D01*
X81600D01*
X86911Y38900D02*
X84911Y42900D01*
X88911D01*
X86911Y38900D01*
X57824Y40532D02*
X55824Y44532D01*
X59824D01*
X57824Y40532D01*
X126376Y90905D02*
X124376Y94905D01*
X128376D01*
X126376Y90905D01*
X84400Y88057D02*
X82400Y92057D01*
X86400D01*
X84400Y88057D01*
X91472Y100100D02*
X89472Y104100D01*
X93472D01*
X91472Y100100D01*
X75700Y84776D02*
X73700Y88776D01*
X77700D01*
X75700Y84776D01*
X110000Y108000D02*
Y112000D01*
X114000D01*
Y108000D01*
X110000D01*
X110800Y108800D02*
Y111200D01*
X113200D01*
Y108800D01*
X110800D01*
X105800Y101700D02*
Y105700D01*
X109800D01*
Y101700D01*
X105800D01*
X106600Y102500D02*
Y104900D01*
X109000D01*
Y102500D01*
X106600D01*
X103000Y100000D02*
Y104000D01*
X107000D01*
Y100000D01*
X103000D01*
X103800Y100800D02*
Y103200D01*
X106200D01*
Y100800D01*
X103800D01*
X56500Y48000D02*
Y52000D01*
X60500D01*
Y48000D01*
X56500D01*
X57300Y48800D02*
Y51200D01*
X59700D01*
Y48800D01*
X57300D01*
X107500Y99000D02*
Y103000D01*
X111500D01*
Y99000D01*
X107500D01*
X108300Y99800D02*
Y102200D01*
X110700D01*
Y99800D01*
X108300D01*
X34404Y47396D02*
Y51396D01*
X38404D01*
Y47396D01*
X34404D01*
X35204Y48196D02*
Y50596D01*
X37604D01*
Y48196D01*
X35204D01*
X93004Y114200D02*
Y118200D01*
X97004D01*
Y114200D01*
X93004D01*
X93804Y115000D02*
Y117400D01*
X96204D01*
Y115000D01*
X93804D01*
X72890Y114000D02*
Y118000D01*
X76890D01*
Y114000D01*
X72890D01*
X73690Y114800D02*
Y117200D01*
X76090D01*
Y114800D01*
X73690D01*
X25200Y43000D02*
Y47000D01*
X29200D01*
Y43000D01*
X25200D01*
X26000Y43800D02*
Y46200D01*
X28400D01*
Y43800D01*
X26000D01*
X11800Y65200D02*
Y69200D01*
X15800D01*
Y65200D01*
X11800D01*
X12600Y66000D02*
Y68400D01*
X15000D01*
Y66000D01*
X12600D01*
X175499Y35735D02*
Y39735D01*
X179499D01*
Y35735D01*
X175499D01*
X176299Y36535D02*
Y38935D01*
X178699D01*
Y36535D01*
X176299D01*
X172699Y35835D02*
Y39835D01*
X176699D01*
Y35835D01*
X172699D01*
X173499Y36635D02*
Y39035D01*
X175899D01*
Y36635D01*
X173499D01*
X175499Y33035D02*
Y37035D01*
X179499D01*
Y33035D01*
X175499D01*
X176299Y33835D02*
Y36235D01*
X178699D01*
Y33835D01*
X176299D01*
X175500Y72337D02*
Y76337D01*
X179500D01*
Y72337D01*
X175500D01*
X176300Y73137D02*
Y75537D01*
X178700D01*
Y73137D01*
X176300D01*
X172700Y72237D02*
Y76237D01*
X176700D01*
Y72237D01*
X172700D01*
X173500Y73037D02*
Y75437D01*
X175900D01*
Y73037D01*
X173500D01*
X175500Y75037D02*
Y79037D01*
X179500D01*
Y75037D01*
X175500D01*
X176300Y75837D02*
Y78237D01*
X178700D01*
Y75837D01*
X176300D01*
X135000Y118500D02*
Y122500D01*
X139000D01*
Y118500D01*
X135000D01*
X135800Y119300D02*
Y121700D01*
X138200D01*
Y119300D01*
X135800D01*
X140500Y122500D02*
Y126500D01*
X144500D01*
Y122500D01*
X140500D01*
X141300Y123300D02*
Y125700D01*
X143700D01*
Y123300D01*
X141300D01*
X146300Y83800D02*
Y87800D01*
X150300D01*
Y83800D01*
X146300D01*
X147100Y84600D02*
Y87000D01*
X149500D01*
Y84600D01*
X147100D01*
X166500Y35200D02*
Y39200D01*
X170500D01*
Y35200D01*
X166500D01*
X167300Y36000D02*
Y38400D01*
X169700D01*
Y36000D01*
X167300D01*
X163000Y35100D02*
Y39100D01*
X167000D01*
Y35100D01*
X163000D01*
X163800Y35900D02*
Y38300D01*
X166200D01*
Y35900D01*
X163800D01*
X159900Y35137D02*
Y39137D01*
X163900D01*
Y35137D01*
X159900D01*
X160700Y35937D02*
Y38337D01*
X163100D01*
Y35937D01*
X160700D01*
X187500Y138202D02*
Y142202D01*
X191500D01*
Y138202D01*
X187500D01*
X188300Y139002D02*
Y141402D01*
X190700D01*
Y139002D01*
X188300D01*
X184500Y138202D02*
Y142202D01*
X188500D01*
Y138202D01*
X184500D01*
X185300Y139002D02*
Y141402D01*
X187700D01*
Y139002D01*
X185300D01*
X181500Y138202D02*
Y142202D01*
X185500D01*
Y138202D01*
X181500D01*
X182300Y139002D02*
Y141402D01*
X184700D01*
Y139002D01*
X182300D01*
X181500Y103598D02*
Y107598D01*
X185500D01*
Y103598D01*
X181500D01*
X182300Y104398D02*
Y106798D01*
X184700D01*
Y104398D01*
X182300D01*
X184500Y103598D02*
Y107598D01*
X188500D01*
Y103598D01*
X184500D01*
X185300Y104398D02*
Y106798D01*
X187700D01*
Y104398D01*
X185300D01*
X187500Y103598D02*
Y107598D01*
X191500D01*
Y103598D01*
X187500D01*
X188300Y104398D02*
Y106798D01*
X190700D01*
Y104398D01*
X188300D01*
X175500Y141700D02*
Y145700D01*
X179500D01*
Y141700D01*
X175500D01*
X176300Y142500D02*
Y144900D01*
X178700D01*
Y142500D01*
X176300D01*
X172700Y138900D02*
Y142900D01*
X176700D01*
Y138900D01*
X172700D01*
X173500Y139700D02*
Y142100D01*
X175900D01*
Y139700D01*
X173500D01*
X175500Y139000D02*
Y143000D01*
X179500D01*
Y139000D01*
X175500D01*
X176300Y139800D02*
Y142200D01*
X178700D01*
Y139800D01*
X176300D01*
X193400Y141131D02*
Y145132D01*
X197400D01*
Y141131D01*
X193400D01*
X194200Y141931D02*
Y144332D01*
X196600D01*
Y141931D01*
X194200D01*
X175500Y102400D02*
Y106400D01*
X179500D01*
Y102400D01*
X175500D01*
X176300Y103200D02*
Y105600D01*
X178700D01*
Y103200D01*
X176300D01*
X172700Y102500D02*
Y106500D01*
X176700D01*
Y102500D01*
X172700D01*
X173500Y103300D02*
Y105700D01*
X175900D01*
Y103300D01*
X173500D01*
X165721Y102501D02*
Y106501D01*
X169721D01*
Y102501D01*
X165721D01*
X166521Y103301D02*
Y105701D01*
X168921D01*
Y103301D01*
X166521D01*
X162810Y102421D02*
Y106421D01*
X166810D01*
Y102421D01*
X162810D01*
X163610Y103221D02*
Y105621D01*
X166010D01*
Y103221D01*
X163610D01*
X192900Y100268D02*
Y104269D01*
X196900D01*
Y100268D01*
X192900D01*
X193700Y101068D02*
Y103469D01*
X196100D01*
Y101068D01*
X193700D01*
X175500Y99700D02*
Y103700D01*
X179500D01*
Y99700D01*
X175500D01*
X176300Y100500D02*
Y102900D01*
X178700D01*
Y100500D01*
X176300D01*
X124000Y135000D02*
Y139000D01*
X128000D01*
Y135000D01*
X124000D01*
X124800Y135800D02*
Y138200D01*
X127200D01*
Y135800D01*
X124800D01*
X135000Y128500D02*
Y132500D01*
X139000D01*
Y128500D01*
X135000D01*
X135800Y129300D02*
Y131700D01*
X138200D01*
Y129300D01*
X135800D01*
X139928Y55882D02*
Y59882D01*
X143928D01*
Y55882D01*
X139928D01*
X140728Y56682D02*
Y59082D01*
X143128D01*
Y56682D01*
X140728D01*
X139928Y63151D02*
Y67150D01*
X143928D01*
Y63151D01*
X139928D01*
X140728Y63951D02*
Y66351D01*
X143128D01*
Y63951D01*
X140728D01*
X58004Y114200D02*
Y118200D01*
X62004D01*
Y114200D01*
X58004D01*
X58804Y115000D02*
Y117400D01*
X61204D01*
Y115000D01*
X58804D01*
X80150Y107650D02*
Y111650D01*
X84150D01*
Y107650D01*
X80150D01*
X80950Y108450D02*
Y110850D01*
X83350D01*
Y108450D01*
X80950D01*
X159900Y102300D02*
Y106300D01*
X163900D01*
Y102300D01*
X159900D01*
X160700Y103100D02*
Y105500D01*
X163100D01*
Y103100D01*
X160700D01*
X112365Y171400D02*
Y175400D01*
X116365D01*
Y171400D01*
X112365D01*
X113165Y172200D02*
Y174600D01*
X115565D01*
Y172200D01*
X113165D01*
X140500Y133500D02*
Y137500D01*
X144500D01*
Y133500D01*
X140500D01*
X141300Y134300D02*
Y136700D01*
X143700D01*
Y134300D01*
X141300D01*
X82700Y83400D02*
Y87400D01*
X86700D01*
Y83400D01*
X82700D01*
X83500Y84200D02*
Y86600D01*
X85900D01*
Y84200D01*
X83500D01*
X4700Y27200D02*
Y31200D01*
X8700D01*
Y27200D01*
X4700D01*
X5500Y28000D02*
Y30400D01*
X7900D01*
Y28000D01*
X5500D01*
X31901Y72234D02*
Y76234D01*
X35901D01*
Y72234D01*
X31901D01*
X32701Y73034D02*
Y75434D01*
X35101D01*
Y73034D01*
X32701D01*
X4700Y47400D02*
Y51400D01*
X8700D01*
Y47400D01*
X4700D01*
X5500Y48200D02*
Y50600D01*
X7900D01*
Y48200D01*
X5500D01*
X16793Y79987D02*
Y83987D01*
X20793D01*
Y79987D01*
X16793D01*
X17593Y80787D02*
Y83187D01*
X19993D01*
Y80787D01*
X17593D01*
X187500Y36837D02*
Y40837D01*
X191500D01*
Y36837D01*
X187500D01*
X188300Y37637D02*
Y40037D01*
X190700D01*
Y37637D01*
X188300D01*
X181500Y36837D02*
Y40837D01*
X185500D01*
Y36837D01*
X181500D01*
X182300Y37637D02*
Y40037D01*
X184700D01*
Y37637D01*
X182300D01*
X184500Y36837D02*
Y40837D01*
X188500D01*
Y36837D01*
X184500D01*
X185300Y37637D02*
Y40037D01*
X187700D01*
Y37637D01*
X185300D01*
X181500Y71337D02*
Y75337D01*
X185500D01*
Y71337D01*
X181500D01*
X182300Y72137D02*
Y74537D01*
X184700D01*
Y72137D01*
X182300D01*
X184500Y71337D02*
Y75337D01*
X188500D01*
Y71337D01*
X184500D01*
X185300Y72137D02*
Y74537D01*
X187700D01*
Y72137D01*
X185300D01*
X187500Y71337D02*
Y75337D01*
X191500D01*
Y71337D01*
X187500D01*
X188300Y72137D02*
Y74537D01*
X190700D01*
Y72137D01*
X188300D01*
X13693Y79987D02*
Y83987D01*
X17693D01*
Y79987D01*
X13693D01*
X14493Y80787D02*
Y83187D01*
X16893D01*
Y80787D01*
X14493D01*
X18193Y77187D02*
Y81187D01*
X22193D01*
Y77187D01*
X18193D01*
X18993Y77987D02*
Y80387D01*
X21393D01*
Y77987D01*
X18993D01*
X14993Y77187D02*
Y81187D01*
X18993D01*
Y77187D01*
X14993D01*
X15793Y77987D02*
Y80387D01*
X18193D01*
Y77987D01*
X15793D01*
X101500Y158000D02*
Y162000D01*
X105500D01*
Y158000D01*
X101500D01*
X102300Y158800D02*
Y161200D01*
X104700D01*
Y158800D01*
X102300D01*
X101510Y163304D02*
Y167304D01*
X105510D01*
Y163304D01*
X101510D01*
X102310Y164104D02*
Y166504D01*
X104710D01*
Y164104D01*
X102310D01*
X121918Y80400D02*
Y84400D01*
X125918D01*
Y80400D01*
X121918D01*
X122718Y81200D02*
Y83600D01*
X125118D01*
Y81200D01*
X122718D01*
X14356Y36950D02*
Y40950D01*
X18356D01*
Y36950D01*
X14356D01*
X15156Y37750D02*
Y40150D01*
X17556D01*
Y37750D01*
X15156D01*
X4755Y37445D02*
Y41445D01*
X8755D01*
Y37445D01*
X4755D01*
X5555Y38245D02*
Y40645D01*
X7955D01*
Y38245D01*
X5555D01*
X13000Y58500D02*
Y62500D01*
X17000D01*
Y58500D01*
X13000D01*
X13800Y59300D02*
Y61700D01*
X16200D01*
Y59300D01*
X13800D01*
X23363Y67228D02*
Y71228D01*
X27363D01*
Y67228D01*
X23363D01*
X24163Y68028D02*
Y70428D01*
X26563D01*
Y68028D01*
X24163D01*
X193400Y33206D02*
Y37205D01*
X197400D01*
Y33206D01*
X193400D01*
X194200Y34005D02*
Y36406D01*
X196600D01*
Y34005D01*
X194200D01*
X193400Y74068D02*
Y78069D01*
X197400D01*
Y74068D01*
X193400D01*
X194200Y74869D02*
Y77268D01*
X196600D01*
Y74869D01*
X194200D01*
D90*
X217100Y117780D02*
G03*
X217100Y117780I-2000J0D01*
G01*
Y137465D02*
G03*
X217100Y137465I-2000J0D01*
G01*
Y127622D02*
G03*
X217100Y127622I-2000J0D01*
G01*
Y107937D02*
G03*
X217100Y107937I-2000J0D01*
G01*
X217098Y41075D02*
G03*
X217098Y41075I-2000J0D01*
G01*
Y70602D02*
G03*
X217098Y70602I-2000J0D01*
G01*
Y50917D02*
G03*
X217098Y50917I-2000J0D01*
G01*
Y60760D02*
G03*
X217098Y60760I-2000J0D01*
G01*
M02*
