G04*
G04 #@! TF.GenerationSoftware,Altium Limited,Altium Designer,26.8.1 (31)*
G04*
G04 Layer_Physical_Order=2*
G04 Layer_Color=36540*
G04 Board_Origin=0|0*
%FSLAX25Y25*%
%MOIN*%
G70*
G04*
G04 #@! TF.SameCoordinates,D1305378-CED7-41CA-A8E7-99A2C117E124*
G04*
G04*
G04 #@! TF.FilePolarity,Positive*
G04*
G01*
G75*
%ADD65C,0.04331*%
%ADD66C,0.05512*%
%ADD67R,0.05512X0.05512*%
%ADD68C,0.12795*%
%ADD69O,0.03937X0.07087*%
%ADD70O,0.03937X0.08661*%
%ADD83C,0.02362*%
G36*
X214626Y176179D02*
X214825Y175179D01*
X214056Y174861D01*
X212845Y174051D01*
X211814Y173021D01*
X211005Y171809D01*
X210447Y170463D01*
X210163Y169034D01*
Y168805D01*
X217560D01*
Y168305D01*
X218060D01*
Y160908D01*
X218289D01*
X219718Y161192D01*
X221064Y161750D01*
X222276Y162559D01*
X223307Y163590D01*
X224116Y164801D01*
X224434Y165570D01*
X225434Y165371D01*
X225434Y21634D01*
X224434Y21435D01*
X224116Y22203D01*
X223307Y23415D01*
X222276Y24445D01*
X221064Y25255D01*
X219718Y25812D01*
X218289Y26097D01*
X218060D01*
Y18699D01*
X217560D01*
Y18199D01*
X210163D01*
Y17970D01*
X210447Y16541D01*
X211005Y15195D01*
X211814Y13983D01*
X212845Y12953D01*
X214056Y12143D01*
X214825Y11825D01*
X214626Y10825D01*
X4962D01*
X4574Y10825D01*
X3814Y10976D01*
X3097Y11273D01*
X2452Y11704D01*
X1904Y12252D01*
X1473Y12897D01*
X1176Y13614D01*
X1025Y14374D01*
X1025Y14762D01*
X1025Y165371D01*
X2025Y165570D01*
X2343Y164801D01*
X3153Y163590D01*
X4183Y162559D01*
X5395Y161750D01*
X6741Y161192D01*
X8170Y160908D01*
X8399D01*
Y168305D01*
X8899D01*
Y168805D01*
X16297D01*
Y169034D01*
X16012Y170463D01*
X15455Y171809D01*
X14645Y173021D01*
X13615Y174051D01*
X12822Y174581D01*
X13125Y175581D01*
X58333D01*
X58754Y175756D01*
X58926Y176172D01*
X61074D01*
X61246Y175756D01*
X61667Y175581D01*
X63333D01*
X63754Y175756D01*
X63926Y176172D01*
X66074D01*
X66246Y175756D01*
X66667Y175581D01*
X68333D01*
X68754Y175756D01*
X68926Y176172D01*
X71074D01*
X71246Y175756D01*
X71667Y175581D01*
X73333D01*
X73754Y175756D01*
X73926Y176172D01*
X76074D01*
X76246Y175756D01*
X76667Y175581D01*
X78333D01*
X78754Y175756D01*
X78926Y176172D01*
X81074D01*
X81246Y175756D01*
X81667Y175581D01*
X83333D01*
X83754Y175756D01*
X83926Y176172D01*
X86074D01*
X86246Y175756D01*
X86667Y175581D01*
X88333D01*
X88754Y175756D01*
X88926Y176172D01*
X91074D01*
X91246Y175756D01*
X91667Y175581D01*
X93333D01*
X93754Y175756D01*
X93926Y176172D01*
X96074D01*
X96246Y175756D01*
X96667Y175581D01*
X112694D01*
X113099Y174581D01*
X112898Y174381D01*
X112634Y173744D01*
Y173056D01*
X112898Y172419D01*
X113385Y171932D01*
X114021Y171669D01*
X114710D01*
X115346Y171932D01*
X115833Y172419D01*
X116096Y173056D01*
Y173744D01*
X115833Y174381D01*
X115632Y174581D01*
X116037Y175581D01*
X156240D01*
X156661Y175756D01*
X156835Y176177D01*
Y176179D01*
X214626Y176179D01*
D02*
G37*
%LPC*%
G36*
X75344Y173541D02*
X74656D01*
X74019Y173277D01*
X73532Y172790D01*
X73269Y172154D01*
Y171466D01*
X73532Y170829D01*
X74019Y170342D01*
X74656Y170079D01*
X75344D01*
X75981Y170342D01*
X76468Y170829D01*
X76731Y171466D01*
Y172154D01*
X76468Y172790D01*
X75981Y173277D01*
X75344Y173541D01*
D02*
G37*
G36*
X96444Y171631D02*
X95756D01*
X95119Y171368D01*
X94632Y170881D01*
X94369Y170244D01*
Y169556D01*
X94632Y168919D01*
X95119Y168432D01*
X95756Y168169D01*
X96444D01*
X97081Y168432D01*
X97568Y168919D01*
X97831Y169556D01*
Y170244D01*
X97568Y170881D01*
X97081Y171368D01*
X96444Y171631D01*
D02*
G37*
G36*
X85348Y173541D02*
X84660D01*
X84023Y173277D01*
X83536Y172790D01*
X83273Y172154D01*
Y171466D01*
X83319Y171355D01*
X83312Y171327D01*
X82628Y170431D01*
X82421D01*
X81785Y170168D01*
X81298Y169681D01*
X81034Y169044D01*
Y168356D01*
X81298Y167719D01*
X81785Y167232D01*
X82421Y166969D01*
X83110D01*
X83746Y167232D01*
X84233Y167719D01*
X84496Y168356D01*
Y169044D01*
X84451Y169155D01*
X84457Y169182D01*
X85141Y170079D01*
X85348D01*
X85985Y170342D01*
X86471Y170829D01*
X86735Y171466D01*
Y172154D01*
X86471Y172790D01*
X85985Y173277D01*
X85348Y173541D01*
D02*
G37*
G36*
X103854Y167035D02*
X103166D01*
X102529Y166771D01*
X102042Y166285D01*
X101779Y165648D01*
Y164960D01*
X102042Y164323D01*
X102529Y163836D01*
X103166Y163573D01*
X103854D01*
X104490Y163836D01*
X104977Y164323D01*
X105241Y164960D01*
Y165648D01*
X104977Y166285D01*
X104490Y166771D01*
X103854Y167035D01*
D02*
G37*
G36*
X217060Y167805D02*
X210163D01*
Y167577D01*
X210447Y166147D01*
X211005Y164801D01*
X211814Y163590D01*
X212845Y162559D01*
X214056Y161750D01*
X215403Y161192D01*
X216832Y160908D01*
X217060D01*
Y167805D01*
D02*
G37*
G36*
X16297D02*
X9399D01*
Y160908D01*
X9628D01*
X11057Y161192D01*
X12403Y161750D01*
X13615Y162559D01*
X14645Y163590D01*
X15455Y164801D01*
X16012Y166147D01*
X16297Y167577D01*
Y167805D01*
D02*
G37*
G36*
X103844Y161731D02*
X103156D01*
X102519Y161468D01*
X102032Y160981D01*
X101769Y160344D01*
Y159656D01*
X102032Y159019D01*
X102519Y158532D01*
X103156Y158269D01*
X103844D01*
X104481Y158532D01*
X104968Y159019D01*
X105231Y159656D01*
Y160344D01*
X104968Y160981D01*
X104481Y161468D01*
X103844Y161731D01*
D02*
G37*
G36*
X195744Y144863D02*
X195056D01*
X194419Y144599D01*
X193932Y144112D01*
X193669Y143476D01*
Y142787D01*
X193932Y142151D01*
X194419Y141664D01*
X195056Y141400D01*
X195744D01*
X196381Y141664D01*
X196868Y142151D01*
X197131Y142787D01*
Y143476D01*
X196868Y144112D01*
X196381Y144599D01*
X195744Y144863D01*
D02*
G37*
G36*
X189844Y141934D02*
X189156D01*
X188519Y141670D01*
X188000Y141212D01*
X187481Y141670D01*
X186844Y141934D01*
X186156D01*
X185519Y141670D01*
X185000Y141212D01*
X184481Y141670D01*
X183844Y141934D01*
X183156D01*
X182519Y141670D01*
X182032Y141183D01*
X181769Y140547D01*
Y139858D01*
X182032Y139222D01*
X182519Y138735D01*
X183156Y138471D01*
X183844D01*
X184481Y138735D01*
X185000Y139193D01*
X185519Y138735D01*
X186156Y138471D01*
X186844D01*
X187481Y138735D01*
X188000Y139193D01*
X188519Y138735D01*
X189156Y138471D01*
X189844D01*
X190481Y138735D01*
X190968Y139222D01*
X191231Y139858D01*
Y140547D01*
X190968Y141183D01*
X190481Y141670D01*
X189844Y141934D01*
D02*
G37*
G36*
X207583Y146479D02*
X206869D01*
X206178Y146294D01*
X205559Y145937D01*
X205053Y145431D01*
X204696Y144812D01*
X204511Y144121D01*
Y143406D01*
X204696Y142716D01*
X205053Y142096D01*
X205559Y141591D01*
X206178Y141234D01*
X206869Y141048D01*
X207583D01*
X208274Y141234D01*
X208893Y141591D01*
X209399Y142096D01*
X209756Y142716D01*
X209941Y143406D01*
Y144121D01*
X209756Y144812D01*
X209399Y145431D01*
X208893Y145937D01*
X208274Y146294D01*
X207583Y146479D01*
D02*
G37*
G36*
X177844Y145431D02*
X177156D01*
X176519Y145168D01*
X176032Y144681D01*
X175769Y144044D01*
Y143356D01*
X175044Y142631D01*
X174356D01*
X173719Y142368D01*
X173232Y141881D01*
X172969Y141244D01*
Y140556D01*
X173232Y139919D01*
X173719Y139432D01*
X174356Y139169D01*
X175044D01*
X175681Y139432D01*
X176150Y139902D01*
X176519Y139532D01*
X177156Y139269D01*
X177844D01*
X178481Y139532D01*
X178968Y140019D01*
X179231Y140656D01*
Y141344D01*
X178968Y141981D01*
X178598Y142350D01*
X178968Y142719D01*
X179231Y143356D01*
Y144044D01*
X178968Y144681D01*
X178481Y145168D01*
X177844Y145431D01*
D02*
G37*
G36*
X126344Y138731D02*
X125656D01*
X125019Y138468D01*
X124532Y137981D01*
X124269Y137344D01*
Y136656D01*
X124532Y136019D01*
X125019Y135532D01*
X125656Y135269D01*
X126344D01*
X126981Y135532D01*
X127468Y136019D01*
X127731Y136656D01*
Y137344D01*
X127468Y137981D01*
X126981Y138468D01*
X126344Y138731D01*
D02*
G37*
G36*
X218406Y140770D02*
X211794D01*
Y134159D01*
X218406D01*
Y140770D01*
D02*
G37*
G36*
X142844Y137231D02*
X142156D01*
X141519Y136968D01*
X141032Y136481D01*
X140769Y135844D01*
Y135156D01*
X141032Y134519D01*
X141519Y134032D01*
X142156Y133769D01*
X142844D01*
X143481Y134032D01*
X143968Y134519D01*
X144231Y135156D01*
Y135844D01*
X143968Y136481D01*
X143481Y136968D01*
X142844Y137231D01*
D02*
G37*
G36*
X137344Y132231D02*
X136656D01*
X136019Y131968D01*
X135532Y131481D01*
X135269Y130844D01*
Y130156D01*
X135532Y129519D01*
X136019Y129032D01*
X136656Y128769D01*
X137344D01*
X137981Y129032D01*
X138468Y129519D01*
X138731Y130156D01*
Y130844D01*
X138468Y131481D01*
X137981Y131968D01*
X137344Y132231D01*
D02*
G37*
G36*
X215535Y130928D02*
X214665D01*
X213824Y130703D01*
X213070Y130267D01*
X212455Y129652D01*
X212019Y128898D01*
X211794Y128057D01*
Y127187D01*
X212019Y126346D01*
X212455Y125592D01*
X213070Y124977D01*
X213824Y124541D01*
X214665Y124316D01*
X215535D01*
X216376Y124541D01*
X217130Y124977D01*
X217745Y125592D01*
X218181Y126346D01*
X218406Y127187D01*
Y128057D01*
X218181Y128898D01*
X217745Y129652D01*
X217130Y130267D01*
X216376Y130703D01*
X215535Y130928D01*
D02*
G37*
G36*
X142844Y126231D02*
X142156D01*
X141519Y125968D01*
X141032Y125481D01*
X140769Y124844D01*
Y124156D01*
X141032Y123519D01*
X141519Y123032D01*
X142156Y122769D01*
X142844D01*
X143481Y123032D01*
X143968Y123519D01*
X144231Y124156D01*
Y124844D01*
X143968Y125481D01*
X143481Y125968D01*
X142844Y126231D01*
D02*
G37*
G36*
X137344Y122231D02*
X136656D01*
X136019Y121968D01*
X135532Y121481D01*
X135269Y120844D01*
Y120156D01*
X135532Y119519D01*
X136019Y119032D01*
X136656Y118769D01*
X137344D01*
X137981Y119032D01*
X138468Y119519D01*
X138731Y120156D01*
Y120844D01*
X138468Y121481D01*
X137981Y121968D01*
X137344Y122231D01*
D02*
G37*
G36*
X142344Y121531D02*
X141656D01*
X141019Y121268D01*
X140532Y120781D01*
X140269Y120144D01*
Y119456D01*
X140532Y118819D01*
X141019Y118332D01*
X141656Y118069D01*
X142344D01*
X142981Y118332D01*
X143468Y118819D01*
X143731Y119456D01*
Y120144D01*
X143468Y120781D01*
X142981Y121268D01*
X142344Y121531D01*
D02*
G37*
G36*
X151544Y123431D02*
X150856D01*
X150219Y123168D01*
X149732Y122681D01*
X149469Y122044D01*
Y121356D01*
X149732Y120719D01*
X150158Y120150D01*
X149732Y119581D01*
X149469Y118944D01*
Y118256D01*
X149732Y117619D01*
X150219Y117132D01*
X150856Y116869D01*
X151544D01*
X152181Y117132D01*
X152668Y117619D01*
X152931Y118256D01*
Y118944D01*
X152668Y119581D01*
X152242Y120150D01*
X152668Y120719D01*
X152931Y121356D01*
Y122044D01*
X152668Y122681D01*
X152181Y123168D01*
X151544Y123431D01*
D02*
G37*
G36*
X215535Y121085D02*
X214665D01*
X213824Y120860D01*
X213070Y120425D01*
X212455Y119809D01*
X212019Y119056D01*
X211794Y118215D01*
Y117344D01*
X212019Y116504D01*
X212455Y115750D01*
X213070Y115134D01*
X213824Y114699D01*
X214665Y114474D01*
X215535D01*
X216376Y114699D01*
X217130Y115134D01*
X217745Y115750D01*
X218181Y116504D01*
X218406Y117344D01*
Y118215D01*
X218181Y119056D01*
X217745Y119809D01*
X217130Y120425D01*
X216376Y120860D01*
X215535Y121085D01*
D02*
G37*
G36*
X95348Y117931D02*
X94660D01*
X94023Y117668D01*
X93537Y117181D01*
X93273Y116544D01*
Y115856D01*
X93537Y115219D01*
X94023Y114732D01*
X94660Y114469D01*
X95348D01*
X95985Y114732D01*
X96472Y115219D01*
X96735Y115856D01*
Y116544D01*
X96472Y117181D01*
X95985Y117668D01*
X95348Y117931D01*
D02*
G37*
G36*
X60348D02*
X59660D01*
X59023Y117668D01*
X58536Y117181D01*
X58273Y116544D01*
Y115856D01*
X58536Y115219D01*
X59023Y114732D01*
X59660Y114469D01*
X60348D01*
X60985Y114732D01*
X61472Y115219D01*
X61735Y115856D01*
Y116544D01*
X61472Y117181D01*
X60985Y117668D01*
X60348Y117931D01*
D02*
G37*
G36*
X75234Y117731D02*
X74546D01*
X73909Y117468D01*
X73422Y116981D01*
X73159Y116344D01*
Y115656D01*
X73422Y115019D01*
X73909Y114532D01*
X74546Y114269D01*
X75234D01*
X75871Y114532D01*
X76358Y115019D01*
X76621Y115656D01*
Y116344D01*
X76358Y116981D01*
X75871Y117468D01*
X75234Y117731D01*
D02*
G37*
G36*
X142244Y114631D02*
X141556D01*
X140919Y114368D01*
X140432Y113881D01*
X140169Y113244D01*
Y112556D01*
X140432Y111919D01*
X140919Y111432D01*
X141556Y111169D01*
X142244D01*
X142881Y111432D01*
X143368Y111919D01*
X143631Y112556D01*
Y113244D01*
X143368Y113881D01*
X142881Y114368D01*
X142244Y114631D01*
D02*
G37*
G36*
X112344Y111731D02*
X111656D01*
X111019Y111468D01*
X110532Y110981D01*
X110269Y110344D01*
Y109656D01*
X110532Y109019D01*
X111019Y108532D01*
X111656Y108269D01*
X112344D01*
X112981Y108532D01*
X113468Y109019D01*
X113731Y109656D01*
Y110344D01*
X113468Y110981D01*
X112981Y111468D01*
X112344Y111731D01*
D02*
G37*
G36*
X82494Y111381D02*
X81806D01*
X81169Y111118D01*
X80682Y110631D01*
X80419Y109994D01*
Y109306D01*
X80682Y108669D01*
X81169Y108182D01*
X81806Y107919D01*
X82494D01*
X83131Y108182D01*
X83618Y108669D01*
X83881Y109306D01*
Y109994D01*
X83618Y110631D01*
X83131Y111118D01*
X82494Y111381D01*
D02*
G37*
G36*
X186844Y107329D02*
X186156D01*
X185519Y107065D01*
X185000Y106607D01*
X184481Y107065D01*
X183844Y107329D01*
X183156D01*
X182519Y107065D01*
X182032Y106578D01*
X181769Y105942D01*
Y105253D01*
X182032Y104617D01*
X182519Y104130D01*
X183156Y103867D01*
X183844D01*
X184481Y104130D01*
X185000Y104588D01*
X185519Y104130D01*
X186156Y103867D01*
X186844D01*
X187481Y104130D01*
X188000Y104588D01*
X188519Y104130D01*
X189156Y103867D01*
X189844D01*
X190481Y104130D01*
X190968Y104617D01*
X191231Y105253D01*
Y105942D01*
X190968Y106578D01*
X190481Y107065D01*
X189844Y107329D01*
X189156D01*
X188519Y107065D01*
X188000Y106607D01*
X187481Y107065D01*
X186844Y107329D01*
D02*
G37*
G36*
X168065Y106232D02*
X167376D01*
X166740Y105968D01*
X165790Y105889D01*
X165482Y106017D01*
X165154Y106152D01*
X164465D01*
X163829Y105889D01*
X162881Y105768D01*
X162244Y106031D01*
X161556D01*
X160919Y105768D01*
X160432Y105281D01*
X160169Y104644D01*
Y103956D01*
X160432Y103319D01*
X160919Y102832D01*
X161556Y102569D01*
X162244D01*
X162881Y102832D01*
X163829Y102954D01*
X164465Y102690D01*
X165154D01*
X165790Y102954D01*
X166740Y103033D01*
X167049Y102905D01*
X167376Y102769D01*
X168065D01*
X168701Y103033D01*
X169188Y103520D01*
X169452Y104156D01*
Y104845D01*
X169188Y105481D01*
X168701Y105968D01*
X168065Y106232D01*
D02*
G37*
G36*
X215535Y111243D02*
X214665D01*
X213824Y111018D01*
X213070Y110582D01*
X212455Y109967D01*
X212019Y109213D01*
X211794Y108372D01*
Y107502D01*
X212019Y106661D01*
X212455Y105907D01*
X213070Y105292D01*
X213824Y104856D01*
X214665Y104631D01*
X215535D01*
X216376Y104856D01*
X217130Y105292D01*
X217745Y105907D01*
X218181Y106661D01*
X218406Y107502D01*
Y108372D01*
X218181Y109213D01*
X217745Y109967D01*
X217130Y110582D01*
X216376Y111018D01*
X215535Y111243D01*
D02*
G37*
G36*
X195244Y104000D02*
X194556D01*
X193919Y103736D01*
X193432Y103249D01*
X193169Y102613D01*
Y101924D01*
X193432Y101288D01*
X193919Y100801D01*
X194556Y100537D01*
X195244D01*
X195881Y100801D01*
X196368Y101288D01*
X196631Y101924D01*
Y102613D01*
X196368Y103249D01*
X195881Y103736D01*
X195244Y104000D01*
D02*
G37*
G36*
X91816Y103831D02*
X91127D01*
X90491Y103568D01*
X90004Y103081D01*
X89741Y102444D01*
Y101756D01*
X90004Y101119D01*
X90491Y100632D01*
X91127Y100369D01*
X91816D01*
X92452Y100632D01*
X92939Y101119D01*
X93203Y101756D01*
Y102444D01*
X92939Y103081D01*
X92452Y103568D01*
X91816Y103831D01*
D02*
G37*
G36*
X175044Y106231D02*
X174356D01*
X173719Y105968D01*
X173232Y105481D01*
X172969Y104844D01*
Y104156D01*
X173232Y103519D01*
X173719Y103032D01*
X174356Y102769D01*
X175044D01*
X175769Y102044D01*
Y101356D01*
X176032Y100719D01*
X176519Y100232D01*
X177156Y99969D01*
X177844D01*
X178481Y100232D01*
X178968Y100719D01*
X179231Y101356D01*
Y102044D01*
X178968Y102681D01*
X178598Y103050D01*
X178968Y103419D01*
X179231Y104056D01*
Y104744D01*
X178968Y105381D01*
X178481Y105868D01*
X177844Y106131D01*
X177156D01*
X176519Y105868D01*
X176150Y105498D01*
X175681Y105968D01*
X175044Y106231D01*
D02*
G37*
G36*
X108144Y105431D02*
X107456D01*
X106819Y105168D01*
X106332Y104681D01*
X106069Y104044D01*
X105344Y103731D01*
X104656D01*
X104019Y103468D01*
X103532Y102981D01*
X103269Y102344D01*
Y101656D01*
X103532Y101019D01*
X104019Y100532D01*
X104656Y100269D01*
X105344D01*
X105981Y100532D01*
X106468Y101019D01*
X106491Y101076D01*
X106962Y101195D01*
X107769Y100656D01*
X108032Y100019D01*
X108519Y99532D01*
X109156Y99269D01*
X109844D01*
X110481Y99532D01*
X110968Y100019D01*
X111231Y100656D01*
Y101344D01*
X110968Y101981D01*
X110481Y102468D01*
X110280Y102551D01*
X109531Y103356D01*
Y104044D01*
X109268Y104681D01*
X108781Y105168D01*
X108144Y105431D01*
D02*
G37*
G36*
X126721Y94636D02*
X126032D01*
X125396Y94372D01*
X124909Y93885D01*
X124645Y93249D01*
Y92560D01*
X124909Y91924D01*
X125396Y91437D01*
X126032Y91174D01*
X126721D01*
X127357Y91437D01*
X127844Y91924D01*
X128108Y92560D01*
Y93249D01*
X127844Y93885D01*
X127357Y94372D01*
X126721Y94636D01*
D02*
G37*
G36*
X84744Y91788D02*
X84056D01*
X83419Y91524D01*
X82932Y91037D01*
X82669Y90401D01*
Y89712D01*
X82932Y89076D01*
X83419Y88589D01*
X84056Y88326D01*
X84744D01*
X85381Y88589D01*
X85868Y89076D01*
X86131Y89712D01*
Y90401D01*
X85868Y91037D01*
X85381Y91524D01*
X84744Y91788D01*
D02*
G37*
G36*
X76044Y88507D02*
X75356D01*
X74719Y88244D01*
X74232Y87757D01*
X73969Y87121D01*
Y86432D01*
X74232Y85796D01*
X74719Y85309D01*
X75356Y85045D01*
X76044D01*
X76681Y85309D01*
X77168Y85796D01*
X77431Y86432D01*
Y87121D01*
X77168Y87757D01*
X76681Y88244D01*
X76044Y88507D01*
D02*
G37*
G36*
X148644Y87531D02*
X147956D01*
X147319Y87268D01*
X146832Y86781D01*
X146569Y86144D01*
Y85456D01*
X146832Y84819D01*
X147319Y84332D01*
X147956Y84069D01*
X148644D01*
X149281Y84332D01*
X149768Y84819D01*
X150031Y85456D01*
Y86144D01*
X149768Y86781D01*
X149281Y87268D01*
X148644Y87531D01*
D02*
G37*
G36*
X85044Y87131D02*
X84356D01*
X83719Y86868D01*
X83232Y86381D01*
X82969Y85744D01*
Y85056D01*
X83232Y84419D01*
X83719Y83932D01*
X84356Y83669D01*
X85044D01*
X85681Y83932D01*
X86168Y84419D01*
X86431Y85056D01*
Y85744D01*
X86168Y86381D01*
X85681Y86868D01*
X85044Y87131D01*
D02*
G37*
G36*
X128405Y85375D02*
X127716D01*
X127080Y85112D01*
X126593Y84625D01*
X126329Y83989D01*
Y83715D01*
X125606Y83459D01*
X125329Y83437D01*
X124899Y83868D01*
X124262Y84131D01*
X123574D01*
X122937Y83868D01*
X122450Y83381D01*
X122187Y82744D01*
Y82056D01*
X122450Y81419D01*
X122937Y80932D01*
X123008Y80903D01*
X123573Y80613D01*
X123569Y79844D01*
Y79156D01*
X123832Y78519D01*
X124319Y78032D01*
X124956Y77769D01*
X125145D01*
X125257Y77766D01*
X125803Y76983D01*
X125564Y76210D01*
X125219Y76068D01*
X124732Y75581D01*
X124469Y74944D01*
Y74256D01*
X124732Y73619D01*
X125219Y73132D01*
X125581Y72983D01*
X125894Y72723D01*
X126119Y71869D01*
X126062Y71730D01*
Y71041D01*
X126325Y70405D01*
X126581Y70149D01*
X126561Y70034D01*
X125644Y69331D01*
X125353Y69331D01*
X124956D01*
X124319Y69068D01*
X123832Y68581D01*
X123569Y67944D01*
Y67256D01*
X123832Y66619D01*
X124319Y66132D01*
X124956Y65869D01*
X124995D01*
X125193Y64869D01*
X125069Y64818D01*
X124582Y64331D01*
X124319Y63694D01*
Y63006D01*
X124582Y62369D01*
X125069Y61882D01*
X125706Y61619D01*
X126394D01*
X127031Y61882D01*
X127518Y62369D01*
X127781Y63006D01*
Y63694D01*
X127518Y64331D01*
X127031Y64818D01*
X126394Y65081D01*
X126356D01*
X126157Y66081D01*
X126281Y66132D01*
X126768Y66619D01*
X126776Y66640D01*
X127952Y66879D01*
X128588Y66615D01*
X128880Y66615D01*
X129277D01*
X129913Y66879D01*
X130400Y67366D01*
X130664Y68002D01*
Y68691D01*
X130400Y69327D01*
X129913Y69814D01*
X129340Y70333D01*
X129500Y70985D01*
X129524Y71041D01*
Y71730D01*
X129260Y72366D01*
X128773Y72853D01*
X128766Y72856D01*
X128543Y73744D01*
X128545Y73758D01*
X129219Y74032D01*
X129856Y73769D01*
X130544D01*
X131181Y74032D01*
X131668Y74519D01*
X131931Y75156D01*
Y75844D01*
X131668Y76481D01*
X131181Y76968D01*
X130544Y77231D01*
X129856D01*
X129378Y78116D01*
X129268Y78382D01*
X128781Y78869D01*
X128144Y79132D01*
X127955D01*
X127448Y79145D01*
X127031Y79844D01*
X126768Y80481D01*
X126281Y80968D01*
X126210Y80997D01*
X125645Y81287D01*
X125649Y82056D01*
Y82329D01*
X126373Y82586D01*
X126649Y82608D01*
X127080Y82177D01*
X127716Y81913D01*
X128405D01*
X129041Y82177D01*
X129528Y82664D01*
X129792Y83300D01*
Y83989D01*
X129528Y84625D01*
X129041Y85112D01*
X128405Y85375D01*
D02*
G37*
G36*
X19138Y83718D02*
X18449D01*
X17813Y83455D01*
X17243Y83029D01*
X16674Y83455D01*
X16038Y83718D01*
X15349D01*
X14713Y83455D01*
X14226Y82968D01*
X13962Y82331D01*
Y81643D01*
X14226Y81006D01*
X14713Y80519D01*
X15348Y80245D01*
X15262Y79531D01*
Y78843D01*
X15526Y78206D01*
X16013Y77719D01*
X16649Y77456D01*
X17338D01*
X17974Y77719D01*
X18593Y78121D01*
X19213Y77719D01*
X19849Y77456D01*
X20538D01*
X21174Y77719D01*
X21661Y78206D01*
X21925Y78843D01*
Y79531D01*
X21661Y80168D01*
X21174Y80655D01*
X20538Y80918D01*
X20525Y81643D01*
Y82331D01*
X20261Y82968D01*
X19774Y83455D01*
X19138Y83718D01*
D02*
G37*
G36*
X148581Y78731D02*
X147893D01*
X147256Y78468D01*
X146769Y77981D01*
X146506Y77344D01*
Y76656D01*
X146769Y76019D01*
X147256Y75532D01*
X147893Y75269D01*
X148581D01*
X149218Y75532D01*
X149705Y76019D01*
X149968Y76656D01*
Y77344D01*
X149705Y77981D01*
X149218Y78468D01*
X148581Y78731D01*
D02*
G37*
G36*
X189844Y75068D02*
X189156D01*
X188519Y74805D01*
X188000Y74346D01*
X187481Y74805D01*
X186844Y75068D01*
X186156D01*
X185519Y74805D01*
X185000Y74346D01*
X184481Y74805D01*
X183844Y75068D01*
X183156D01*
X182519Y74805D01*
X182032Y74318D01*
X181769Y73681D01*
Y72993D01*
X182032Y72356D01*
X182519Y71869D01*
X183156Y71606D01*
X183844D01*
X184481Y71869D01*
X185000Y72328D01*
X185519Y71869D01*
X186156Y71606D01*
X186844D01*
X187481Y71869D01*
X188000Y72328D01*
X188519Y71869D01*
X189156Y71606D01*
X189844D01*
X190481Y71869D01*
X190968Y72356D01*
X191231Y72993D01*
Y73681D01*
X190968Y74318D01*
X190481Y74805D01*
X189844Y75068D01*
D02*
G37*
G36*
X195744Y77800D02*
X195056D01*
X194419Y77536D01*
X193932Y77049D01*
X193669Y76413D01*
Y75724D01*
X193932Y75088D01*
X194419Y74601D01*
X195056Y74337D01*
X195744D01*
X196381Y74601D01*
X196868Y75088D01*
X197131Y75724D01*
Y76413D01*
X196868Y77049D01*
X196381Y77536D01*
X195744Y77800D01*
D02*
G37*
G36*
X207582Y79617D02*
X206867D01*
X206176Y79432D01*
X205557Y79074D01*
X205052Y78569D01*
X204694Y77950D01*
X204509Y77259D01*
Y76544D01*
X204694Y75854D01*
X205052Y75234D01*
X205557Y74729D01*
X206176Y74371D01*
X206867Y74186D01*
X207582D01*
X208273Y74371D01*
X208892Y74729D01*
X209397Y75234D01*
X209755Y75854D01*
X209940Y76544D01*
Y77259D01*
X209755Y77950D01*
X209397Y78569D01*
X208892Y79074D01*
X208273Y79432D01*
X207582Y79617D01*
D02*
G37*
G36*
X177844Y78768D02*
X177156D01*
X176519Y78505D01*
X176032Y78018D01*
X175769Y77381D01*
Y76693D01*
X175044Y75968D01*
X174356D01*
X173719Y75705D01*
X173232Y75218D01*
X172969Y74581D01*
Y73893D01*
X173232Y73256D01*
X173719Y72769D01*
X174356Y72506D01*
X175044D01*
X175681Y72769D01*
X176150Y73239D01*
X176519Y72869D01*
X177156Y72606D01*
X177844D01*
X178481Y72869D01*
X178968Y73356D01*
X179231Y73993D01*
Y74681D01*
X178968Y75318D01*
X178598Y75687D01*
X178968Y76056D01*
X179231Y76693D01*
Y77381D01*
X178968Y78018D01*
X178481Y78505D01*
X177844Y78768D01*
D02*
G37*
G36*
X34245Y75965D02*
X33557D01*
X32920Y75701D01*
X32433Y75214D01*
X32170Y74578D01*
Y73889D01*
X32433Y73253D01*
X32920Y72766D01*
X33557Y72503D01*
X34245D01*
X34881Y72766D01*
X35368Y73253D01*
X35632Y73889D01*
Y74578D01*
X35368Y75214D01*
X34881Y75701D01*
X34245Y75965D01*
D02*
G37*
G36*
X60894Y77231D02*
X60206D01*
X59569Y76968D01*
X59083Y76481D01*
X58819Y75844D01*
Y75156D01*
X59083Y74519D01*
X59541Y74000D01*
X59083Y73481D01*
X58819Y72844D01*
Y72156D01*
X59083Y71519D01*
X59569Y71033D01*
X60206Y70769D01*
X60894D01*
X61531Y71033D01*
X62018Y71519D01*
X62281Y72156D01*
Y72844D01*
X62018Y73481D01*
X61559Y74000D01*
X62018Y74519D01*
X62281Y75156D01*
Y75844D01*
X62018Y76481D01*
X61531Y76968D01*
X60894Y77231D01*
D02*
G37*
G36*
X54894D02*
X54206D01*
X53569Y76968D01*
X53083Y76481D01*
X52819Y75844D01*
Y75156D01*
X53083Y74519D01*
X53541Y74000D01*
X53083Y73481D01*
X52819Y72844D01*
Y72156D01*
X53083Y71519D01*
X53569Y71033D01*
X54206Y70769D01*
X54894D01*
X55531Y71033D01*
X56018Y71519D01*
X56281Y72156D01*
Y72844D01*
X56018Y73481D01*
X55559Y74000D01*
X56018Y74519D01*
X56281Y75156D01*
Y75844D01*
X56018Y76481D01*
X55531Y76968D01*
X54894Y77231D01*
D02*
G37*
G36*
X25707Y70960D02*
X25019D01*
X24382Y70696D01*
X23895Y70209D01*
X23632Y69573D01*
Y68884D01*
X23895Y68248D01*
X24382Y67761D01*
X25019Y67497D01*
X25707D01*
X26344Y67761D01*
X26831Y68248D01*
X27094Y68884D01*
Y69573D01*
X26831Y70209D01*
X26344Y70696D01*
X25707Y70960D01*
D02*
G37*
G36*
X218404Y73908D02*
X211792D01*
Y67296D01*
X218404D01*
Y73908D01*
D02*
G37*
G36*
X83144Y72931D02*
X82456D01*
X81819Y72668D01*
X81332Y72181D01*
X81069Y71544D01*
Y70856D01*
X81332Y70219D01*
X81819Y69732D01*
X82456Y69469D01*
X83069Y69244D01*
X83069Y68556D01*
X83332Y67919D01*
X83819Y67432D01*
X84456Y67169D01*
X85144D01*
X85781Y67432D01*
X86268Y67919D01*
X86531Y68556D01*
Y69244D01*
X86268Y69881D01*
X85781Y70368D01*
X85144Y70631D01*
X84531Y70856D01*
X84531Y71544D01*
X84268Y72181D01*
X83781Y72668D01*
X83144Y72931D01*
D02*
G37*
G36*
X14144Y68931D02*
X13456D01*
X12819Y68668D01*
X12332Y68181D01*
X12069Y67544D01*
Y66856D01*
X12332Y66219D01*
X12819Y65732D01*
X13456Y65469D01*
X14144D01*
X14781Y65732D01*
X15268Y66219D01*
X15531Y66856D01*
Y67544D01*
X15268Y68181D01*
X14781Y68668D01*
X14144Y68931D01*
D02*
G37*
G36*
X142273Y66882D02*
X141584D01*
X140948Y66618D01*
X140461Y66131D01*
X140304Y65751D01*
X140177Y65487D01*
X139244Y65131D01*
X139197Y65131D01*
X138556D01*
X137919Y64868D01*
X137432Y64381D01*
X137169Y63744D01*
Y63056D01*
X137432Y62419D01*
X137919Y61932D01*
X138556Y61669D01*
X139244D01*
X139881Y61932D01*
X140368Y62419D01*
X140525Y62799D01*
X140651Y63063D01*
X141584Y63419D01*
X141631Y63419D01*
X142273D01*
X142909Y63683D01*
X143396Y64170D01*
X143659Y64806D01*
Y65495D01*
X143396Y66131D01*
X142909Y66618D01*
X142273Y66882D01*
D02*
G37*
G36*
X15344Y62231D02*
X14656D01*
X14019Y61968D01*
X13532Y61481D01*
X13269Y60844D01*
Y60156D01*
X13532Y59519D01*
X14019Y59032D01*
X14656Y58769D01*
X15344D01*
X15981Y59032D01*
X16467Y59519D01*
X16731Y60156D01*
Y60844D01*
X16467Y61481D01*
X15981Y61968D01*
X15344Y62231D01*
D02*
G37*
G36*
X215534Y64066D02*
X214663D01*
X213822Y63840D01*
X213069Y63405D01*
X212453Y62790D01*
X212018Y62036D01*
X211792Y61195D01*
Y60325D01*
X212018Y59484D01*
X212453Y58730D01*
X213069Y58114D01*
X213822Y57679D01*
X214663Y57454D01*
X215534D01*
X216374Y57679D01*
X217128Y58114D01*
X217744Y58730D01*
X218179Y59484D01*
X218404Y60325D01*
Y61195D01*
X218179Y62036D01*
X217744Y62790D01*
X217128Y63405D01*
X216374Y63840D01*
X215534Y64066D01*
D02*
G37*
G36*
X42644Y60431D02*
X41956D01*
X41319Y60168D01*
X40832Y59681D01*
X40569Y59044D01*
Y58356D01*
X40832Y57719D01*
X41319Y57232D01*
X41956Y56969D01*
X42644D01*
X43281Y57232D01*
X43767Y57719D01*
X44031Y58356D01*
Y59044D01*
X43767Y59681D01*
X43281Y60168D01*
X42644Y60431D01*
D02*
G37*
G36*
X104144Y62731D02*
X103456D01*
X102819Y62468D01*
X102332Y61981D01*
X102069Y61344D01*
Y60656D01*
X102332Y60019D01*
X102819Y59532D01*
X103456Y59269D01*
X104155Y58852D01*
X104169Y58345D01*
Y58156D01*
X104432Y57519D01*
X104919Y57032D01*
X105556Y56769D01*
X106244D01*
X106881Y57032D01*
X107368Y57519D01*
X107631Y58156D01*
Y58844D01*
X107368Y59481D01*
X106881Y59968D01*
X106409Y60163D01*
X105545Y60648D01*
X105531Y61155D01*
Y61344D01*
X105268Y61981D01*
X104781Y62468D01*
X104144Y62731D01*
D02*
G37*
G36*
X116144Y60031D02*
X115456D01*
X114819Y59768D01*
X114332Y59281D01*
X114069Y58644D01*
Y57956D01*
X114332Y57319D01*
X114819Y56832D01*
X115456Y56569D01*
X116144D01*
X116781Y56832D01*
X117268Y57319D01*
X117531Y57956D01*
Y58644D01*
X117268Y59281D01*
X116781Y59768D01*
X116144Y60031D01*
D02*
G37*
G36*
X142273Y59613D02*
X141584D01*
X140948Y59350D01*
X140461Y58863D01*
X140197Y58226D01*
Y57538D01*
X140461Y56901D01*
X140948Y56415D01*
X141584Y56151D01*
X142273D01*
X142909Y56415D01*
X143396Y56901D01*
X143659Y57538D01*
Y58226D01*
X143396Y58863D01*
X142909Y59350D01*
X142273Y59613D01*
D02*
G37*
G36*
X85944Y58631D02*
X85256D01*
X84619Y58368D01*
X84132Y57881D01*
X83869Y57244D01*
Y56556D01*
X84132Y55919D01*
X84619Y55432D01*
X85256Y55169D01*
X85944D01*
X86581Y55432D01*
X87068Y55919D01*
X87331Y56556D01*
Y57244D01*
X87068Y57881D01*
X86581Y58368D01*
X85944Y58631D01*
D02*
G37*
G36*
X151844Y56831D02*
X151156D01*
X150519Y56568D01*
X150032Y56081D01*
X149769Y55444D01*
Y55255D01*
X149559Y54657D01*
X148862Y54331D01*
X148756D01*
X148119Y54068D01*
X147632Y53581D01*
X147369Y52944D01*
Y52256D01*
X147632Y51619D01*
X148119Y51133D01*
X148756Y50869D01*
X149444D01*
X150081Y51133D01*
X150568Y51619D01*
X150831Y52256D01*
Y52445D01*
X151041Y53043D01*
X151738Y53369D01*
X151844D01*
X152481Y53632D01*
X152968Y54119D01*
X153231Y54756D01*
Y55444D01*
X152968Y56081D01*
X152481Y56568D01*
X151844Y56831D01*
D02*
G37*
G36*
X51544Y58031D02*
X50856D01*
X50219Y57768D01*
X49733Y57281D01*
X49469Y56644D01*
Y55956D01*
X49733Y55319D01*
X50219Y54833D01*
X50169Y53771D01*
X49919Y53668D01*
X49433Y53181D01*
X49169Y52544D01*
Y51856D01*
X49433Y51219D01*
X49919Y50732D01*
X50556Y50469D01*
X51244D01*
X51881Y50732D01*
X52368Y51219D01*
X52631Y51856D01*
Y52544D01*
X52368Y53181D01*
X51881Y53667D01*
X51931Y54729D01*
X52181Y54832D01*
X52668Y55319D01*
X52931Y55956D01*
Y56644D01*
X52668Y57281D01*
X52181Y57768D01*
X51544Y58031D01*
D02*
G37*
G36*
X93844Y61231D02*
X93156D01*
X92519Y60968D01*
X92032Y60481D01*
X91769Y59844D01*
Y59156D01*
X92032Y58519D01*
X92519Y58032D01*
X93156Y57769D01*
X93419D01*
X93569Y57544D01*
Y56856D01*
X93832Y56219D01*
X94319Y55732D01*
X94956Y55469D01*
X95645Y55445D01*
X95669Y54756D01*
Y54756D01*
X95756Y54545D01*
X95932Y54119D01*
X96124Y53928D01*
X96317Y53300D01*
X96124Y52672D01*
X95932Y52481D01*
X95669Y51844D01*
Y51156D01*
X95932Y50519D01*
X96419Y50033D01*
X97056Y49769D01*
X97744D01*
X98381Y50033D01*
X98868Y50519D01*
X99131Y51156D01*
Y51844D01*
X98868Y52481D01*
X98676Y52672D01*
X98483Y53300D01*
X98676Y53928D01*
X98868Y54119D01*
X99131Y54756D01*
Y55444D01*
X98868Y56081D01*
X98381Y56568D01*
X97744Y56831D01*
X97055Y56855D01*
X97031Y57544D01*
Y57544D01*
X96944Y57755D01*
X96768Y58181D01*
X96281Y58668D01*
X95644Y58931D01*
X95381D01*
X95231Y59156D01*
Y59844D01*
X94968Y60481D01*
X94481Y60968D01*
X93844Y61231D01*
D02*
G37*
G36*
X58844Y51731D02*
X58156D01*
X57519Y51468D01*
X57032Y50981D01*
X56769Y50344D01*
Y49656D01*
X57032Y49019D01*
X57519Y48533D01*
X58156Y48269D01*
X58844D01*
X59481Y48533D01*
X59968Y49019D01*
X60231Y49656D01*
Y50344D01*
X59968Y50981D01*
X59481Y51468D01*
X58844Y51731D01*
D02*
G37*
G36*
X7044Y51131D02*
X6356D01*
X5719Y50867D01*
X5232Y50381D01*
X4969Y49744D01*
Y49056D01*
X5232Y48419D01*
X5719Y47932D01*
X6356Y47669D01*
X7044D01*
X7681Y47932D01*
X8168Y48419D01*
X8431Y49056D01*
Y49744D01*
X8168Y50381D01*
X7681Y50867D01*
X7044Y51131D01*
D02*
G37*
G36*
X36748Y51127D02*
X36060D01*
X35423Y50863D01*
X34936Y50376D01*
X34673Y49740D01*
Y49051D01*
X34936Y48415D01*
X35423Y47928D01*
X36060Y47665D01*
X36748D01*
X37385Y47928D01*
X37872Y48415D01*
X38135Y49051D01*
Y49740D01*
X37872Y50376D01*
X37385Y50863D01*
X36748Y51127D01*
D02*
G37*
G36*
X215534Y54223D02*
X214663D01*
X213822Y53998D01*
X213069Y53563D01*
X212453Y52947D01*
X212018Y52193D01*
X211792Y51353D01*
Y50482D01*
X212018Y49641D01*
X212453Y48888D01*
X213069Y48272D01*
X213822Y47837D01*
X214663Y47611D01*
X215534D01*
X216374Y47837D01*
X217128Y48272D01*
X217744Y48888D01*
X218179Y49641D01*
X218404Y50482D01*
Y51353D01*
X218179Y52193D01*
X217744Y52947D01*
X217128Y53563D01*
X216374Y53998D01*
X215534Y54223D01*
D02*
G37*
G36*
X27544Y46731D02*
X26856D01*
X26219Y46468D01*
X25732Y45981D01*
X25469Y45344D01*
Y44656D01*
X25732Y44019D01*
X26219Y43532D01*
X26856Y43269D01*
X27544D01*
X28181Y43532D01*
X28668Y44019D01*
X28931Y44656D01*
Y45344D01*
X28668Y45981D01*
X28181Y46468D01*
X27544Y46731D01*
D02*
G37*
G36*
X33444Y46131D02*
X32756D01*
X32119Y45867D01*
X31633Y45381D01*
X31369Y44744D01*
Y44056D01*
X31633Y43419D01*
X32119Y42933D01*
X32756Y42669D01*
X33444D01*
X34081Y42933D01*
X34567Y43419D01*
X34831Y44056D01*
Y44744D01*
X34567Y45381D01*
X34081Y45867D01*
X33444Y46131D01*
D02*
G37*
G36*
X58168Y44263D02*
X57479D01*
X56843Y43999D01*
X56356Y43512D01*
X56093Y42876D01*
Y42187D01*
X56356Y41551D01*
X56843Y41064D01*
X57479Y40800D01*
X58168D01*
X58804Y41064D01*
X59291Y41551D01*
X59555Y42187D01*
Y42876D01*
X59291Y43512D01*
X58804Y43999D01*
X58168Y44263D01*
D02*
G37*
G36*
X189844Y40568D02*
X189156D01*
X188519Y40305D01*
X188000Y39846D01*
X187481Y40305D01*
X186844Y40568D01*
X186156D01*
X185519Y40305D01*
X185000Y39846D01*
X184481Y40305D01*
X183844Y40568D01*
X183156D01*
X182519Y40305D01*
X182032Y39818D01*
X181769Y39181D01*
Y38493D01*
X182032Y37856D01*
X182519Y37369D01*
X183156Y37106D01*
X183844D01*
X184481Y37369D01*
X185000Y37828D01*
X185519Y37369D01*
X186156Y37106D01*
X186844D01*
X187481Y37369D01*
X188000Y37828D01*
X188519Y37369D01*
X189156Y37106D01*
X189844D01*
X190481Y37369D01*
X190968Y37856D01*
X191231Y38493D01*
Y39181D01*
X190968Y39818D01*
X190481Y40305D01*
X189844Y40568D01*
D02*
G37*
G36*
X87255Y42631D02*
X86567D01*
X85930Y42368D01*
X85444Y41881D01*
X85180Y41244D01*
Y40556D01*
X85444Y39919D01*
X85930Y39432D01*
X86567Y39169D01*
X87255D01*
X87892Y39432D01*
X88379Y39919D01*
X88642Y40556D01*
Y41244D01*
X88379Y41881D01*
X87892Y42368D01*
X87255Y42631D01*
D02*
G37*
G36*
X168844Y38931D02*
X168156D01*
X167519Y38668D01*
X167353Y38501D01*
X166817Y38247D01*
X166072Y38476D01*
X165981Y38568D01*
X165344Y38831D01*
X164656D01*
X164019Y38568D01*
X163432Y38162D01*
X162881Y38605D01*
X162244Y38868D01*
X161556D01*
X160919Y38605D01*
X160432Y38118D01*
X160169Y37481D01*
Y36793D01*
X160432Y36156D01*
X160919Y35669D01*
X161556Y35406D01*
X162244D01*
X162881Y35669D01*
X163469Y36075D01*
X164019Y35632D01*
X164656Y35369D01*
X165344D01*
X165981Y35633D01*
X166147Y35799D01*
X166683Y36053D01*
X167428Y35824D01*
X167519Y35732D01*
X168156Y35469D01*
X168844D01*
X169481Y35732D01*
X169968Y36219D01*
X170231Y36856D01*
Y37544D01*
X169968Y38181D01*
X169481Y38668D01*
X168844Y38931D01*
D02*
G37*
G36*
X215534Y44381D02*
X214663D01*
X213822Y44155D01*
X213069Y43720D01*
X212453Y43105D01*
X212018Y42351D01*
X211792Y41510D01*
Y40640D01*
X212018Y39799D01*
X212453Y39045D01*
X213069Y38429D01*
X213822Y37994D01*
X214663Y37769D01*
X215534D01*
X216374Y37994D01*
X217128Y38429D01*
X217744Y39045D01*
X218179Y39799D01*
X218404Y40640D01*
Y41510D01*
X218179Y42351D01*
X217744Y43105D01*
X217128Y43720D01*
X216374Y44155D01*
X215534Y44381D01*
D02*
G37*
G36*
X7099Y41176D02*
X6411D01*
X5774Y40913D01*
X5287Y40426D01*
X5024Y39789D01*
Y39101D01*
X5287Y38464D01*
X5774Y37977D01*
X6411Y37714D01*
X7099D01*
X7736Y37977D01*
X8223Y38464D01*
X8486Y39101D01*
Y39789D01*
X8223Y40426D01*
X7736Y40913D01*
X7099Y41176D01*
D02*
G37*
G36*
X16700Y40681D02*
X16012D01*
X15375Y40417D01*
X14888Y39930D01*
X14625Y39294D01*
Y38605D01*
X14888Y37969D01*
X15375Y37482D01*
X16012Y37219D01*
X16700D01*
X17337Y37482D01*
X17824Y37969D01*
X18087Y38605D01*
Y39294D01*
X17824Y39930D01*
X17337Y40417D01*
X16700Y40681D01*
D02*
G37*
G36*
X91314Y34631D02*
X90626D01*
X89990Y34367D01*
X89470Y33909D01*
X88951Y34368D01*
X88314Y34631D01*
X87626D01*
X86989Y34367D01*
X86502Y33881D01*
X86239Y33244D01*
Y32556D01*
X86502Y31919D01*
X86989Y31433D01*
X87626Y31169D01*
X88314D01*
X88951Y31433D01*
X89470Y31891D01*
X89990Y31432D01*
X90626Y31169D01*
X91314D01*
X91951Y31433D01*
X92438Y31919D01*
X92701Y32556D01*
Y33244D01*
X92438Y33881D01*
X91951Y34367D01*
X91314Y34631D01*
D02*
G37*
G36*
X72417D02*
X71728D01*
X71092Y34367D01*
X70572Y33909D01*
X70053Y34368D01*
X69417Y34631D01*
X68728D01*
X68092Y34367D01*
X67605Y33881D01*
X67341Y33244D01*
Y32556D01*
X67605Y31919D01*
X68092Y31433D01*
X68728Y31169D01*
X69417D01*
X70053Y31433D01*
X70572Y31891D01*
X71092Y31432D01*
X71728Y31169D01*
X72417D01*
X73053Y31433D01*
X73540Y31919D01*
X73804Y32556D01*
Y33244D01*
X73540Y33881D01*
X73053Y34367D01*
X72417Y34631D01*
D02*
G37*
G36*
X195744Y36937D02*
X195056D01*
X194419Y36673D01*
X193932Y36186D01*
X193669Y35550D01*
Y34861D01*
X193932Y34225D01*
X194419Y33738D01*
X195056Y33474D01*
X195744D01*
X196381Y33738D01*
X196868Y34225D01*
X197131Y34861D01*
Y35550D01*
X196868Y36186D01*
X196381Y36673D01*
X195744Y36937D01*
D02*
G37*
G36*
X175044Y39566D02*
X174355D01*
X173719Y39303D01*
X173232Y38816D01*
X172968Y38180D01*
Y37491D01*
X173232Y36855D01*
X173719Y36368D01*
X174355Y36104D01*
X175043D01*
X175768Y35380D01*
Y34691D01*
X176032Y34055D01*
X176519Y33568D01*
X177155Y33304D01*
X177844D01*
X178480Y33568D01*
X178967Y34055D01*
X179230Y34691D01*
Y35380D01*
X178967Y36016D01*
X178597Y36385D01*
X178967Y36755D01*
X179230Y37391D01*
Y38080D01*
X178967Y38716D01*
X178480Y39203D01*
X177844Y39467D01*
X177155D01*
X176519Y39203D01*
X176149Y38834D01*
X175680Y39303D01*
X175044Y39566D01*
D02*
G37*
G36*
X55844Y34931D02*
X55156D01*
X54519Y34668D01*
X54032Y34181D01*
X53769Y33544D01*
Y32856D01*
X54032Y32219D01*
X54519Y31732D01*
X55156Y31469D01*
X55844D01*
X56481Y31732D01*
X56968Y32219D01*
X57231Y32856D01*
Y33544D01*
X56968Y34181D01*
X56481Y34668D01*
X55844Y34931D01*
D02*
G37*
G36*
X36466Y35551D02*
X35777D01*
X35141Y35287D01*
X34654Y34800D01*
X34391Y34164D01*
Y33475D01*
X34654Y32839D01*
X35141Y32352D01*
X35159Y31262D01*
X35069Y31044D01*
Y30356D01*
X35333Y29719D01*
X35819Y29232D01*
X36456Y28969D01*
X37144D01*
X37781Y29232D01*
X38267Y29719D01*
X38531Y30356D01*
Y31044D01*
X38267Y31681D01*
X37781Y32168D01*
X37762Y33257D01*
X37853Y33475D01*
Y34164D01*
X37589Y34800D01*
X37102Y35287D01*
X36466Y35551D01*
D02*
G37*
G36*
X7044Y30931D02*
X6356D01*
X5719Y30667D01*
X5232Y30181D01*
X4969Y29544D01*
Y28856D01*
X5232Y28219D01*
X5719Y27733D01*
X6356Y27469D01*
X7044D01*
X7681Y27733D01*
X8168Y28219D01*
X8431Y28856D01*
Y29544D01*
X8168Y30181D01*
X7681Y30667D01*
X7044Y30931D01*
D02*
G37*
G36*
X49044Y30531D02*
X48356D01*
X47719Y30268D01*
X47232Y29781D01*
X46969Y29144D01*
Y28456D01*
X47232Y27819D01*
X47719Y27332D01*
X48356Y27069D01*
X49044D01*
X49681Y27332D01*
X50168Y27819D01*
X50431Y28456D01*
Y29144D01*
X50168Y29781D01*
X49681Y30268D01*
X49044Y30531D01*
D02*
G37*
G36*
X108946Y29344D02*
X108257D01*
X107621Y29081D01*
X107134Y28594D01*
X106870Y27957D01*
Y27269D01*
X107134Y26632D01*
X107621Y26145D01*
X108257Y25882D01*
X108946D01*
X109582Y26145D01*
X110069Y26632D01*
X110332Y27269D01*
Y27957D01*
X110069Y28594D01*
X109582Y29081D01*
X108946Y29344D01*
D02*
G37*
G36*
X217060Y26097D02*
X216832D01*
X215403Y25812D01*
X214056Y25255D01*
X212845Y24445D01*
X211814Y23415D01*
X211005Y22203D01*
X210447Y20857D01*
X210163Y19428D01*
Y19199D01*
X217060D01*
Y26097D01*
D02*
G37*
G36*
X108929Y22472D02*
X108240D01*
X107604Y22209D01*
X107117Y21722D01*
X106854Y21086D01*
Y20397D01*
X107117Y19761D01*
X107604Y19274D01*
X108240Y19010D01*
X108929D01*
X109565Y19274D01*
X110052Y19761D01*
X110316Y20397D01*
Y21086D01*
X110052Y21722D01*
X109565Y22209D01*
X108929Y22472D01*
D02*
G37*
G36*
X25144Y20731D02*
X24456D01*
X23819Y20468D01*
X23333Y19981D01*
X23069Y19344D01*
X23048Y18652D01*
X22356Y18531D01*
X21719Y18268D01*
X21233Y17781D01*
X20969Y17144D01*
Y16456D01*
X21233Y15819D01*
X21719Y15333D01*
X22356Y15069D01*
X23071Y14971D01*
X23269Y14256D01*
X23532Y13619D01*
X24019Y13133D01*
X24656Y12869D01*
X25344D01*
X25981Y13133D01*
X26467Y13619D01*
X26731Y14256D01*
X26752Y14948D01*
X27444Y15069D01*
X28081Y15333D01*
X28567Y15819D01*
X28831Y16456D01*
Y17144D01*
X28567Y17781D01*
X28081Y18268D01*
X27444Y18531D01*
X26729Y18629D01*
X26531Y19344D01*
X26267Y19981D01*
X25781Y20468D01*
X25144Y20731D01*
D02*
G37*
%LPD*%
D65*
X207226Y143764D02*
D03*
X207224Y76902D02*
D03*
D66*
X215100Y117780D02*
D03*
Y127622D02*
D03*
Y107937D02*
D03*
X215098Y41075D02*
D03*
Y50917D02*
D03*
Y60760D02*
D03*
D67*
X215100Y137465D02*
D03*
X215098Y70602D02*
D03*
D68*
X217560Y168305D02*
D03*
Y18699D02*
D03*
X8899Y168305D02*
D03*
D69*
X97021Y35136D02*
D03*
X63021D02*
D03*
D70*
X97021Y19388D02*
D03*
X63021D02*
D03*
D83*
X151500Y55100D02*
D03*
X149100Y52600D02*
D03*
X151200Y118600D02*
D03*
Y121700D02*
D03*
X130200Y75500D02*
D03*
X138900Y63400D02*
D03*
X128060Y83644D02*
D03*
X115800Y58300D02*
D03*
X78500Y56800D02*
D03*
X85600Y56900D02*
D03*
X103800Y61000D02*
D03*
X100996Y24244D02*
D03*
X108585Y20741D02*
D03*
X108601Y27613D02*
D03*
X191736Y64037D02*
D03*
Y130900D02*
D03*
Y114700D02*
D03*
Y47837D02*
D03*
X50900Y52200D02*
D03*
X51200Y56300D02*
D03*
X38780Y58571D02*
D03*
X35000Y58500D02*
D03*
X22050Y69250D02*
D03*
X22700Y16800D02*
D03*
X24800Y19000D02*
D03*
X47508Y15800D02*
D03*
X48600Y25400D02*
D03*
X46000Y20900D02*
D03*
X48700Y28800D02*
D03*
X36800Y30700D02*
D03*
X36122Y33820D02*
D03*
X55500Y33200D02*
D03*
X53500Y15435D02*
D03*
X27100Y16800D02*
D03*
X25000Y14600D02*
D03*
X69072Y32900D02*
D03*
X72072D02*
D03*
X87970D02*
D03*
X90970D02*
D03*
X33100Y44400D02*
D03*
X142000Y119800D02*
D03*
X93500Y59500D02*
D03*
X95300Y57200D02*
D03*
X97400Y55100D02*
D03*
Y51500D02*
D03*
X96100Y169900D02*
D03*
X82765Y168700D02*
D03*
X85004Y171810D02*
D03*
X75000D02*
D03*
X148237Y77000D02*
D03*
X125300Y79500D02*
D03*
X127800Y77401D02*
D03*
X126200Y74600D02*
D03*
X127793Y71385D02*
D03*
X128932Y68346D02*
D03*
X125300Y67600D02*
D03*
X126050Y63350D02*
D03*
X141928Y68737D02*
D03*
X141900Y112900D02*
D03*
X105900Y58500D02*
D03*
X116200Y53800D02*
D03*
X116100Y44900D02*
D03*
X64442Y41200D02*
D03*
X67443D02*
D03*
X60500Y47300D02*
D03*
X92600Y41200D02*
D03*
X95600D02*
D03*
X198400Y134300D02*
D03*
X189500Y152898D02*
D03*
X186500D02*
D03*
X183500D02*
D03*
X172549Y127448D02*
D03*
X172548Y122699D02*
D03*
X167799Y127448D02*
D03*
Y122698D02*
D03*
X198400Y111100D02*
D03*
X172548Y117949D02*
D03*
X167800Y117950D02*
D03*
X183500Y92802D02*
D03*
X189500D02*
D03*
X186500D02*
D03*
X171300Y102900D02*
D03*
X157700Y142572D02*
D03*
X143000Y130000D02*
D03*
X105765Y168500D02*
D03*
X163051Y122698D02*
D03*
Y127448D02*
D03*
X163050Y117950D02*
D03*
X151206Y107543D02*
D03*
X126700Y96300D02*
D03*
X126000Y103500D02*
D03*
X198400Y67437D02*
D03*
X189500Y86135D02*
D03*
X186500D02*
D03*
X183500D02*
D03*
X172549Y60785D02*
D03*
X167799D02*
D03*
X172548Y56036D02*
D03*
X167799Y56035D02*
D03*
X198400Y44287D02*
D03*
X172548Y51286D02*
D03*
X167800Y51287D02*
D03*
X183500Y26037D02*
D03*
X189500D02*
D03*
X186500D02*
D03*
X171300Y35737D02*
D03*
X157700Y75709D02*
D03*
X163051Y60785D02*
D03*
X114800Y90600D02*
D03*
Y80300D02*
D03*
X141928Y61550D02*
D03*
X121870Y60783D02*
D03*
X114800Y70000D02*
D03*
X163051Y56035D02*
D03*
X163050Y51287D02*
D03*
X151568Y40937D02*
D03*
X110461Y56665D02*
D03*
X104600Y141400D02*
D03*
X90004Y171810D02*
D03*
X87600Y162900D02*
D03*
Y155700D02*
D03*
X90000Y126588D02*
D03*
X87600Y149908D02*
D03*
Y142708D02*
D03*
X101597Y124500D02*
D03*
X104500Y80300D02*
D03*
Y90600D02*
D03*
X96700Y103704D02*
D03*
X84500Y99500D02*
D03*
X94200Y90600D02*
D03*
Y80300D02*
D03*
X85100Y80472D02*
D03*
X80400Y162900D02*
D03*
X74608D02*
D03*
X84000Y159300D02*
D03*
X74608Y155700D02*
D03*
X71004Y159090D02*
D03*
X70000Y171810D02*
D03*
X80400Y155700D02*
D03*
X74608Y149908D02*
D03*
X84000Y146308D02*
D03*
X80400Y149908D02*
D03*
X71008Y146308D02*
D03*
X67408Y149908D02*
D03*
Y142708D02*
D03*
Y162900D02*
D03*
X59965Y171810D02*
D03*
X67408Y155700D02*
D03*
X50580Y153995D02*
D03*
X80400Y142708D02*
D03*
X74608D02*
D03*
X65000Y126588D02*
D03*
X80400Y85100D02*
D03*
X62100Y94100D02*
D03*
Y97400D02*
D03*
X53834Y124600D02*
D03*
X58800Y97395D02*
D03*
X13700Y85000D02*
D03*
X104500Y70000D02*
D03*
X94200D02*
D03*
X84128Y62200D02*
D03*
X46995Y41547D02*
D03*
Y44697D02*
D03*
X46969Y38427D02*
D03*
X44573Y73000D02*
D03*
X37620Y74365D02*
D03*
X43845Y44697D02*
D03*
X43843Y41547D02*
D03*
X43863Y38400D02*
D03*
X40695Y38402D02*
D03*
Y41547D02*
D03*
Y44697D02*
D03*
X15300Y25400D02*
D03*
X42300Y58700D02*
D03*
X54550Y72500D02*
D03*
Y75500D02*
D03*
X60550D02*
D03*
Y72500D02*
D03*
X84800Y68900D02*
D03*
X82800Y71200D02*
D03*
X86911Y40900D02*
D03*
X57824Y42531D02*
D03*
X126376Y92905D02*
D03*
X84400Y90057D02*
D03*
X91472Y102100D02*
D03*
X75700Y86776D02*
D03*
X112000Y110000D02*
D03*
X107800Y103700D02*
D03*
X105000Y102000D02*
D03*
X58500Y50000D02*
D03*
X109500Y101000D02*
D03*
X36404Y49396D02*
D03*
X95004Y116200D02*
D03*
X74890Y116000D02*
D03*
X27200Y45000D02*
D03*
X13800Y67200D02*
D03*
X177499Y37735D02*
D03*
X174699Y37835D02*
D03*
X177499Y35035D02*
D03*
X177500Y74337D02*
D03*
X174700Y74237D02*
D03*
X177500Y77037D02*
D03*
X137000Y120500D02*
D03*
X142500Y124500D02*
D03*
X148300Y85800D02*
D03*
X168500Y37200D02*
D03*
X165000Y37100D02*
D03*
X161900Y37137D02*
D03*
X189500Y140202D02*
D03*
X186500D02*
D03*
X183500D02*
D03*
Y105598D02*
D03*
X186500Y105598D02*
D03*
X189500Y105598D02*
D03*
X177500Y143700D02*
D03*
X174700Y140900D02*
D03*
X177500Y141000D02*
D03*
X195400Y143131D02*
D03*
X177500Y104400D02*
D03*
X174700Y104500D02*
D03*
X167721Y104501D02*
D03*
X164810Y104421D02*
D03*
X194900Y102269D02*
D03*
X177500Y101700D02*
D03*
X126000Y137000D02*
D03*
X137000Y130500D02*
D03*
X141928Y57882D02*
D03*
Y65150D02*
D03*
X60004Y116200D02*
D03*
X82150Y109650D02*
D03*
X161900Y104300D02*
D03*
X114365Y173400D02*
D03*
X142500Y135500D02*
D03*
X84700Y85400D02*
D03*
X6700Y29200D02*
D03*
X33901Y74234D02*
D03*
X6700Y49400D02*
D03*
X18793Y81987D02*
D03*
X189500Y38837D02*
D03*
X183500D02*
D03*
X186500D02*
D03*
X183500Y73337D02*
D03*
X186500D02*
D03*
X189500D02*
D03*
X15693Y81987D02*
D03*
X20193Y79187D02*
D03*
X16993D02*
D03*
X103500Y160000D02*
D03*
X103510Y165304D02*
D03*
X123918Y82400D02*
D03*
X16356Y38950D02*
D03*
X6755Y39445D02*
D03*
X15000Y60500D02*
D03*
X25363Y69228D02*
D03*
X195400Y35206D02*
D03*
Y76069D02*
D03*
M02*
