G04*
G04 #@! TF.GenerationSoftware,Altium Limited,Altium Designer,26.8.1 (31)*
G04*
G04 Layer_Color=32768*
G04 Board_Origin=0|0*
%FSLAX25Y25*%
%MOIN*%
G70*
G04*
G04 #@! TF.SameCoordinates,D1305378-CED7-41CA-A8E7-99A2C117E124*
G04*
G04*
G04 #@! TF.FilePolarity,Positive*
G04*
G01*
G75*
%ADD13C,0.00394*%
%ADD16C,0.00600*%
%ADD86C,0.00197*%
G36*
X113912Y18044D02*
X102888D01*
Y23556D01*
X113912D01*
Y18044D01*
D02*
G37*
G36*
X26000Y86950D02*
D01*
Y109850D01*
D01*
Y111400D01*
X52000D01*
Y109850D01*
D01*
Y86950D01*
D01*
Y85400D01*
X26000D01*
Y86950D01*
D02*
G37*
G36*
X113924Y24844D02*
X102900D01*
Y30356D01*
X113924D01*
Y24844D01*
D02*
G37*
D13*
X29216Y25000D02*
X31184D01*
X30200Y24016D02*
Y25984D01*
X78510Y78647D02*
X82290D01*
X80400Y76758D02*
Y80537D01*
X75700Y81717D02*
Y83883D01*
X74617Y82800D02*
X76783D01*
X20158Y47348D02*
Y51285D01*
X18190Y49316D02*
X22127D01*
X116000Y135500D02*
X136000D01*
Y105500D02*
Y135500D01*
X116000Y105500D02*
X136000D01*
X116000D02*
Y135500D01*
X57100Y79331D02*
Y83268D01*
X55132Y81300D02*
X59069D01*
X88752Y94473D02*
X90327Y96048D01*
X88752Y64552D02*
Y96048D01*
Y64552D02*
X120248D01*
Y96048D01*
X88752D02*
X120248D01*
X53500Y21932D02*
Y25868D01*
X51531Y23900D02*
X55468D01*
X110165Y167731D02*
Y171669D01*
X108197Y169700D02*
X112134D01*
X56019Y118231D02*
Y122169D01*
X54050Y120200D02*
X57987D01*
X98912Y118231D02*
Y122169D01*
X96943Y120200D02*
X100880D01*
X37075Y15800D02*
X41012D01*
X39043Y13832D02*
Y17768D01*
D16*
X26000Y85400D02*
X52000D01*
Y86950D01*
Y109850D02*
Y111400D01*
X26000D02*
X52000D01*
X26000Y109850D02*
Y111400D01*
Y85400D02*
Y86950D01*
X52000D02*
Y109850D01*
X26000Y86950D02*
Y109850D01*
D86*
X21558Y21063D02*
X38842D01*
X21558D02*
Y28937D01*
X38842D01*
Y21063D02*
Y28937D01*
X25650Y28992D02*
Y45606D01*
X11476Y28992D02*
X25650D01*
X11476D02*
Y45606D01*
X25650D01*
X117172Y50847D02*
X126228D01*
X117172D02*
Y56753D01*
X126228D01*
Y50847D02*
Y56753D01*
X71857Y64630D02*
Y70535D01*
Y64630D02*
X80912D01*
Y70535D01*
X71857D02*
X80912D01*
X54528Y64547D02*
Y70453D01*
X45472D02*
X54528D01*
X45472Y64547D02*
Y70453D01*
Y64547D02*
X54528D01*
X77447Y72742D02*
Y84553D01*
X83353Y72742D02*
Y84553D01*
X77447Y72742D02*
X83353D01*
X77447Y84553D02*
X83353D01*
X74125Y85753D02*
X77275D01*
X74125Y79847D02*
X77275D01*
Y85753D01*
X74125Y79847D02*
Y85753D01*
X11575Y52992D02*
X25748D01*
Y69606D01*
X11575D02*
X25748D01*
X11575Y52992D02*
Y69606D01*
X11536Y45773D02*
X28780D01*
X11536D02*
Y52859D01*
X28780Y45773D02*
Y52859D01*
X11536D02*
X28780D01*
X195585Y99532D02*
Y111068D01*
X201215Y99532D02*
Y111068D01*
X195585D02*
X201215D01*
X195585Y99532D02*
X201215D01*
X48478Y84843D02*
X65722D01*
Y77757D02*
Y84843D01*
X48478Y77757D02*
Y84843D01*
Y77757D02*
X65722D01*
X52401Y103472D02*
X64999D01*
X52401Y84928D02*
X64999D01*
X52401D02*
Y103472D01*
X64999Y84928D02*
Y103472D01*
X73866Y118224D02*
Y121176D01*
Y118224D02*
X80673D01*
X73866Y121176D02*
X80673D01*
Y118224D02*
Y121176D01*
X-1240Y176177D02*
Y235232D01*
Y176177D02*
X52342D01*
Y127437D02*
Y176177D01*
Y127437D02*
X102657D01*
Y176177D01*
X156240D01*
Y235232D01*
X-1240D02*
X156240D01*
X155576Y43813D02*
Y68261D01*
X180024Y43813D02*
Y68261D01*
X155576D02*
X180024D01*
X155576Y43813D02*
X180024D01*
X159485Y79805D02*
X165115D01*
X159485Y68269D02*
X165115D01*
X159485D02*
Y79805D01*
X165115Y68269D02*
Y79805D01*
X195585Y55805D02*
X201215D01*
X195585Y44269D02*
X201215D01*
X195585D02*
Y55805D01*
X201215Y44269D02*
Y55805D01*
X172540Y68235D02*
Y72565D01*
X165060D02*
X172540D01*
X165060Y68235D02*
Y72565D01*
Y68235D02*
X172540D01*
X48382Y15435D02*
X58618D01*
X48382Y32365D02*
X58618D01*
X48382Y15435D02*
Y32365D01*
X58618Y15435D02*
Y32365D01*
X106425Y163007D02*
X113906D01*
X106425Y176393D02*
X113906D01*
X106425Y163007D02*
Y176393D01*
X113906Y163007D02*
Y176393D01*
X180201Y85409D02*
X192799D01*
X180201Y66865D02*
X192799D01*
X180201D02*
Y85409D01*
X192799Y66865D02*
Y85409D01*
X5279Y41072D02*
X8231D01*
Y47879D01*
X5279Y41072D02*
Y47879D01*
X8231D01*
X49326Y116460D02*
X62712D01*
X49326Y123940D02*
X62712D01*
Y116460D02*
Y123940D01*
X49326Y116460D02*
Y123940D01*
X92219Y123940D02*
X105605D01*
X92219Y116460D02*
X105605D01*
X92219D02*
Y123940D01*
X105605Y116460D02*
Y123940D01*
X155576Y110476D02*
X180024D01*
X155576D02*
Y134924D01*
X180024Y110476D02*
Y134924D01*
X155576D02*
X180024D01*
X5447Y60372D02*
X11353D01*
Y69428D01*
X5447D02*
X11353D01*
X5447Y60372D02*
Y69428D01*
X5279Y37618D02*
X8231D01*
X5279Y30811D02*
Y37618D01*
X8231Y30811D02*
Y37618D01*
X5279Y30811D02*
X8231D01*
X143527Y67261D02*
Y70213D01*
Y67261D02*
X150334D01*
X143527Y70213D02*
X150334D01*
Y67261D02*
Y70213D01*
X143527Y56406D02*
Y59358D01*
Y56406D02*
X150334D01*
X143527Y59358D02*
X150334D01*
Y56406D02*
Y59358D01*
X143527Y123069D02*
Y126021D01*
Y123069D02*
X150334D01*
X143527Y126021D02*
X150334D01*
Y123069D02*
Y126021D01*
X143527Y133924D02*
Y136876D01*
Y133924D02*
X150334D01*
X143527Y136876D02*
X150334D01*
Y133924D02*
Y136876D01*
X201215Y67469D02*
Y79005D01*
X195585Y67469D02*
Y79005D01*
Y67469D02*
X201215D01*
X195585Y79005D02*
X201215D01*
X195585Y55869D02*
Y67405D01*
X201215Y55869D02*
Y67405D01*
X195585D02*
X201215D01*
X195585Y55869D02*
X201215D01*
X180201Y26565D02*
Y45109D01*
X192799Y26565D02*
Y45109D01*
X180201D02*
X192799D01*
X180201Y26565D02*
X192799D01*
X195585Y32669D02*
Y44205D01*
X201215Y32669D02*
Y44205D01*
X195585D02*
X201215D01*
X195585Y32669D02*
X201215D01*
X151832Y38122D02*
Y43752D01*
X163368Y38122D02*
Y43752D01*
X151832Y38122D02*
X163368D01*
X151832Y43752D02*
X163368D01*
X180201Y61222D02*
X191736D01*
X180201Y66852D02*
X191736D01*
X180201Y61222D02*
Y66852D01*
X191736Y61222D02*
Y66852D01*
X180201Y45022D02*
X191736D01*
X180201Y50652D02*
X191736D01*
X180201Y45022D02*
Y50652D01*
X191736Y45022D02*
Y50652D01*
X47508Y10682D02*
Y20918D01*
X30579Y10682D02*
Y20918D01*
Y10682D02*
X47508D01*
X30579Y20918D02*
X47508D01*
X159485Y146468D02*
X165115D01*
X159485Y134932D02*
X165115D01*
X159485D02*
Y146468D01*
X165115Y134932D02*
Y146468D01*
X195585Y122668D02*
X201215D01*
X195585Y111132D02*
X201215D01*
X195585D02*
Y122668D01*
X201215Y111132D02*
Y122668D01*
X191736Y128085D02*
Y133715D01*
X180201Y128085D02*
Y133715D01*
X191736D01*
X180201Y128085D02*
X191736D01*
X180201Y152272D02*
X192799D01*
X180201Y133728D02*
X192799D01*
X180201D02*
Y152272D01*
X192799Y133728D02*
Y152272D01*
X172540Y134935D02*
Y139265D01*
X165060D02*
X172540D01*
X165060Y134935D02*
Y139265D01*
Y134935D02*
X172540D01*
X191736Y111885D02*
Y117515D01*
X180201Y111885D02*
Y117515D01*
X191736D01*
X180201Y111885D02*
X191736D01*
X195585Y145868D02*
X201215D01*
X195585Y134332D02*
X201215D01*
X195585D02*
Y145868D01*
X201215Y134332D02*
Y145868D01*
X195585Y122732D02*
Y134268D01*
X201215Y122732D02*
Y134268D01*
X195585D02*
X201215D01*
X195585Y122732D02*
X201215D01*
X151832Y104785D02*
Y110415D01*
X163368Y104785D02*
Y110415D01*
X151832Y104785D02*
X163368D01*
X151832Y110415D02*
X163368D01*
X180201Y93428D02*
X192799D01*
X180201Y111972D02*
X192799D01*
Y93428D02*
Y111972D01*
X180201Y93428D02*
Y111972D01*
M02*
