G04*
G04 #@! TF.GenerationSoftware,Altium Limited,Altium Designer,26.8.1 (31)*
G04*
G04 Layer_Color=32896*
G04 Board_Origin=0|0*
%FSLAX25Y25*%
%MOIN*%
G70*
G04*
G04 #@! TF.SameCoordinates,D1305378-CED7-41CA-A8E7-99A2C117E124*
G04*
G04*
G04 #@! TF.FilePolarity,Positive*
G04*
G01*
G75*
%ADD11C,0.00787*%
%ADD86C,0.00197*%
D11*
X201321Y97898D02*
X224746D01*
Y147504D01*
X201321D02*
X224746D01*
X201321Y97898D02*
Y147504D01*
X103130Y40528D02*
Y49190D01*
Y40528D02*
X114564D01*
Y49190D01*
X103130D02*
X114564D01*
X73963Y79704D02*
X77398D01*
X73963Y72725D02*
Y79704D01*
Y72725D02*
X77398D01*
Y79704D01*
X14963Y70038D02*
Y74762D01*
Y70038D02*
X22837D01*
Y74762D01*
X14963D02*
X22837D01*
X27799Y81297D02*
X40004D01*
X27799Y67301D02*
Y81297D01*
Y67301D02*
X40004D01*
Y81297D01*
X201319Y31035D02*
Y80642D01*
X224744D01*
Y31035D02*
Y80642D01*
X201319Y31035D02*
X224744D01*
X12363Y16838D02*
X20237D01*
X12363D02*
Y21562D01*
X20237D01*
Y16838D02*
Y21562D01*
D86*
X99228Y23447D02*
X102772D01*
X99228Y16754D02*
X102772D01*
Y23447D01*
X99228Y16754D02*
Y23447D01*
X101000Y19017D02*
Y21183D01*
X99917Y20100D02*
X102083D01*
X100017Y28300D02*
X102183D01*
X101100Y27217D02*
Y29383D01*
X102872Y24953D02*
Y31646D01*
X99328Y24953D02*
Y31646D01*
X102872D01*
X99328Y24953D02*
X102872D01*
X192328Y118546D02*
X195872D01*
X192328Y111854D02*
X195872D01*
Y118546D01*
X192328Y111854D02*
Y118546D01*
X194100Y114117D02*
Y116283D01*
X193017Y115200D02*
X195183D01*
X192328Y51683D02*
X195872D01*
X192328Y44991D02*
X195872D01*
Y51683D01*
X192328Y44991D02*
Y51683D01*
X194100Y47254D02*
Y49420D01*
X193017Y48337D02*
X195183D01*
X46101Y54012D02*
X48267D01*
X47184Y52930D02*
Y55095D01*
X48956Y50666D02*
Y57359D01*
X45412Y50666D02*
Y57359D01*
X48956D01*
X45412Y50666D02*
X48956D01*
X44200Y22217D02*
Y24383D01*
X43117Y23300D02*
X45283D01*
X47743Y21528D02*
Y25072D01*
X40657Y21528D02*
Y25072D01*
Y21528D02*
X47743D01*
X40657Y25072D02*
X47743D01*
X29800Y29430D02*
Y33170D01*
X27930Y31300D02*
X31670D01*
X25076Y33662D02*
X34524D01*
X25076Y28938D02*
X34524D01*
X25076D02*
Y33662D01*
X34524Y28938D02*
Y33662D01*
X52898Y32492D02*
Y50602D01*
X34788D02*
X52898D01*
X34788Y32492D02*
Y50602D01*
Y32492D02*
X52898D01*
X29856Y34330D02*
Y38070D01*
X27986Y36200D02*
X31726D01*
X25131Y38562D02*
X34580D01*
X25131Y33838D02*
X34580D01*
X25131D02*
Y38562D01*
X34580Y33838D02*
Y38562D01*
X85600Y54931D02*
Y58868D01*
X83631Y56900D02*
X87568D01*
X79694Y53553D02*
X91505D01*
X79694Y60246D02*
X91505D01*
Y53553D02*
Y60246D01*
X79694Y53553D02*
Y60246D01*
X146528Y78254D02*
X150072D01*
X146528Y84947D02*
X150072D01*
X146528Y78254D02*
Y84947D01*
X150072Y78254D02*
Y84947D01*
X148300Y80517D02*
Y82683D01*
X147217Y81600D02*
X149383D01*
X44500Y74917D02*
Y77083D01*
X43417Y76000D02*
X45583D01*
X41153Y77772D02*
X47846D01*
X41153Y74228D02*
X47846D01*
X41153D02*
Y77772D01*
X47846Y74228D02*
Y77772D01*
X59905Y70754D02*
Y77447D01*
X48094Y70754D02*
Y77447D01*
X52031Y74100D02*
X55968D01*
X54000Y72132D02*
Y76069D01*
X48094Y77447D02*
X59905D01*
X48094Y70754D02*
X59905D01*
X41280Y54072D02*
X43446D01*
X42363Y52989D02*
Y55154D01*
X44135Y50725D02*
Y57418D01*
X40591Y50725D02*
Y57418D01*
X44135D01*
X40591Y50725D02*
X44135D01*
X41717Y81100D02*
X43883D01*
X42800Y80017D02*
Y82183D01*
X44572Y77754D02*
Y84447D01*
X41028Y77754D02*
Y84447D01*
X44572D01*
X41028Y77754D02*
X44572D01*
X48172Y77657D02*
Y84743D01*
X44628Y77657D02*
Y84743D01*
X48172D01*
X44628Y77657D02*
X48172D01*
X46400Y80117D02*
Y82283D01*
X45317Y81200D02*
X47483D01*
X100128Y107046D02*
X103672D01*
X100128Y100354D02*
X103672D01*
Y107046D01*
X100128Y100354D02*
Y107046D01*
X101900Y102617D02*
Y104783D01*
X100817Y103700D02*
X102983D01*
X125672Y91157D02*
Y98243D01*
X122128Y91157D02*
Y98243D01*
X125672D01*
X122128Y91157D02*
X125672D01*
X123900Y93617D02*
Y95783D01*
X122817Y94700D02*
X124983D01*
X150638Y65713D02*
X155362D01*
X150638Y75161D02*
X155362D01*
X150638Y65713D02*
Y75161D01*
X155362Y65713D02*
Y75161D01*
X153000Y68567D02*
Y72307D01*
X151130Y70437D02*
X154870D01*
X93353Y109609D02*
X100047D01*
X93353Y97798D02*
X100047D01*
Y109609D01*
X93353Y97798D02*
Y109609D01*
X96700Y101735D02*
Y105672D01*
X94731Y103704D02*
X98668D01*
X36200Y82217D02*
Y84383D01*
X35117Y83300D02*
X37283D01*
X32657Y81528D02*
Y85072D01*
X39743Y81528D02*
Y85072D01*
X32657D02*
X39743D01*
X32657Y81528D02*
X39743D01*
X54450Y124028D02*
X61537D01*
X54450Y127572D02*
X61537D01*
Y124028D02*
Y127572D01*
X54450Y124028D02*
Y127572D01*
X56911Y125800D02*
X59076D01*
X57994Y124717D02*
Y126883D01*
X94294Y127572D02*
X101380D01*
X94294Y124028D02*
X101380D01*
X94294D02*
Y127572D01*
X101380Y124028D02*
Y127572D01*
X96754Y125800D02*
X98920D01*
X97837Y124717D02*
Y126883D01*
X103483Y137100D02*
X105648D01*
X104565Y136017D02*
Y138183D01*
X106337Y133754D02*
Y140446D01*
X102794Y133754D02*
Y140446D01*
X106337D01*
X102794Y133754D02*
X106337D01*
Y169228D02*
Y176315D01*
X102794Y169228D02*
Y176315D01*
X106337D01*
X102794Y169228D02*
X106337D01*
X104565Y171689D02*
Y173854D01*
X103483Y172772D02*
X105648D01*
X49517Y158200D02*
X51683D01*
X50600Y157117D02*
Y159283D01*
X48828Y154853D02*
Y161547D01*
X52372Y154853D02*
Y161547D01*
X48828Y154853D02*
X52372D01*
X48828Y161547D02*
X52372D01*
X169528Y43683D02*
X173072D01*
X169528Y36991D02*
X173072D01*
Y43683D01*
X169528Y36991D02*
Y43683D01*
X171300Y39254D02*
Y41420D01*
X170217Y40337D02*
X172383D01*
X150247Y59779D02*
Y63322D01*
X143553Y59779D02*
Y63322D01*
Y59779D02*
X150247D01*
X143553Y63322D02*
X150247D01*
X145817Y61550D02*
X147983D01*
X146900Y60468D02*
Y62633D01*
X143553Y63379D02*
Y66922D01*
X150247Y63379D02*
Y66922D01*
X143553D02*
X150247D01*
X143553Y63379D02*
X150247D01*
X145817Y65150D02*
X147983D01*
X146900Y64068D02*
Y66233D01*
X155928Y68291D02*
X159472D01*
X155928Y74984D02*
X159472D01*
X155928Y68291D02*
Y74984D01*
X159472Y68291D02*
Y74984D01*
X157700Y70554D02*
Y72720D01*
X156617Y71637D02*
X158783D01*
X169528Y110346D02*
X173072D01*
X169528Y103654D02*
X173072D01*
Y110346D01*
X169528Y103654D02*
Y110346D01*
X171300Y105917D02*
Y108083D01*
X170217Y107000D02*
X172383D01*
X150247Y126442D02*
Y129985D01*
X143553Y126442D02*
Y129985D01*
Y126442D02*
X150247D01*
X143553Y129985D02*
X150247D01*
X145817Y128214D02*
X147983D01*
X146900Y127131D02*
Y129296D01*
X150247Y130042D02*
Y133585D01*
X143553Y130042D02*
Y133585D01*
Y130042D02*
X150247D01*
X143553Y133585D02*
X150247D01*
X145817Y131814D02*
X147983D01*
X146900Y130731D02*
Y132896D01*
X155928Y134953D02*
X159472D01*
X155928Y141647D02*
X159472D01*
X155928Y134953D02*
Y141647D01*
X159472Y134953D02*
Y141647D01*
X157700Y137217D02*
Y139383D01*
X156617Y138300D02*
X158783D01*
X13700Y83031D02*
Y86968D01*
X11732Y85000D02*
X15669D01*
X7795Y81653D02*
X19606D01*
X7795Y88346D02*
X19606D01*
Y81653D02*
Y88346D01*
X7795Y81653D02*
Y88346D01*
X7853Y81605D02*
X14547D01*
X7853Y69794D02*
X14547D01*
X11200Y73731D02*
Y77668D01*
X9232Y75700D02*
X13169D01*
X7853Y69794D02*
Y81605D01*
X14547Y69794D02*
Y81605D01*
X193017Y63437D02*
X195183D01*
X194100Y62354D02*
Y64520D01*
X195872Y60091D02*
Y66783D01*
X192328Y60091D02*
Y66783D01*
X195872D01*
X192328Y60091D02*
X195872D01*
X9794Y22053D02*
Y28747D01*
X21606Y22053D02*
Y28747D01*
X9794D02*
X21606D01*
X9794Y22053D02*
X21606D01*
X13732Y25400D02*
X17669D01*
X15700Y23431D02*
Y27369D01*
X29880Y56228D02*
X32046D01*
X30963Y55146D02*
Y57311D01*
X32735Y52882D02*
Y59575D01*
X29191Y52882D02*
Y59575D01*
X32735D01*
X29191Y52882D02*
X32735D01*
X29191Y46154D02*
X32735D01*
X29191Y52846D02*
X32735D01*
X29191Y46154D02*
Y52846D01*
X32735Y46154D02*
Y52846D01*
X30963Y48417D02*
Y50583D01*
X29880Y49500D02*
X32046D01*
X33228Y57446D02*
X36772D01*
X33228Y50753D02*
X36772D01*
Y57446D01*
X33228Y50753D02*
Y57446D01*
X35000Y53017D02*
Y55183D01*
X33917Y54100D02*
X36083D01*
X53617Y51700D02*
X55783D01*
X54700Y50617D02*
Y52783D01*
X56472Y48353D02*
Y55046D01*
X52928Y48353D02*
Y55046D01*
X56472D01*
X52928Y48353D02*
X56472D01*
X25448Y59628D02*
X32535D01*
X25448Y63172D02*
X32535D01*
Y59628D02*
Y63172D01*
X25448Y59628D02*
Y63172D01*
X27909Y61400D02*
X30074D01*
X28991Y60317D02*
Y62483D01*
X23591Y76846D02*
X27135D01*
X23591Y70153D02*
X27135D01*
Y76846D01*
X23591Y70153D02*
Y76846D01*
X25363Y72417D02*
Y74583D01*
X24280Y73500D02*
X26446D01*
X26317Y56200D02*
X28483D01*
X27400Y55117D02*
Y57283D01*
X29172Y52854D02*
Y59547D01*
X25628Y52854D02*
Y59547D01*
X29172D01*
X25628Y52854D02*
X29172D01*
X47813Y25285D02*
Y32372D01*
X44270Y25285D02*
Y32372D01*
X47813D01*
X44270Y25285D02*
X47813D01*
X46042Y27746D02*
Y29911D01*
X44959Y28829D02*
X47124D01*
X39717Y28900D02*
X41883D01*
X40800Y27817D02*
Y29983D01*
X39028Y25554D02*
Y32247D01*
X42572Y25554D02*
Y32247D01*
X39028Y25554D02*
X42572D01*
X39028Y32247D02*
X42572D01*
X36928Y57446D02*
X40472D01*
X36928Y50753D02*
X40472D01*
Y57446D01*
X36928Y50753D02*
Y57446D01*
X38700Y53017D02*
Y55183D01*
X37617Y54100D02*
X39783D01*
X59710Y44628D02*
Y48172D01*
X53017Y44628D02*
Y48172D01*
Y44628D02*
X59710D01*
X53017Y48172D02*
X59710D01*
X55280Y46400D02*
X57446D01*
X56363Y45317D02*
Y47483D01*
X193017Y130300D02*
X195183D01*
X194100Y129217D02*
Y131383D01*
X195872Y126953D02*
Y133647D01*
X192328Y126953D02*
Y133647D01*
X195872D01*
X192328Y126953D02*
X195872D01*
X150638Y132376D02*
X155362D01*
X150638Y141824D02*
X155362D01*
X150638Y132376D02*
Y141824D01*
X155362Y132376D02*
Y141824D01*
X153000Y135230D02*
Y138970D01*
X151130Y137100D02*
X154870D01*
X117572Y59717D02*
Y61883D01*
X116489Y60800D02*
X118654D01*
X114028Y59028D02*
Y62572D01*
X121115Y59028D02*
Y62572D01*
X114028D02*
X121115D01*
X114028Y59028D02*
X121115D01*
X83317Y94328D02*
X85483D01*
X84400Y93246D02*
Y95411D01*
X82628Y90785D02*
X86172D01*
X82628Y97872D02*
X86172D01*
X82628Y90785D02*
Y97872D01*
X86172Y90785D02*
Y97872D01*
X84017Y76200D02*
X86183D01*
X85100Y75117D02*
Y77283D01*
X83328Y72657D02*
X86872D01*
X83328Y79743D02*
X86872D01*
X83328Y72657D02*
Y79743D01*
X86872Y72657D02*
Y79743D01*
X107115Y50755D02*
X113808D01*
X107115Y62566D02*
X113808D01*
X107115Y50755D02*
Y62566D01*
X113808Y50755D02*
Y62566D01*
X110461Y54692D02*
Y58629D01*
X108493Y56661D02*
X112430D01*
X87900Y61117D02*
Y63283D01*
X86817Y62200D02*
X88983D01*
X91443Y60428D02*
Y63972D01*
X84357Y60428D02*
Y63972D01*
Y60428D02*
X91443D01*
X84357Y63972D02*
X91443D01*
X89700Y98517D02*
Y100683D01*
X88617Y99600D02*
X90783D01*
X93243Y97828D02*
Y101372D01*
X86157Y97828D02*
Y101372D01*
Y97828D02*
X93243D01*
X86157Y101372D02*
X93243D01*
M02*
