M48
;Layer_Color=9474304
;FILE_FORMAT=2:5
INCH,TZ
;TYPE=PLATED
T01F00S00C0.01181
T03F00S00C0.03543
T04F00S00C0.08858
%
T01
X6700Y29200
X6755Y39445
X6700Y49400
X15000Y60500
X13800Y67200
X22050Y69250
X25363Y69228
X33901Y74234
X37620Y74365
X44573Y73000
X54550Y72500
Y75500
X60550
Y72500
X62100Y94100
Y97400
X58800Y97395
X60004Y116200
X53834Y124600
X65000Y126588
X67408Y142708
Y149908
Y155700
X74608
X80400
Y149908
X74608
X71008Y146308
X74608Y142708
X80400
X87600
X84000Y146308
X87600Y149908
Y155700
X104600Y141400
X101597Y124500
X90000Y126588
X95004Y116200
X96700Y103704
X91472Y102100
X84500Y99500
X84400Y90057
X84700Y85400
X80400Y85100
X75700Y86776
X85100Y80472
X94200Y80300
X104500
X114800
Y90600
X104500
X94200
Y70000
X104500
X103800Y61000
X105900Y58500
X110461Y56665
X115800Y58300
X116200Y53800
X116100Y44900
X121870Y60783
X126050Y63350
X125300Y67600
X128932Y68346
X127793Y71385
X126200Y74600
X127800Y77401
X130200Y75500
X125300Y79500
X123918Y82400
X128060Y83644
X126376Y92905
X126700Y96300
X126000Y103500
X107800Y103700
X109500Y101000
X105000Y102000
X112000Y110000
X82150Y109650
X74890Y116000
X82800Y71200
X84800Y68900
X84128Y62200
X85600Y56900
X78500Y56800
X95300Y57200
X93500Y59500
X97400Y55100
Y51500
X95600Y41200
X92600
X86911Y40900
X87970Y32900
X90970
X100996Y24244
X108601Y27613
X108585Y20741
X72072Y32900
X69072
X67443Y41200
X64442
X57824Y42531
X60500Y47300
X58500Y50000
X50900Y52200
X51200Y56300
X42300Y58700
X38780Y58571
X35000Y58500
X36404Y49396
X33100Y44400
X27200Y45000
X40695Y44697
X43845
X46995
Y41547
X46969Y38427
X43863Y38400
X43843Y41547
X40695
Y38402
X36122Y33820
X36800Y30700
X48700Y28800
X48600Y25400
X46000Y20900
X47508Y15800
X53500Y15435
X55500Y33200
X27100Y16800
X25000Y14600
X22700Y16800
X24800Y19000
X15300Y25400
X16356Y38950
X16993Y79187
X20193
X18793Y81987
X15693
X13700Y85000
X50580Y153995
X126000Y137000
X137000Y130500
X143000Y130000
X142500Y124500
X142000Y119800
X137000Y120500
X141900Y112900
X151206Y107543
X151200Y118600
Y121700
X142500Y135500
X148300Y85800
X148237Y77000
X141928Y68737
Y65150
Y61550
Y57882
X138900Y63400
X151500Y55100
X149100Y52600
X151568Y40937
X114800Y70000
X157700Y75709
X174700Y74237
X177500Y74337
Y77037
X183500Y73337
X186500
X189500
X195400Y76069
X198400Y67437
X191736Y64037
Y47837
X198400Y44287
X195400Y35206
X189500Y38837
X186500
X183500
X177499Y37735
Y35035
X174699Y37835
X171300Y35737
X168500Y37200
X165000Y37100
X161900Y37137
X163050Y51287
X163051Y56035
X167799Y56035
X172548Y56036
Y51286
X167800Y51287
X167799Y60785
X163051Y60785
X172549Y60785
X183500Y86135
X186500
X189500
Y92802
X186500
X183500
Y105598
X186500Y105598
X189500Y105598
X194900Y102269
X198400Y111100
X191736Y114700
Y130900
X198400Y134300
X195400Y143131
X189500Y140202
X186500
X183500
X177500Y141000
Y143700
X174700Y140900
X172549Y127448
X167799
X163051Y127448
Y122698
X163050Y117950
X167800
X172548Y117949
Y122699
X167799Y122698
X167721Y104501
X164810Y104421
X161900Y104300
X171300Y102900
X174700Y104500
X177500Y104400
Y101700
X183500Y152898
X186500
X189500
X157700Y142572
X183500Y26037
X186500
X189500
X103500Y160000
X103510Y165304
X105765Y168500
X96100Y169900
X90004Y171810
X85004
X82765Y168700
X80400Y162900
X74608
X67408
X71004Y159090
X84000Y159300
X87600Y162900
X75000Y171810
X70000
X59965
X114365Y173400
T03
X215098Y41075
Y50917
Y60760
Y70602
X215100Y107937
Y117780
Y127622
Y137465
T04
X217560Y18699
Y168305
X8899
M30
